<svg width="26" height="26" viewBox="0 0 26 26" fill="none" xmlns="http://www.w3.org/2000/svg">
<rect x="0.577778" y="0.577778" width="24.8444" height="24.8444" rx="6.64444" fill="white" stroke="#FF4E60" stroke-width="1.15556"/>
<path d="M8.78863 9.39077C8.71031 9.31026 8.6665 9.20248 8.6665 9.09029C8.6665 8.9781 8.71031 8.87032 8.78863 8.78981C8.86932 8.71167 8.97734 8.66797 9.08979 8.66797C9.20224 8.66797 9.31026 8.71167 9.39095 8.78981L13.009 12.4052L16.634 8.78981C16.7156 8.7205 16.8204 8.68455 16.9274 8.68918C17.0345 8.69382 17.1358 8.7387 17.211 8.8148C17.2863 8.89091 17.3298 8.9926 17.333 9.09944C17.3361 9.20629 17.2987 9.31036 17.2281 9.39077L13.6127 13.0006L17.2281 16.6174C17.2922 16.6986 17.3243 16.8004 17.3182 16.9037C17.3122 17.0069 17.2685 17.1043 17.1954 17.1776C17.1223 17.2509 17.0248 17.2949 16.9214 17.3014C16.818 17.3079 16.7158 17.2764 16.634 17.2128L13.009 13.6029L9.39095 17.2128C9.31026 17.2909 9.20224 17.3346 9.08979 17.3346C8.97734 17.3346 8.86932 17.2909 8.78863 17.2128C8.71031 17.1323 8.6665 17.0245 8.6665 16.9123C8.6665 16.8001 8.71031 16.6923 8.78863 16.6118L12.4067 13.0006L8.78863 9.39077Z" fill="#FF4E60" stroke="#FF4E60" stroke-width="0.722222"/>
</svg>
