<svg width="24" height="32" viewBox="0 0 24 32" fill="none" xmlns="http://www.w3.org/2000/svg">
<path d="M0.0483615 22.6278H23.9248V12.0719V8.93027C23.9248 8.51947 24.0301 7.93639 23.8869 7.54795C23.6967 7.03222 22.9882 6.54854 22.6053 6.16564L19.5893 3.14967L17.453 1.01336C17.1673 0.727656 16.8354 0.251749 16.4477 0.108786C15.8503 -0.111462 14.8842 0.070873 14.2485 0.070873H9.22193H2.68733C1.93078 0.070873 0.797653 -0.16366 0.271914 0.513223C-0.0882241 0.976894 0.0483615 1.71858 0.0483615 2.27001V6.41697V22.6278Z" fill="#486B6B"/>
<path d="M11.4612 2.98047L11.5031 3.00142L11.4612 2.98047ZM11.168 3.02236L11.2308 3.08519L11.168 3.02236Z" fill="#F0CDCA"/>
<path d="M11.2734 3.04297L11.3153 3.06392L11.2734 3.04297Z" fill="#F19990"/>
<path d="M11.3562 3.05881C10.5837 3.1995 10.2895 4.09008 10.3689 4.78234C10.4606 5.58119 10.6782 6.35812 10.9674 7.10715C11.2218 7.7662 11.5767 8.27546 11.3956 8.99213C10.9743 10.6585 10.5081 12.3476 9.89903 13.9559C9.71317 14.4466 9.58028 15.309 9.1936 15.6751C8.84583 16.0044 8.20311 16.1672 7.77478 16.3814C6.59384 16.9719 5.19952 17.6885 4.49247 18.8569C3.85063 19.9173 4.59407 21.3298 5.8898 21.291C7.46759 21.2438 8.58004 19.1026 9.13039 17.8515C9.33623 17.3836 9.57223 16.45 10.0395 16.1996C11.1602 15.599 12.5803 15.3057 13.8067 15.0006C14.1754 14.9089 14.8145 14.6556 15.1881 14.7585C15.5281 14.8522 15.8052 15.346 16.0687 15.5706C16.616 16.0373 17.2974 16.2963 18.0165 16.2798C18.9703 16.2579 20.5267 15.1175 19.3301 14.2211C18.6976 13.7473 17.6456 13.7058 16.8855 13.7781C16.5597 13.8091 15.8716 14.0049 15.5984 13.7921C15.2194 13.497 14.9486 12.9082 14.6866 12.5108C14.0479 11.5421 13.4345 10.5308 12.9115 9.49479C12.7241 9.12357 12.4133 8.72239 12.3574 8.30097C12.3113 7.95294 12.4941 7.51248 12.5626 7.16998C12.7052 6.45702 12.8184 5.76329 12.8004 5.03367C12.7824 4.29507 12.351 2.87766 11.3562 3.05881Z" fill="white"/>
<path d="M11.6079 3.02344L11.6707 3.08627L11.6079 3.02344Z" fill="#F19990"/>
<path d="M11.6708 3.02344L11.7336 3.08627L11.6708 3.02344ZM11.0425 3.08627L11.1053 3.1491L11.0425 3.08627Z" fill="#F0CDCA"/>
<path d="M11.1055 3.08594L11.1683 3.14877L11.1055 3.08594ZM11.7966 3.08594L11.8595 3.14877L11.7966 3.08594Z" fill="#F19990"/>
<path d="M10.917 3.15234L10.9798 3.21518L10.917 3.15234Z" fill="#F0CDCA"/>
<path d="M10.98 3.15234L11.0428 3.21518L10.98 3.15234Z" fill="#F19990"/>
<path d="M11.9222 3.15234L11.985 3.21518L11.9222 3.15234ZM10.854 3.21518L10.9168 3.27801L10.854 3.21518Z" fill="#F0CDCA"/>
<path d="M11.9853 3.21484L12.0482 3.27768L11.9853 3.21484ZM10.7915 3.27768L10.8543 3.34051L10.7915 3.27768Z" fill="#F19990"/>
<path d="M12.1118 3.27734L12.1746 3.34018L12.1118 3.27734Z" fill="#F0CDCA"/>
<path d="M10.728 3.33984L10.7909 3.40268L10.728 3.33984Z" fill="#F19990"/>
<path d="M12.1733 3.33984L12.2362 3.40268L12.1733 3.33984Z" fill="#F0CDCA"/>
<path d="M10.665 3.40234L10.7279 3.46518L10.665 3.40234Z" fill="#F19990"/>
<path d="M12.2362 3.40234L12.299 3.46518L12.2362 3.40234ZM10.6025 3.46518L10.6654 3.52801L10.6025 3.46518ZM12.299 3.46518L12.3619 3.52801L12.299 3.46518Z" fill="#F0CDCA"/>
<path d="M12.2989 3.52734L12.3617 3.59018L12.2989 3.52734ZM10.5396 3.59018L10.6024 3.65301L10.5396 3.59018ZM12.3617 3.59018L12.4245 3.65301L12.3617 3.59018Z" fill="#F19990"/>
<path d="M10.4766 3.65234L10.5394 3.71518L10.4766 3.65234ZM12.4244 3.65234L12.4872 3.71518L12.4244 3.65234Z" fill="#F0CDCA"/>
<path d="M10.4766 3.71484L10.5394 3.77768L10.4766 3.71484ZM11.461 3.79862L11.5028 3.81957L11.461 3.79862Z" fill="#F19990"/>
<path d="M12.488 3.77734L12.5509 3.84018L12.488 3.77734ZM10.4146 3.84018L10.4774 3.90301L10.4146 3.84018Z" fill="#F0CDCA"/>
<path d="M11.2933 3.83984L11.2305 3.96551L11.2933 3.83984Z" fill="#F19990"/>
<path d="M11.7965 7.04213C12.1117 6.38635 12.1394 5.29362 11.9841 4.59166C11.9316 4.35468 11.767 3.81472 11.427 3.88993C11.1298 3.95571 11.1325 4.48825 11.1472 4.71733C11.1976 5.5039 11.4254 6.34519 11.7965 7.04213Z" fill="#486B6B"/>
<path d="M11.5454 3.83984L11.6082 3.90268L11.5454 3.83984Z" fill="#F0CDCA"/>
<path d="M11.6084 3.83984L11.6712 3.90268L11.6084 3.83984ZM10.4146 3.90268L10.4774 3.96551L10.4146 3.90268ZM11.6712 3.90268L11.734 3.96551L11.6712 3.90268Z" fill="#F19990"/>
<path d="M12.5508 3.90625L12.6136 3.96908L12.5508 3.90625ZM10.3726 4.07381L10.3935 4.11569L10.3726 4.07381Z" fill="#F0CDCA"/>
<path d="M11.168 4.03125L11.2308 4.09408L11.168 4.03125Z" fill="#F19990"/>
<path d="M11.7335 4.03125L11.7963 4.09408L11.7335 4.03125ZM12.6131 4.03125L12.676 4.09408L12.6131 4.03125ZM11.168 4.09408L11.2308 4.15692L11.168 4.09408Z" fill="#F0CDCA"/>
<path d="M11.7967 4.09375L11.8595 4.15658L11.7967 4.09375ZM12.6135 4.09375L12.6764 4.15658L12.6135 4.09375ZM10.3516 4.15658V4.34508H10.4144L10.3516 4.15658ZM11.1056 4.21942L11.1684 4.28225L11.1056 4.21942ZM11.8595 4.21942L11.9224 4.28225L11.8595 4.21942Z" fill="#F19990"/>
<path d="M12.6763 4.21875L12.7391 4.28158L12.6763 4.21875ZM11.1055 4.28158V4.53291H11.1683L11.1055 4.28158Z" fill="#F0CDCA"/>
<path d="M12.6978 4.32031L12.7188 4.3622L12.6978 4.32031ZM11.9229 4.34125L11.9857 4.40409L11.9229 4.34125Z" fill="#F19990"/>
<path d="M11.9229 4.40625L11.9857 4.46908L11.9229 4.40625ZM12.7606 4.51097L12.7816 4.55286L12.7606 4.51097Z" fill="#F0CDCA"/>
<path d="M11.9849 4.59375L12.0477 4.65658L11.9849 4.59375ZM12.7598 4.63564L12.7808 4.67752L12.7598 4.63564Z" fill="#F19990"/>
<path d="M11.1055 4.65625V4.97041H11.1683L11.1055 4.65625ZM12.006 4.69814L12.027 4.74002L12.006 4.69814Z" fill="#F0CDCA"/>
<path d="M10.3516 4.84375V5.03225H10.4144L10.3516 4.84375Z" fill="#F19990"/>
<path d="M12.8027 4.91016V5.72698H12.8656L12.8027 4.91016Z" fill="#F0CDCA"/>
<path d="M11.1265 5.01455L11.1475 5.05643L11.1265 5.01455ZM12.048 4.97266V5.66382H12.1109L12.048 4.97266Z" fill="#F19990"/>
<path d="M10.3516 5.03516V5.22365H10.4144L10.3516 5.03516ZM11.1893 5.26554L11.2103 5.30743L11.1893 5.26554Z" fill="#F0CDCA"/>
<path d="M10.4346 5.33203L10.4556 5.37392L10.4346 5.33203ZM11.1676 5.35297L11.2305 5.41581L11.1676 5.35297Z" fill="#F19990"/>
<path d="M10.4346 5.45703L10.4556 5.49892L10.4346 5.45703ZM11.2514 5.51986L11.2724 5.56175L11.2514 5.51986Z" fill="#F0CDCA"/>
<path d="M10.4976 5.63955L10.5185 5.68143L10.4976 5.63955ZM11.2306 5.59766L11.2935 5.66049L11.2306 5.59766Z" fill="#F19990"/>
<path d="M10.4766 5.72656L10.5394 5.7894L10.4766 5.72656ZM11.3143 5.76845L11.3353 5.81034L11.3143 5.76845Z" fill="#F0CDCA"/>
<path d="M10.561 5.89345L10.582 5.93534L10.561 5.89345ZM11.2941 5.85156L11.3569 5.9144L11.2941 5.85156Z" fill="#F19990"/>
<path d="M11.9849 5.91406V6.10256H12.0477L11.9849 5.91406Z" fill="#F0CDCA"/>
<path d="M12.7397 5.91406V6.16539H12.8026L12.7397 5.91406Z" fill="#F19990"/>
<path d="M10.5396 5.97656L10.6024 6.0394L10.5396 5.97656ZM11.3564 5.97656L11.4192 6.0394L11.3564 5.97656Z" fill="#F0CDCA"/>
<path d="M11.3565 6.03906L11.4194 6.1019L11.3565 6.03906ZM10.6025 6.1019L10.6654 6.16473L10.6025 6.1019ZM12.0058 6.14379L12.0268 6.18567L12.0058 6.14379Z" fill="#F19990"/>
<path d="M10.6025 6.16406L10.6654 6.2269L10.6025 6.16406ZM11.4194 6.16406L11.4822 6.2269L11.4194 6.16406ZM12.7598 6.20595L12.7808 6.24782L12.7598 6.20595Z" fill="#F0CDCA"/>
<path d="M11.419 6.22656L11.4819 6.2894L11.419 6.22656ZM10.665 6.2894L10.7279 6.35223L10.665 6.2894Z" fill="#F19990"/>
<path d="M10.665 6.35156L10.7279 6.4144L10.665 6.35156ZM11.4819 6.35156L11.5447 6.4144L11.4819 6.35156ZM11.9426 6.39347L11.9636 6.43532L11.9426 6.39347Z" fill="#F0CDCA"/>
<path d="M11.482 6.41406L11.5449 6.4769L11.482 6.41406ZM12.6968 6.45597L12.7177 6.49782L12.6968 6.45597ZM10.728 6.4769L10.7909 6.53973L10.728 6.4769ZM11.9428 6.5188L11.9638 6.56065L11.9428 6.5188Z" fill="#F19990"/>
<path d="M10.728 6.53906L10.7909 6.6019L10.728 6.53906ZM11.5449 6.53906L11.6077 6.6019L11.5449 6.53906ZM12.6968 6.58097L12.7177 6.62282L12.6968 6.58097Z" fill="#F0CDCA"/>
<path d="M11.5455 6.60156L11.6083 6.6644L11.5455 6.60156ZM10.7915 6.6644L10.8543 6.72723L10.7915 6.6644Z" fill="#F19990"/>
<path d="M11.6083 6.66797L11.6712 6.7308L11.6083 6.66797ZM10.7915 6.7308L10.8543 6.79363L10.7915 6.7308Z" fill="#F0CDCA"/>
<path d="M11.6079 6.73047L11.6707 6.7933L11.6079 6.73047Z" fill="#F19990"/>
<path d="M11.8599 6.73047L11.9227 6.7933L11.8599 6.73047Z" fill="#F0CDCA"/>
<path d="M12.6342 6.77344L12.6552 6.81528L12.6342 6.77344ZM11.8802 6.83627L11.9012 6.87812L11.8802 6.83627ZM10.854 6.85719L10.9168 6.92003L10.854 6.85719Z" fill="#F19990"/>
<path d="M11.6708 6.85547L11.7337 6.9183L11.6708 6.85547ZM12.6342 6.89738L12.6552 6.93922L12.6342 6.89738ZM10.854 6.9183L10.9168 6.98113L10.854 6.9183Z" fill="#F0CDCA"/>
<path d="M11.6709 6.91797L11.7337 6.9808L11.6709 6.91797Z" fill="#F19990"/>
<path d="M11.7344 6.98047L11.86 7.10613L11.7344 6.98047Z" fill="#F0CDCA"/>
<path d="M10.917 7.04297L10.9798 7.1058L10.917 7.04297ZM11.7338 7.04297L11.7966 7.1058L11.7338 7.04297ZM12.5716 7.08488L12.5925 7.12672L12.5716 7.08488ZM11.7966 7.1058L11.8595 7.16863L11.7966 7.1058ZM10.9798 7.16863L11.0427 7.23147L10.9798 7.16863Z" fill="#F19990"/>
<path d="M12.5717 7.21484L12.5927 7.25669L12.5717 7.21484ZM10.98 7.23577L11.0428 7.2986L10.98 7.23577Z" fill="#F0CDCA"/>
<path d="M11.0425 7.35547L11.1053 7.4183L11.0425 7.35547ZM12.5086 7.39738L12.5295 7.43922L12.5086 7.39738ZM11.1053 7.48113L11.1681 7.54397L11.1053 7.48113Z" fill="#F19990"/>
<path d="M12.4878 7.48047L12.5506 7.5433L12.4878 7.48047ZM11.1055 7.5433L11.1683 7.60613L11.1055 7.5433Z" fill="#F0CDCA"/>
<path d="M11.168 7.66797L11.2308 7.7308L11.168 7.66797ZM12.4246 7.66797L12.4875 7.7308L12.4246 7.66797Z" fill="#F19990"/>
<path d="M12.4458 7.78125L12.4668 7.8231L12.4458 7.78125Z" fill="#F0CDCA"/>
<path d="M11.2305 7.79297L11.2933 7.8558L11.2305 7.79297Z" fill="#F19990"/>
<path d="M11.2305 7.86328L11.2933 7.92611L11.2305 7.86328Z" fill="#F0CDCA"/>
<path d="M11.2939 7.92578L11.3568 7.98861L11.2939 7.92578ZM12.383 7.96769L12.404 8.00954L12.383 7.96769Z" fill="#F19990"/>
<path d="M11.2939 7.98828L11.3568 8.05111L11.2939 7.98828Z" fill="#F0CDCA"/>
<path d="M11.3569 8.05078L11.4198 8.11361L11.3569 8.05078Z" fill="#F19990"/>
<path d="M12.3623 8.05078L12.4251 8.11361L12.3623 8.05078ZM11.3569 8.11361L11.4198 8.17645L11.3569 8.11361Z" fill="#F0CDCA"/>
<path d="M12.3203 8.21875L12.3413 8.2606L12.3203 8.21875Z" fill="#F19990"/>
<path d="M11.4194 8.23828L11.4823 8.30111L11.4194 8.23828ZM12.2991 8.30111L12.3619 8.36395L12.2991 8.30111Z" fill="#F0CDCA"/>
<path d="M11.4824 8.36328V8.55178H11.5453L11.4824 8.36328Z" fill="#F19990"/>
<path d="M12.3619 8.42578L12.4248 8.48861L12.3619 8.42578ZM12.4248 8.55145L12.4876 8.61428L12.4248 8.55145ZM11.4194 8.61428L11.4823 8.67711L11.4194 8.61428Z" fill="#F0CDCA"/>
<path d="M11.4409 8.71875L11.4619 8.7606L11.4409 8.71875Z" fill="#F19990"/>
<path d="M12.4888 8.67578L12.5516 8.73861L12.4888 8.67578Z" fill="#F0CDCA"/>
<path d="M12.4888 8.73828L12.5516 8.80111L12.4888 8.73828Z" fill="#F19990"/>
<path d="M12.5508 8.80078L12.6136 8.86361L12.5508 8.80078ZM11.3569 8.86361L11.4198 8.92645L11.3569 8.86361Z" fill="#F0CDCA"/>
<path d="M12.5518 8.86328L12.6146 8.92611L12.5518 8.86328ZM11.3789 8.96802L11.3999 9.00987L11.3789 8.96802Z" fill="#F19990"/>
<path d="M12.6138 8.92578L12.6766 8.98861L12.6138 8.92578Z" fill="#F0CDCA"/>
<path d="M12.6138 8.99609L12.6766 9.05893L12.6138 8.99609Z" fill="#F19990"/>
<path d="M12.6763 9.05859L12.7391 9.12143L12.6763 9.05859ZM11.2939 9.12143L11.3568 9.18426L11.2939 9.12143Z" fill="#F0CDCA"/>
<path d="M11.3154 9.22266L11.3364 9.2645L11.3154 9.22266Z" fill="#F19990"/>
<path d="M12.7385 9.18359L12.8013 9.24643L12.7385 9.18359ZM12.8013 9.30926L12.8641 9.37209L12.8013 9.30926ZM11.2305 9.37209L11.2933 9.43492L11.2305 9.37209Z" fill="#F0CDCA"/>
<path d="M11.2305 9.43359L11.2933 9.49643L11.2305 9.43359ZM12.8641 9.43359L12.9269 9.49643L12.8641 9.43359ZM11.9845 9.49643V9.62209L12.1101 9.49643H11.9845Z" fill="#F19990"/>
<path d="M12.0484 9.55859L10.9784 13.2029L10.2891 15.2764L14.7502 14.0197L13.1292 11.4436L12.0484 9.55859Z" fill="#486B6B"/>
<path d="M12.9297 9.55859L12.9925 9.62143L12.9297 9.55859Z" fill="#F19990"/>
<path d="M11.168 9.62109L11.2308 9.68393L11.168 9.62109ZM11.9848 9.62109L12.0476 9.68393L11.9848 9.62109Z" fill="#F0CDCA"/>
<path d="M12.1118 9.62109L12.1746 9.68393L12.1118 9.62109Z" fill="#F19990"/>
<path d="M12.9912 9.62109L13.054 9.68393L12.9912 9.62109Z" fill="#F0CDCA"/>
<path d="M11.168 9.68359L11.2308 9.74643L11.168 9.68359ZM12.9901 9.68359L13.0529 9.74643L12.9901 9.68359ZM11.922 9.74643L11.9848 9.80926L11.922 9.74643Z" fill="#F19990"/>
<path d="M12.1737 9.74609L12.2365 9.80893L12.1737 9.74609ZM13.0534 9.74609L13.1162 9.80893L13.0534 9.74609ZM11.1265 9.85084L11.1475 9.89268L11.1265 9.85084ZM11.9433 9.85084L11.9643 9.89268L11.9433 9.85084Z" fill="#F0CDCA"/>
<path d="M13.0547 9.8125L13.1175 9.87533L13.0547 9.8125Z" fill="#F19990"/>
<path d="M12.2368 9.875L12.2996 9.93783L12.2368 9.875ZM13.1165 9.875L13.1793 9.93783L13.1165 9.875Z" fill="#F0CDCA"/>
<path d="M11.1055 9.9375L11.1683 10.0003L11.1055 9.9375ZM13.1161 9.9375L13.1789 10.0003L13.1161 9.9375ZM11.8595 10.0003L11.9223 10.0632L11.8595 10.0003Z" fill="#F19990"/>
<path d="M12.2991 10L12.362 10.0628L12.2991 10ZM13.1788 10L13.2416 10.0628L13.1788 10ZM11.0425 10.0628L11.1053 10.1257L11.0425 10.0628ZM11.8593 10.0628L11.9221 10.1257L11.8593 10.0628Z" fill="#F0CDCA"/>
<path d="M12.362 10.0625L12.4249 10.1253L12.362 10.0625ZM11.0635 10.1672L11.0845 10.2091L11.0635 10.1672Z" fill="#F19990"/>
<path d="M12.3623 10.125L12.4251 10.1878L12.3623 10.125Z" fill="#F0CDCA"/>
<path d="M13.2426 10.125L13.3054 10.1878L13.2426 10.125ZM11.8184 10.2297L11.8393 10.2716L11.8184 10.2297ZM12.4258 10.1878L12.4886 10.2507L12.4258 10.1878Z" fill="#F19990"/>
<path d="M12.4253 10.25L12.4881 10.3128L12.4253 10.25Z" fill="#F0CDCA"/>
<path d="M13.3047 10.25L13.3675 10.3128L13.3047 10.25Z" fill="#F19990"/>
<path d="M10.98 10.3125L11.0428 10.3753L10.98 10.3125ZM11.7968 10.3125L11.8596 10.3753L11.7968 10.3125Z" fill="#F0CDCA"/>
<path d="M12.4888 10.3125L12.5516 10.3753L12.4888 10.3125Z" fill="#F19990"/>
<path d="M13.3672 10.3125L13.43 10.3753L13.3672 10.3125Z" fill="#F0CDCA"/>
<path d="M10.98 10.375L11.0428 10.4378L10.98 10.375ZM13.3676 10.375L13.4305 10.4378L13.3676 10.375ZM11.734 10.4378L11.7968 10.5007L11.734 10.4378ZM12.5508 10.4378L12.6136 10.5007L12.5508 10.4378Z" fill="#F19990"/>
<path d="M13.4303 10.4375L13.4931 10.5003L13.4303 10.4375ZM10.917 10.5003L10.9798 10.5632L10.917 10.5003ZM11.7547 10.5422L11.7757 10.5841L11.7547 10.5422Z" fill="#F0CDCA"/>
<path d="M10.938 10.6055L10.959 10.6473L10.938 10.6055Z" fill="#F19990"/>
<path d="M12.6138 10.5625L12.6766 10.6253L12.6138 10.5625ZM13.4934 10.5625L13.5563 10.6253L13.4934 10.5625Z" fill="#F0CDCA"/>
<path d="M12.6762 10.625L12.7391 10.6878L12.6762 10.625ZM11.6709 10.6878L11.7337 10.7507L11.6709 10.6878Z" fill="#F19990"/>
<path d="M12.6777 10.6875L12.7406 10.7503L12.6777 10.6875Z" fill="#F0CDCA"/>
<path d="M13.5557 10.6875L13.6185 10.7503L13.5557 10.6875Z" fill="#F19990"/>
<path d="M10.854 10.75L10.9168 10.8128L10.854 10.75ZM11.6708 10.75L11.7337 10.8128L11.6708 10.75Z" fill="#F0CDCA"/>
<path d="M12.7397 10.75L12.8026 10.8128L12.7397 10.75Z" fill="#F19990"/>
<path d="M13.6187 10.75L13.6815 10.8128L13.6187 10.75Z" fill="#F0CDCA"/>
<path d="M10.854 10.8164L10.9168 10.8792L10.854 10.8164Z" fill="#F19990"/>
<path d="M12.7397 10.8164L12.8026 10.8792L12.7397 10.8164Z" fill="#F0CDCA"/>
<path d="M13.6186 10.8164L13.6814 10.8792L13.6186 10.8164ZM11.6079 10.8792L11.6707 10.9421L11.6079 10.8792ZM12.8017 10.8792L12.8646 10.9421L12.8017 10.8792Z" fill="#F19990"/>
<path d="M13.6818 10.8789L13.7446 10.9417L13.6818 10.8789ZM10.7915 10.9417L10.8543 11.0046L10.7915 10.9417ZM11.6293 10.9836L11.6502 11.0255L11.6293 10.9836Z" fill="#F0CDCA"/>
<path d="M10.813 11.043L10.834 11.0848L10.813 11.043Z" fill="#F19990"/>
<path d="M12.8657 11.0039L12.9286 11.0667L12.8657 11.0039Z" fill="#F0CDCA"/>
<path d="M13.7465 11.0039L13.8093 11.0667L13.7465 11.0039ZM12.9297 11.0667L12.9925 11.1296L12.9297 11.0667Z" fill="#F19990"/>
<path d="M13.8076 11.0664L13.8704 11.1292L13.8076 11.0664Z" fill="#F0CDCA"/>
<path d="M11.5454 11.1289L11.6082 11.1917L11.5454 11.1289Z" fill="#F19990"/>
<path d="M12.9297 11.1289L12.9925 11.1917L12.9297 11.1289Z" fill="#F0CDCA"/>
<path d="M13.8076 11.1289L13.8704 11.1917L13.8076 11.1289Z" fill="#F19990"/>
<path d="M10.728 11.1914L10.7909 11.2542L10.728 11.1914ZM11.5449 11.1914L11.6077 11.2542L11.5449 11.1914Z" fill="#F0CDCA"/>
<path d="M12.9912 11.1914L13.054 11.2542L12.9912 11.1914Z" fill="#F19990"/>
<path d="M13.8691 11.1914L13.932 11.2542L13.8691 11.1914Z" fill="#F0CDCA"/>
<path d="M10.728 11.2539L10.7909 11.3167L10.728 11.2539Z" fill="#F19990"/>
<path d="M12.9912 11.2539L13.054 11.3167L12.9912 11.2539Z" fill="#F0CDCA"/>
<path d="M11.4824 11.3164L11.5453 11.3792L11.4824 11.3164ZM13.0532 11.3164L13.1161 11.3792L13.0532 11.3164ZM13.9329 11.3164L13.9957 11.3792L13.9329 11.3164Z" fill="#F19990"/>
<path d="M10.665 11.3789L10.7279 11.4417L10.665 11.3789ZM11.5028 11.4208L11.5238 11.4627L11.5028 11.4208ZM13.9952 11.3789L14.058 11.4417L13.9952 11.3789Z" fill="#F0CDCA"/>
<path d="M10.665 11.4414L10.7279 11.5042L10.665 11.4414Z" fill="#F19990"/>
<path d="M13.1172 11.4414L13.18 11.5042L13.1172 11.4414Z" fill="#F0CDCA"/>
<path d="M13.9965 11.4414L14.0593 11.5042L13.9965 11.4414ZM13.1797 11.5042L13.2425 11.5671L13.1797 11.5042Z" fill="#F19990"/>
<path d="M14.0583 11.5039L14.1212 11.5667L14.0583 11.5039ZM10.6025 11.5667L10.6654 11.6296L10.6025 11.5667Z" fill="#F0CDCA"/>
<path d="M11.4194 11.5703L11.4823 11.6331L11.4194 11.5703Z" fill="#F19990"/>
<path d="M13.1797 11.5703L13.2425 11.6331L13.1797 11.5703Z" fill="#F0CDCA"/>
<path d="M10.624 11.668L10.645 11.7098L10.624 11.668Z" fill="#F19990"/>
<path d="M11.4194 11.6328L11.4823 11.6956L11.4194 11.6328Z" fill="#F0CDCA"/>
<path d="M13.2422 11.6328L13.305 11.6956L13.2422 11.6328ZM14.1218 11.6328L14.1847 11.6956L14.1218 11.6328Z" fill="#F19990"/>
<path d="M14.1851 11.6953L14.2479 11.7581L14.1851 11.6953Z" fill="#F0CDCA"/>
<path d="M11.3569 11.7578L11.4198 11.8206L11.3569 11.7578Z" fill="#F19990"/>
<path d="M13.3047 11.7578L13.3675 11.8206L13.3047 11.7578Z" fill="#F0CDCA"/>
<path d="M14.1851 11.7578L14.2479 11.8206L14.1851 11.7578Z" fill="#F19990"/>
<path d="M10.5396 11.8203L10.6024 11.8831L10.5396 11.8203ZM11.3564 11.8203L11.4192 11.8831L11.3564 11.8203Z" fill="#F0CDCA"/>
<path d="M13.3672 11.8203L13.43 11.8831L13.3672 11.8203Z" fill="#F19990"/>
<path d="M14.2476 11.8203L14.3104 11.8831L14.2476 11.8203Z" fill="#F0CDCA"/>
<path d="M10.5396 11.8828L10.6024 11.9456L10.5396 11.8828Z" fill="#F19990"/>
<path d="M13.3672 11.8828L13.43 11.9456L13.3672 11.8828Z" fill="#F0CDCA"/>
<path d="M11.2939 11.9453L11.3568 12.0081L11.2939 11.9453ZM13.4303 11.9453L13.4931 12.0081L13.4303 11.9453ZM14.3099 11.9453L14.3727 12.0081L14.3099 11.9453Z" fill="#F19990"/>
<path d="M10.4766 12.0078L10.5394 12.0706L10.4766 12.0078ZM11.3143 12.0497L11.3353 12.0916L11.3143 12.0497ZM14.3722 12.0078L14.435 12.0706L14.3722 12.0078Z" fill="#F0CDCA"/>
<path d="M10.4766 12.0703L10.5394 12.1331L10.4766 12.0703Z" fill="#F19990"/>
<path d="M13.4927 12.0703L13.5555 12.1331L13.4927 12.0703Z" fill="#F0CDCA"/>
<path d="M13.5557 12.1328L13.6185 12.1956L13.5557 12.1328ZM14.4353 12.1328L14.4982 12.1956L14.4353 12.1328Z" fill="#F19990"/>
<path d="M10.4146 12.1953L10.4774 12.2581L10.4146 12.1953Z" fill="#F0CDCA"/>
<path d="M11.2305 12.1953L11.2933 12.2581L11.2305 12.1953Z" fill="#F19990"/>
<path d="M14.498 12.1953L14.5609 12.2581L14.498 12.1953Z" fill="#F0CDCA"/>
<path d="M10.4146 12.2578L10.4774 12.3206L10.4146 12.2578Z" fill="#F19990"/>
<path d="M11.2305 12.2578L11.2933 12.3206L11.2305 12.2578ZM13.6181 12.2578L13.6809 12.3206L13.6181 12.2578Z" fill="#F0CDCA"/>
<path d="M14.498 12.2578L14.5608 12.3206L14.498 12.2578ZM13.6812 12.3206L13.744 12.3835L13.6812 12.3206Z" fill="#F19990"/>
<path d="M14.5613 12.3203L14.6242 12.3831L14.5613 12.3203ZM10.3516 12.3831L10.4144 12.446L10.3516 12.3831Z" fill="#F0CDCA"/>
<path d="M11.168 12.3828L11.2308 12.4456L11.168 12.3828Z" fill="#F19990"/>
<path d="M13.6812 12.3828L13.744 12.4456L13.6812 12.3828ZM14.6236 12.3828L14.6865 12.4456L14.6236 12.3828Z" fill="#F0CDCA"/>
<path d="M10.3516 12.4453L10.4144 12.5081L10.3516 12.4453Z" fill="#F19990"/>
<path d="M11.168 12.4453L11.2308 12.5081L11.168 12.4453Z" fill="#F0CDCA"/>
<path d="M13.7441 12.4453L13.807 12.5081L13.7441 12.4453ZM14.6238 12.4453L14.6866 12.5081L14.6238 12.4453Z" fill="#F19990"/>
<path d="M14.6873 12.5195L14.7502 12.5824L14.6873 12.5195ZM10.2891 12.5824L10.3519 12.6452L10.2891 12.5824Z" fill="#F0CDCA"/>
<path d="M11.1055 12.582L11.1683 12.6449L11.1055 12.582Z" fill="#F19990"/>
<path d="M13.8076 12.582L13.8704 12.6449L13.8076 12.582Z" fill="#F0CDCA"/>
<path d="M10.3096 12.6758L10.3306 12.7176L10.3096 12.6758Z" fill="#F19990"/>
<path d="M11.1055 12.6445L11.1683 12.7074L11.1055 12.6445Z" fill="#F0CDCA"/>
<path d="M13.8691 12.6445L13.932 12.7074L13.8691 12.6445ZM14.7488 12.6445L14.8116 12.7074L14.7488 12.6445Z" fill="#F19990"/>
<path d="M14.8115 12.707L14.8743 12.7699L14.8115 12.707ZM10.2456 12.8118L10.2666 12.8536L10.2456 12.8118Z" fill="#F0CDCA"/>
<path d="M11.0425 12.7695L11.1053 12.8324L11.0425 12.7695Z" fill="#F19990"/>
<path d="M13.9328 12.7695L13.9956 12.8324L13.9328 12.7695ZM11.0425 12.8324L11.1053 12.8952L11.0425 12.8324Z" fill="#F0CDCA"/>
<path d="M13.9965 12.832L14.0594 12.8949L13.9965 12.832ZM14.8762 12.832L14.939 12.8949L14.8762 12.832ZM10.2266 12.8949L10.2894 12.9577L10.2266 12.8949Z" fill="#F19990"/>
<path d="M14.9385 12.8945L15.0013 12.9574L14.9385 12.8945Z" fill="#F0CDCA"/>
<path d="M10.98 12.957L11.0428 13.0199L10.98 12.957Z" fill="#F19990"/>
<path d="M14.0597 12.957L14.1225 13.0199L14.0597 12.957ZM10.1641 13.0199L10.2269 13.0827L10.1641 13.0199ZM11.0018 13.0618L11.0228 13.1036L11.0018 13.0618Z" fill="#F0CDCA"/>
<path d="M14.1225 13.0195L14.1854 13.0824L14.1225 13.0195ZM15.0022 13.0195L15.065 13.0824L15.0022 13.0195ZM10.1641 13.0824L10.2269 13.1452L10.1641 13.0824Z" fill="#F19990"/>
<path d="M14.1216 13.082L14.1844 13.1449L14.1216 13.082ZM15.0641 13.082L15.1269 13.1449L15.0641 13.082Z" fill="#F0CDCA"/>
<path d="M10.917 13.1445L10.9798 13.2074L10.917 13.1445Z" fill="#F19990"/>
<path d="M14.1852 13.1445L14.248 13.2074L14.1852 13.1445ZM10.1011 13.2074L10.1639 13.2702L10.1011 13.2074ZM10.9388 13.2493L10.9598 13.2911L10.9388 13.2493Z" fill="#F0CDCA"/>
<path d="M14.248 13.207L14.3109 13.2699L14.248 13.207ZM15.1277 13.207L15.1905 13.2699L15.1277 13.207ZM10.1011 13.2699L10.1639 13.3327L10.1011 13.2699Z" fill="#F19990"/>
<path d="M14.2476 13.2695L14.3104 13.3324L14.2476 13.2695ZM15.19 13.2695L15.2529 13.3324L15.19 13.2695Z" fill="#F0CDCA"/>
<path d="M10.854 13.332L10.9168 13.3949L10.854 13.332ZM14.3098 13.332L14.3726 13.3949L14.3098 13.332Z" fill="#F19990"/>
<path d="M10.0391 13.3945L10.1019 13.4574L10.0391 13.3945ZM10.8768 13.4364L10.8978 13.4783L10.8768 13.4364Z" fill="#F0CDCA"/>
<path d="M14.3745 13.3945L14.4373 13.4574L14.3745 13.3945ZM15.2542 13.3945L15.317 13.4574L15.2542 13.3945ZM10.0391 13.4574L10.1019 13.5202L10.0391 13.4574Z" fill="#F19990"/>
<path d="M14.373 13.457L14.4358 13.5199L14.373 13.457ZM15.3155 13.457L15.3783 13.5199L15.3155 13.457ZM9.99561 13.5618L10.0166 13.6036L9.99561 13.5618Z" fill="#F0CDCA"/>
<path d="M10.7915 13.5195L10.8543 13.5824L10.7915 13.5195ZM14.4358 13.5195L14.4986 13.5824L14.4358 13.5195Z" fill="#F19990"/>
<path d="M15.3783 13.5195L15.4411 13.5824L15.3783 13.5195ZM10.7915 13.5824L10.8543 13.6452L10.7915 13.5824Z" fill="#F0CDCA"/>
<path d="M14.5 13.582L14.5629 13.6449L14.5 13.582ZM9.97607 13.6449L10.0389 13.7077L9.97607 13.6449Z" fill="#F19990"/>
<path d="M14.498 13.6445L14.5609 13.7074L14.498 13.6445Z" fill="#F0CDCA"/>
<path d="M15.4414 13.6445L15.5042 13.7074L15.4414 13.6445Z" fill="#F19990"/>
<path d="M9.93262 13.75L9.9536 13.7918L9.93262 13.75Z" fill="#F0CDCA"/>
<path d="M10.728 13.7109L10.7909 13.7738L10.728 13.7109Z" fill="#F19990"/>
<path d="M14.5608 13.7109L14.6237 13.7738L14.5608 13.7109ZM15.5033 13.7109L15.5661 13.7738L15.5033 13.7109ZM17.1998 13.7109V13.7738H17.4511L17.1998 13.7109ZM10.728 13.7738L10.7909 13.8366L10.728 13.7738Z" fill="#F0CDCA"/>
<path d="M14.6245 13.7734L14.6873 13.8363L14.6245 13.7734Z" fill="#F19990"/>
<path d="M16.1948 13.7734V13.8363H16.4462L16.1948 13.7734Z" fill="#F0CDCA"/>
<path d="M16.4463 13.7734V13.8363H16.7605L16.4463 13.7734ZM17.8914 13.7734V13.8363H18.1428L17.8914 13.7734Z" fill="#F19990"/>
<path d="M18.1431 13.7734V13.8363H18.3316L18.1431 13.7734Z" fill="#F0CDCA"/>
<path d="M9.91211 13.8359L9.97494 13.8988L9.91211 13.8359ZM15.567 13.8359L15.6299 13.8988L15.567 13.8359Z" fill="#F19990"/>
<path d="M15.6299 13.8359V13.8988H15.8184L15.6299 13.8359Z" fill="#F0CDCA"/>
<path d="M15.8188 13.8359V13.8988H16.0073L15.8188 13.8359ZM18.4369 13.8569L18.4787 13.8778L18.4369 13.8569Z" fill="#F19990"/>
<path d="M18.5629 13.8516L18.6048 13.8725L18.5629 13.8516ZM9.8501 13.8935L9.91293 13.9563L9.8501 13.8935Z" fill="#F0CDCA"/>
<path d="M10.665 13.8984L10.7279 13.9613L10.665 13.8984Z" fill="#F19990"/>
<path d="M14.6865 13.8984L14.7494 13.9613L14.6865 13.8984Z" fill="#F0CDCA"/>
<path d="M18.7095 13.8984L18.7723 13.9613L18.7095 13.8984Z" fill="#F19990"/>
<path d="M18.7725 13.8984L18.8353 13.9613L18.7725 13.8984Z" fill="#F0CDCA"/>
<path d="M9.8501 13.9609L9.91293 14.0238L9.8501 13.9609Z" fill="#F19990"/>
<path d="M10.665 13.9609L10.7279 14.0238L10.665 13.9609Z" fill="#F0CDCA"/>
<path d="M14.7505 13.9609L14.8133 14.0238L14.7505 13.9609ZM18.8974 13.9609L18.9603 14.0238L18.8974 13.9609Z" fill="#F19990"/>
<path d="M18.9594 13.9609L19.0222 14.0238L18.9594 13.9609ZM14.603 14.0447L14.6449 14.0657L14.603 14.0447Z" fill="#F0CDCA"/>
<path d="M14.6865 14.0234L14.7494 14.0863L14.6865 14.0234ZM19.022 14.0234L19.0848 14.0863L19.022 14.0234Z" fill="#F19990"/>
<path d="M19.0863 14.0234L19.1492 14.0863L19.0863 14.0234ZM9.78711 14.0863L9.84994 14.1491L9.78711 14.0863Z" fill="#F0CDCA"/>
<path d="M10.6025 14.0859L10.6654 14.1488L10.6025 14.0859Z" fill="#F19990"/>
<path d="M14.2886 14.1016L14.3304 14.1225L14.2886 14.1016Z" fill="#F0CDCA"/>
<path d="M14.415 14.1069L14.4569 14.1278L14.415 14.1069ZM19.1484 14.0859L19.2112 14.1488L19.1484 14.0859Z" fill="#F19990"/>
<path d="M19.2104 14.0859L19.2733 14.1488L19.2104 14.0859Z" fill="#F0CDCA"/>
<path d="M9.78711 14.1484L9.84994 14.2113L9.78711 14.1484Z" fill="#F19990"/>
<path d="M10.6025 14.1484L10.6654 14.2113L10.6025 14.1484ZM13.9955 14.1484L14.0583 14.2113L13.9955 14.1484Z" fill="#F0CDCA"/>
<path d="M14.1011 14.1694L14.1429 14.1903L14.1011 14.1694ZM19.2743 14.1484L19.3371 14.2113L19.2743 14.1484Z" fill="#F19990"/>
<path d="M13.7241 14.2266L13.766 14.2475L13.7241 14.2266Z" fill="#F0CDCA"/>
<path d="M13.8076 14.2109L13.8704 14.2738L13.8076 14.2109ZM19.3369 14.2109L19.3997 14.2738L19.3369 14.2109Z" fill="#F19990"/>
<path d="M9.72363 14.2734L9.78647 14.3363L9.72363 14.2734Z" fill="#F0CDCA"/>
<path d="M10.5396 14.2734L10.6024 14.3363L10.5396 14.2734Z" fill="#F19990"/>
<path d="M13.4722 14.2891L13.514 14.31L13.4722 14.2891Z" fill="#F0CDCA"/>
<path d="M13.5564 14.2734L13.6193 14.3363L13.5564 14.2734ZM19.3999 14.2734L19.4627 14.3363L19.3999 14.2734ZM9.72363 14.3363L9.78647 14.3991L9.72363 14.3363Z" fill="#F19990"/>
<path d="M10.5396 14.3359L10.6024 14.3988L10.5396 14.3359ZM13.2204 14.3569L13.2623 14.3778L13.2204 14.3569Z" fill="#F0CDCA"/>
<path d="M13.3047 14.3359L13.3675 14.3988L13.3047 14.3359Z" fill="#F19990"/>
<path d="M12.9697 14.4141L13.0116 14.435L12.9697 14.4141Z" fill="#F0CDCA"/>
<path d="M13.0547 14.3984L13.1175 14.4613L13.0547 14.3984ZM19.5264 14.3984L19.5893 14.4613L19.5264 14.3984Z" fill="#F19990"/>
<path d="M9.66162 14.4609L9.72445 14.5238L9.66162 14.4609Z" fill="#F0CDCA"/>
<path d="M10.4766 14.4609L10.5394 14.5238L10.4766 14.4609Z" fill="#F19990"/>
<path d="M12.7397 14.4609L12.8026 14.5238L12.7397 14.4609Z" fill="#F0CDCA"/>
<path d="M12.8027 14.4609L12.8656 14.5238L12.8027 14.4609Z" fill="#F19990"/>
<path d="M19.5874 14.4609L19.6502 14.5238L19.5874 14.4609Z" fill="#F0CDCA"/>
<path d="M9.66162 14.5234L9.72445 14.5863L9.66162 14.5234Z" fill="#F19990"/>
<path d="M10.4766 14.5234L10.5394 14.5863L10.4766 14.5234ZM12.4872 14.5234L12.55 14.5863L12.4872 14.5234Z" fill="#F0CDCA"/>
<path d="M12.5923 14.5444L12.6341 14.5653L12.5923 14.5444ZM16.3832 14.5234V14.5863H16.6345L16.3832 14.5234Z" fill="#F19990"/>
<path d="M16.6348 14.5234V14.5863H17.1374L16.6348 14.5234Z" fill="#F0CDCA"/>
<path d="M16.2573 14.5862C16.5586 15.2269 17.4559 15.5995 18.1423 15.5171C18.3895 15.4874 18.9192 15.3494 18.9192 15.0263C18.9192 14.7555 18.534 14.6716 18.3308 14.6282C17.6529 14.4833 16.943 14.5862 16.2573 14.5862Z" fill="#486B6B"/>
<path d="M17.4521 14.5234V14.5863H17.9548L17.4521 14.5234Z" fill="#F0CDCA"/>
<path d="M17.9546 14.5234V14.5863H18.1431L17.9546 14.5234Z" fill="#F19990"/>
<path d="M12.3003 14.5859L12.3631 14.6488L12.3003 14.5859Z" fill="#F0CDCA"/>
<path d="M12.3623 14.5859L12.4251 14.6488L12.3623 14.5859Z" fill="#F19990"/>
<path d="M16.1948 14.5859L16.2577 14.6488L16.1948 14.5859ZM18.3102 14.6069L18.3521 14.6278L18.3102 14.6069Z" fill="#F0CDCA"/>
<path d="M18.3952 14.5859L18.458 14.6488L18.3952 14.5859ZM19.6519 14.5859L19.7147 14.6488L19.6519 14.5859ZM9.59863 14.6488L9.66147 14.7116L9.59863 14.6488ZM10.4155 14.6488L10.4783 14.7116L10.4155 14.6488Z" fill="#F19990"/>
<path d="M12.0483 14.6484L12.1112 14.7113L12.0483 14.6484Z" fill="#F0CDCA"/>
<path d="M12.1523 14.6694L12.1942 14.6903L12.1523 14.6694ZM16.1946 14.6484L16.2574 14.7113L16.1946 14.6484Z" fill="#F19990"/>
<path d="M18.5205 14.6484L18.5833 14.7113L18.5205 14.6484Z" fill="#F0CDCA"/>
<path d="M18.5835 14.6484L18.6463 14.7113L18.5835 14.6484Z" fill="#F19990"/>
<path d="M10.4146 14.7109L10.4774 14.7738L10.4146 14.7109ZM11.8597 14.7109L11.9225 14.7738L11.8597 14.7109Z" fill="#F0CDCA"/>
<path d="M11.9229 14.7109L11.9857 14.7738L11.9229 14.7109ZM15.0436 14.7319L15.0854 14.7528L15.0436 14.7319Z" fill="#F19990"/>
<path d="M15.127 14.7109V14.7738H15.3155L15.127 14.7109Z" fill="#F0CDCA"/>
<path d="M16.2573 14.7109L16.3202 14.7738L16.2573 14.7109Z" fill="#F19990"/>
<path d="M18.7082 14.7109L18.7711 14.7738L18.7082 14.7109ZM19.7345 14.7528L19.7555 14.7947L19.7345 14.7528ZM9.53467 14.7738L9.5975 14.8366L9.53467 14.7738ZM11.671 14.7738L11.7338 14.8366L11.671 14.7738Z" fill="#F0CDCA"/>
<path d="M11.7344 14.7734L11.7972 14.8363L11.7344 14.7734ZM14.7294 14.7944L14.7713 14.8153L14.7294 14.7944Z" fill="#F19990"/>
<path d="M14.8545 14.7944L14.8963 14.8153L14.8545 14.7944ZM15.3152 14.7734L15.3781 14.8363L15.3152 14.7734Z" fill="#F0CDCA"/>
<path d="M16.3208 14.7734L16.3836 14.8363L16.3208 14.7734Z" fill="#F19990"/>
<path d="M18.8345 14.7734L18.8973 14.8363L18.8345 14.7734Z" fill="#F0CDCA"/>
<path d="M9.53467 14.8359L9.5975 14.8988L9.53467 14.8359Z" fill="#F19990"/>
<path d="M10.3516 14.8359L10.4144 14.8988L10.3516 14.8359ZM11.4825 14.8359L11.5454 14.8988L11.4825 14.8359Z" fill="#F0CDCA"/>
<path d="M11.5454 14.8359L11.6082 14.8988L11.5454 14.8359ZM14.4148 14.8569L14.4566 14.8778L14.4148 14.8569Z" fill="#F19990"/>
<path d="M14.498 14.8359L14.5609 14.8988L14.498 14.8359Z" fill="#F0CDCA"/>
<path d="M15.3784 14.8359L15.4413 14.8988L15.3784 14.8359ZM16.3837 14.8359L16.4466 14.8988L16.3837 14.8359Z" fill="#F19990"/>
<path d="M18.8979 14.8359L18.9608 14.8988L18.8979 14.8359Z" fill="#F0CDCA"/>
<path d="M19.7139 14.8359V15.1501H19.7767L19.7139 14.8359Z" fill="#F19990"/>
<path d="M11.2734 14.918L11.3153 14.939L11.2734 14.918Z" fill="#F0CDCA"/>
<path d="M11.3569 14.8984L11.4198 14.9613L11.3569 14.8984ZM14.1006 14.9194L14.1425 14.9403L14.1006 14.9194Z" fill="#F19990"/>
<path d="M14.2261 14.918L14.2679 14.939L14.2261 14.918Z" fill="#F0CDCA"/>
<path d="M15.4414 14.8984L15.5042 14.9613L15.4414 14.8984ZM16.4467 14.8984L16.5096 14.9613L16.4467 14.8984ZM18.96 14.8984L19.0229 14.9613L18.96 14.8984Z" fill="#F19990"/>
<path d="M9.47266 14.9648L9.53549 15.0277L9.47266 14.9648Z" fill="#F0CDCA"/>
<path d="M10.2891 14.9648L10.3519 15.0277L10.2891 14.9648Z" fill="#F19990"/>
<path d="M11.0859 14.9805L11.1278 15.0015L11.0859 14.9805Z" fill="#F0CDCA"/>
<path d="M11.168 14.9648L11.2308 15.0277L11.168 14.9648ZM13.8488 14.9858L13.8907 15.0068L13.8488 14.9858Z" fill="#F19990"/>
<path d="M13.9331 14.9648L13.9959 15.0277L13.9331 14.9648ZM15.4411 14.9648L15.5039 15.0277L15.4411 14.9648Z" fill="#F0CDCA"/>
<path d="M16.5083 14.9648L16.5711 15.0277L16.5083 14.9648Z" fill="#F19990"/>
<path d="M18.9604 14.9648L19.0233 15.0277L18.9604 14.9648Z" fill="#F0CDCA"/>
<path d="M9.47266 15.0273L9.53549 15.0902L9.47266 15.0273Z" fill="#F19990"/>
<path d="M10.2891 15.0273L10.3519 15.0902L10.2891 15.0273ZM10.9174 15.0273L10.9802 15.0902L10.9174 15.0273Z" fill="#F0CDCA"/>
<path d="M10.98 15.0273L11.0428 15.0902L10.98 15.0273ZM13.5561 15.0273L13.619 15.0902L13.5561 15.0273Z" fill="#F19990"/>
<path d="M13.6621 15.0483L13.704 15.0693L13.6621 15.0483ZM15.5052 15.0273L15.568 15.0902L15.5052 15.0273ZM16.6362 15.0273L16.699 15.0902L16.6362 15.0273Z" fill="#F0CDCA"/>
<path d="M18.9604 15.0273L19.0233 15.0902L18.9604 15.0273Z" fill="#F19990"/>
<path d="M9.40967 15.0898L9.4725 15.1527L9.40967 15.0898ZM10.7292 15.0898L10.792 15.1527L10.7292 15.0898Z" fill="#F0CDCA"/>
<path d="M10.7915 15.0898L10.8543 15.1527L10.7915 15.0898ZM13.3048 15.0898L13.3676 15.1527L13.3048 15.0898Z" fill="#F19990"/>
<path d="M13.4102 15.1108L13.452 15.1318L13.4102 15.1108ZM15.5674 15.0898L15.6302 15.1527L15.5674 15.0898ZM16.6984 15.0898L16.7612 15.1527L16.6984 15.0898Z" fill="#F0CDCA"/>
<path d="M9.40967 15.1523L9.4725 15.2152L9.40967 15.1523ZM10.2265 15.1523L10.2893 15.2152L10.2265 15.1523Z" fill="#F19990"/>
<path d="M10.5396 15.1523L10.6024 15.2152L10.5396 15.1523Z" fill="#F0CDCA"/>
<path d="M10.6025 15.1523L10.6654 15.2152L10.6025 15.1523ZM13.0949 15.1733L13.1368 15.1943L13.0949 15.1733Z" fill="#F19990"/>
<path d="M13.1797 15.1523L13.2425 15.2152L13.1797 15.1523Z" fill="#F0CDCA"/>
<path d="M15.6299 15.1523L15.6927 15.2152L15.6299 15.1523ZM16.7609 15.1523L16.8237 15.2152L16.7609 15.1523ZM18.8972 15.1523L18.96 15.2152L18.8972 15.1523Z" fill="#F19990"/>
<path d="M19.7352 15.1914L19.7562 15.2333L19.7352 15.1914ZM10.2266 15.2123L10.2894 15.2752L10.2266 15.2123ZM10.3522 15.2123L10.4151 15.2752L10.3522 15.2123Z" fill="#F0CDCA"/>
<path d="M10.4146 15.2148L10.4774 15.2777L10.4146 15.2148ZM12.865 15.2148L12.9279 15.2777L12.865 15.2148Z" fill="#F19990"/>
<path d="M12.9297 15.2148L12.9925 15.2777L12.9297 15.2148Z" fill="#F0CDCA"/>
<path d="M15.6934 15.2148L15.7562 15.2777L15.6934 15.2148Z" fill="#F19990"/>
<path d="M16.8867 15.2148L16.9496 15.2777L16.8867 15.2148Z" fill="#F0CDCA"/>
<path d="M18.8345 15.2148L18.8973 15.2777L18.8345 15.2148Z" fill="#F19990"/>
<path d="M9.34668 15.2773L9.40951 15.3402L9.34668 15.2773Z" fill="#F0CDCA"/>
<path d="M10.2266 15.2773L10.2894 15.3402L10.2266 15.2773ZM12.6142 15.2773L12.677 15.3402L12.6142 15.2773Z" fill="#F19990"/>
<path d="M12.7188 15.293L12.7606 15.314L12.7188 15.293Z" fill="#F0CDCA"/>
<path d="M15.7563 15.2773L15.8192 15.3402L15.7563 15.2773Z" fill="#F19990"/>
<path d="M17.0122 15.2773L17.075 15.3402L17.0122 15.2773ZM18.7087 15.2773L18.7715 15.3402L18.7087 15.2773Z" fill="#F0CDCA"/>
<path d="M19.6512 15.2773L19.7141 15.3402L19.6512 15.2773ZM9.34668 15.3402L9.40951 15.403L9.34668 15.3402ZM12.4255 15.3402L12.4883 15.403L12.4255 15.3402Z" fill="#F19990"/>
<path d="M12.4888 15.3398L12.5516 15.4027L12.4888 15.3398Z" fill="#F0CDCA"/>
<path d="M15.8188 15.3398L15.8817 15.4027L15.8188 15.3398ZM17.0755 15.3398L17.1383 15.4027L17.0755 15.3398Z" fill="#F19990"/>
<path d="M17.1372 15.3398L17.2 15.4027L17.1372 15.3398Z" fill="#F0CDCA"/>
<path d="M18.646 15.3398L18.7088 15.4027L18.646 15.3398Z" fill="#F19990"/>
<path d="M19.6504 15.3398L19.7132 15.4027L19.6504 15.3398Z" fill="#F0CDCA"/>
<path d="M12.1733 15.4023L12.2362 15.4652L12.1733 15.4023Z" fill="#F19990"/>
<path d="M12.2778 15.418L12.3197 15.439L12.2778 15.418Z" fill="#F0CDCA"/>
<path d="M15.8818 15.4023L15.9447 15.4652L15.8818 15.4023ZM17.2642 15.4023L17.327 15.4652L17.2642 15.4023Z" fill="#F19990"/>
<path d="M17.3262 15.4023L17.389 15.4652L17.3262 15.4023ZM18.4572 15.4023L18.52 15.4652L18.4572 15.4023Z" fill="#F0CDCA"/>
<path d="M18.5205 15.4023L18.5833 15.4652L18.5205 15.4023Z" fill="#F19990"/>
<path d="M9.28418 15.4648L9.34701 15.5277L9.28418 15.4648Z" fill="#F0CDCA"/>
<path d="M11.9849 15.4648L12.0477 15.5277L11.9849 15.4648Z" fill="#F19990"/>
<path d="M12.0483 15.4648L12.1112 15.5277L12.0483 15.4648Z" fill="#F0CDCA"/>
<path d="M15.9448 15.4648L16.0077 15.5277L15.9448 15.4648ZM17.4528 15.4648L17.5156 15.5277L17.4528 15.4648Z" fill="#F19990"/>
<path d="M17.5562 15.4858L17.598 15.5068L17.5562 15.4858ZM18.2682 15.4648L18.3311 15.5277L18.2682 15.4648Z" fill="#F0CDCA"/>
<path d="M18.374 15.4805L18.4159 15.5015L18.374 15.4805Z" fill="#F19990"/>
<path d="M19.5874 15.4648L19.6502 15.5277L19.5874 15.4648Z" fill="#F0CDCA"/>
<path d="M9.28418 15.5273L9.34701 15.5902L9.28418 15.5273ZM11.7975 15.5273L11.8603 15.5902L11.7975 15.5273Z" fill="#F19990"/>
<path d="M11.8599 15.5273L11.9227 15.5902L11.8599 15.5273ZM16.0068 15.5273L16.0696 15.5902L16.0068 15.5273Z" fill="#F0CDCA"/>
<path d="M17.7656 15.5273V15.5902H18.1426L17.7656 15.5273ZM19.5249 15.5273L19.5878 15.5902L19.5249 15.5273Z" fill="#F19990"/>
<path d="M9.22119 15.5898L9.28402 15.6527L9.22119 15.5898Z" fill="#F0CDCA"/>
<path d="M11.6079 15.5898L11.6707 15.6527L11.6079 15.5898Z" fill="#F19990"/>
<path d="M11.6709 15.5898L11.7337 15.6527L11.6709 15.5898ZM16.0692 15.5898L16.132 15.6527L16.0692 15.5898Z" fill="#F0CDCA"/>
<path d="M9.22119 15.6523L9.28402 15.7152L9.22119 15.6523ZM11.4203 15.6523L11.4832 15.7152L11.4203 15.6523Z" fill="#F19990"/>
<path d="M11.4824 15.6523L11.5453 15.7152L11.4824 15.6523Z" fill="#F0CDCA"/>
<path d="M16.1948 15.6523L16.2577 15.7152L16.1948 15.6523Z" fill="#F19990"/>
<path d="M19.4619 15.6523L19.5247 15.7152L19.4619 15.6523Z" fill="#F0CDCA"/>
<path d="M9.0957 15.7188L9.15854 15.7816L9.0957 15.7188ZM11.232 15.7188L11.2948 15.7816L11.232 15.7188Z" fill="#F19990"/>
<path d="M11.2939 15.7188L11.3568 15.7816L11.2939 15.7188Z" fill="#F0CDCA"/>
<path d="M16.2573 15.7188L16.3202 15.7816L16.2573 15.7188Z" fill="#F19990"/>
<path d="M19.3998 15.7188L19.4626 15.7816L19.3998 15.7188ZM8.90674 15.7816L8.96957 15.8444L8.90674 15.7816Z" fill="#F0CDCA"/>
<path d="M8.96924 15.7812L9.03207 15.8441L8.96924 15.7812ZM11.0427 15.7812L11.1055 15.8441L11.0427 15.7812Z" fill="#F19990"/>
<path d="M11.1056 15.7812L11.1684 15.8441L11.1056 15.7812ZM16.3207 15.7812L16.3835 15.8441L16.3207 15.7812ZM19.3366 15.7812L19.3995 15.8441L19.3366 15.7812ZM8.78076 15.8441L8.84359 15.9069L8.78076 15.8441Z" fill="#F0CDCA"/>
<path d="M8.84375 15.8438L8.90658 15.9066L8.84375 15.8438ZM10.8544 15.8438L10.9172 15.9066L10.8544 15.8438Z" fill="#F19990"/>
<path d="M10.917 15.8438L10.9798 15.9066L10.917 15.8438Z" fill="#F0CDCA"/>
<path d="M16.4463 15.8438L16.5091 15.9066L16.4463 15.8438Z" fill="#F19990"/>
<path d="M19.2735 15.8438L19.3363 15.9066L19.2735 15.8438ZM8.65479 15.9066L8.71762 15.9694L8.65479 15.9066Z" fill="#F0CDCA"/>
<path d="M10.665 15.9062L10.7279 15.9691L10.665 15.9062Z" fill="#F19990"/>
<path d="M10.728 15.9062L10.7909 15.9691L10.728 15.9062ZM16.5086 15.9062L16.5715 15.9691L16.5086 15.9062Z" fill="#F0CDCA"/>
<path d="M16.5713 15.9062L16.6341 15.9691L16.5713 15.9062ZM19.1474 15.9062L19.2103 15.9691L19.1474 15.9062Z" fill="#F19990"/>
<path d="M8.46631 15.9688L8.52914 16.0316L8.46631 15.9688Z" fill="#F0CDCA"/>
<path d="M8.5293 15.9688L8.59213 16.0316L8.5293 15.9688ZM10.5399 15.9688L10.6028 16.0316L10.5399 15.9688Z" fill="#F19990"/>
<path d="M10.6025 15.9688L10.6654 16.0316L10.6025 15.9688ZM16.6345 15.9688L16.6973 16.0316L16.6345 15.9688Z" fill="#F0CDCA"/>
<path d="M16.6968 15.9688L16.7596 16.0316L16.6968 15.9688Z" fill="#F19990"/>
<path d="M19.0857 15.9688L19.1485 16.0316L19.0857 15.9688ZM8.34131 16.0316L8.40414 16.0944L8.34131 16.0316Z" fill="#F0CDCA"/>
<path d="M8.40332 16.0312L8.46615 16.0941L8.40332 16.0312ZM10.3511 16.0312L10.414 16.0941L10.3511 16.0312Z" fill="#F19990"/>
<path d="M10.4146 16.0312L10.4774 16.0941L10.4146 16.0312ZM16.7606 16.0312L16.8235 16.0941L16.7606 16.0312Z" fill="#F0CDCA"/>
<path d="M16.8237 16.0312L16.8866 16.0941L16.8237 16.0312Z" fill="#F19990"/>
<path d="M18.9587 16.0312L19.0216 16.0941L18.9587 16.0312ZM8.21436 16.0941L8.27719 16.1569L8.21436 16.0941Z" fill="#F0CDCA"/>
<path d="M8.27734 16.0938L8.34018 16.1566L8.27734 16.0938ZM10.1623 16.0938L10.2252 16.1566L10.1623 16.0938Z" fill="#F19990"/>
<path d="M10.2266 16.0938L10.2894 16.1566L10.2266 16.0938Z" fill="#F0CDCA"/>
<path d="M16.9487 16.0938L17.0116 16.1566L16.9487 16.0938ZM18.7709 16.0938L18.8337 16.1566L18.7709 16.0938Z" fill="#F19990"/>
<path d="M18.8332 16.0938L18.8961 16.1566L18.8332 16.0938ZM8.08887 16.1566L8.1517 16.2194L8.08887 16.1566Z" fill="#F0CDCA"/>
<path d="M8.15234 16.1562L8.21518 16.2191L8.15234 16.1562ZM10.0373 16.1562L10.1002 16.2191L10.0373 16.1562Z" fill="#F19990"/>
<path d="M10.1011 16.1562L10.1639 16.2191L10.1011 16.1562ZM17.0755 16.1562L17.1383 16.2191L17.0755 16.1562Z" fill="#F0CDCA"/>
<path d="M17.1372 16.1562L17.2 16.2191L17.1372 16.1562ZM18.6452 16.1562L18.708 16.2191L18.6452 16.1562Z" fill="#F19990"/>
<path d="M18.7082 16.1562L18.7711 16.2191L18.7082 16.1562ZM7.96387 16.2191L8.0267 16.2819L7.96387 16.2191Z" fill="#F0CDCA"/>
<path d="M8.02637 16.2188L8.0892 16.2816L8.02637 16.2188ZM9.84851 16.2188L9.91135 16.2816L9.84851 16.2188Z" fill="#F19990"/>
<path d="M9.91211 16.2188L9.97494 16.2816L9.91211 16.2188ZM17.3264 16.2188L17.3892 16.2816L17.3264 16.2188Z" fill="#F0CDCA"/>
<path d="M17.4307 16.2383L17.4725 16.2593L17.4307 16.2383ZM18.3732 16.2383L18.415 16.2593L18.3732 16.2383Z" fill="#F19990"/>
<path d="M18.4985 16.2383L18.5404 16.2593L18.4985 16.2383ZM7.83789 16.2802L7.90072 16.343L7.83789 16.2802Z" fill="#F0CDCA"/>
<path d="M7.90088 16.2812L7.96371 16.3441L7.90088 16.2812ZM9.78586 16.2812L9.84869 16.3441L9.78586 16.2812Z" fill="#F19990"/>
<path d="M17.6401 16.2812V16.3441H18.2056L17.6401 16.2812ZM7.71258 16.3441L7.77541 16.4069L7.71258 16.3441ZM9.78606 16.3441L9.84889 16.4069L9.78606 16.3441ZM7.58691 16.4069L7.64975 16.4697L7.58691 16.4069Z" fill="#F0CDCA"/>
<path d="M7.64893 16.4062L7.71176 16.4691L7.64893 16.4062ZM9.7224 16.4062L9.78523 16.4691L9.7224 16.4062Z" fill="#F19990"/>
<path d="M7.46094 16.4688L7.52377 16.5316L7.46094 16.4688Z" fill="#F0CDCA"/>
<path d="M7.52393 16.4688L7.58676 16.5316L7.52393 16.4688Z" fill="#F19990"/>
<path d="M9.72358 16.4688L9.78641 16.5316L9.72358 16.4688ZM7.33594 16.5316L7.39877 16.5944L7.33594 16.5316Z" fill="#F0CDCA"/>
<path d="M7.39844 16.5312L7.46127 16.5941L7.39844 16.5312Z" fill="#F19990"/>
<path d="M7.21045 16.5977L7.27328 16.6605L7.21045 16.5977Z" fill="#F0CDCA"/>
<path d="M7.27344 16.5977L7.33627 16.6605L7.27344 16.5977Z" fill="#F19990"/>
<path d="M9.66159 16.5977L9.72442 16.6605L9.66159 16.5977ZM7.08545 16.6605L7.14828 16.7233L7.08545 16.6605Z" fill="#F0CDCA"/>
<path d="M7.14861 16.6602L7.21145 16.723L7.14861 16.6602ZM7.02295 16.723L7.08578 16.7858L7.02295 16.723Z" fill="#F19990"/>
<path d="M8.71826 16.7227L8.78109 16.7855L8.71826 16.7227Z" fill="#F0CDCA"/>
<path d="M8.78076 16.7227L8.84359 16.7855L8.78076 16.7227ZM9.59759 16.7227L9.66042 16.7855L9.59759 16.7227Z" fill="#F19990"/>
<path d="M6.89648 16.7852L6.95932 16.848L6.89648 16.7852Z" fill="#F0CDCA"/>
<path d="M8.5293 16.7852L8.59213 16.848L8.5293 16.7852Z" fill="#F19990"/>
<path d="M8.5918 16.7852L8.65463 16.848L8.5918 16.7852Z" fill="#F0CDCA"/>
<path d="M8.78004 16.7852C7.66501 17.1064 6.38599 17.9119 5.57652 18.7332C5.22579 19.089 4.76485 19.6782 5.16302 20.1715C5.62333 20.7419 6.3858 20.464 6.82657 20.0415C7.70918 19.1956 8.31564 17.9006 8.78004 16.7852Z" fill="#486B6B"/>
<path d="M9.59846 16.7852L9.6613 16.848L9.59846 16.7852ZM6.771 16.848L6.83383 16.9108L6.771 16.848Z" fill="#F0CDCA"/>
<path d="M8.40332 16.8477L8.46615 16.9105L8.40332 16.8477Z" fill="#F19990"/>
<path d="M8.46631 16.8477L8.52914 16.9105L8.46631 16.8477Z" fill="#F0CDCA"/>
<path d="M8.71826 16.8477L8.78109 16.9105L8.71826 16.8477ZM9.53509 16.8477L9.59792 16.9105L9.53509 16.8477Z" fill="#F19990"/>
<path d="M6.64551 16.9102L6.70834 16.973L6.64551 16.9102Z" fill="#F0CDCA"/>
<path d="M6.70801 16.9102L6.77084 16.973L6.70801 16.9102ZM8.27882 16.9102L8.34166 16.973L8.27882 16.9102Z" fill="#F19990"/>
<path d="M8.34131 16.9102L8.40414 16.973L8.34131 16.9102ZM9.53513 16.9102L9.59796 16.973L9.53513 16.9102Z" fill="#F0CDCA"/>
<path d="M6.58252 16.9727L6.64535 17.0355L6.58252 16.9727ZM8.15334 16.9727L8.21617 17.0355L8.15334 16.9727Z" fill="#F19990"/>
<path d="M8.21586 16.9727L8.27869 17.0355L8.21586 16.9727ZM8.65569 16.9727L8.71852 17.0355L8.65569 16.9727ZM6.45654 17.0355L6.51938 17.0983L6.45654 17.0355Z" fill="#F0CDCA"/>
<path d="M8.02637 17.0352L8.0892 17.098L8.02637 17.0352Z" fill="#F19990"/>
<path d="M8.08887 17.0352L8.1517 17.098L8.08887 17.0352ZM9.47118 17.0352L9.53402 17.098L9.47118 17.0352Z" fill="#F0CDCA"/>
<path d="M6.39355 17.0977L6.45639 17.1605L6.39355 17.0977ZM7.90154 17.0977L7.96437 17.1605L7.90154 17.0977Z" fill="#F19990"/>
<path d="M7.96455 17.0977L8.02738 17.1605L7.96455 17.0977ZM8.59287 17.0977L8.65571 17.1605L8.59287 17.0977ZM6.26807 17.1605L6.3309 17.2233L6.26807 17.1605Z" fill="#F0CDCA"/>
<path d="M7.77588 17.1602L7.83871 17.223L7.77588 17.1602Z" fill="#F19990"/>
<path d="M7.83789 17.1602L7.90072 17.223L7.83789 17.1602Z" fill="#F0CDCA"/>
<path d="M8.5918 17.1602L8.65463 17.223L8.5918 17.1602ZM9.40862 17.1602L9.47145 17.223L9.40862 17.1602Z" fill="#F19990"/>
<path d="M6.1416 17.2227L6.20443 17.2855L6.1416 17.2227Z" fill="#F0CDCA"/>
<path d="M6.20508 17.2227L6.26791 17.2855L6.20508 17.2227ZM7.65023 17.2227L7.71306 17.2855L7.65023 17.2227Z" fill="#F19990"/>
<path d="M7.71373 17.2227L7.77656 17.2855L7.71373 17.2227ZM8.53055 17.2227L8.59338 17.2855L8.53055 17.2227ZM6.08008 17.2855L6.14291 17.3483L6.08008 17.2855Z" fill="#F0CDCA"/>
<path d="M7.52393 17.2852L7.58676 17.348L7.52393 17.2852Z" fill="#F19990"/>
<path d="M7.58691 17.2852L7.64975 17.348L7.58691 17.2852Z" fill="#F0CDCA"/>
<path d="M8.52942 17.2852L8.59225 17.348L8.52942 17.2852ZM9.34624 17.2852L9.40908 17.348L9.34624 17.2852ZM6.01611 17.348L6.07895 17.4108L6.01611 17.348Z" fill="#F19990"/>
<path d="M7.46095 17.3477L7.52379 17.4105L7.46095 17.3477ZM8.46627 17.3477L8.52911 17.4105L8.46627 17.3477ZM9.34593 17.3477L9.40876 17.4105L9.34593 17.3477ZM5.89014 17.4105L5.95297 17.4733L5.89014 17.4105ZM7.33529 17.4105L7.39812 17.4733L7.33529 17.4105Z" fill="#F0CDCA"/>
<path d="M8.46661 17.4141L8.52944 17.4769L8.46661 17.4141ZM9.28343 17.4141L9.34626 17.4769L9.28343 17.4141ZM5.82764 17.4769L5.89047 17.5397L5.82764 17.4769ZM7.20995 17.4769L7.27279 17.5397L7.20995 17.4769Z" fill="#F19990"/>
<path d="M8.40298 17.4766L8.46581 17.5394L8.40298 17.4766ZM9.28263 17.4766L9.34546 17.5394L9.28263 17.4766ZM5.70117 17.5394L5.764 17.6022L5.70117 17.5394Z" fill="#F0CDCA"/>
<path d="M7.08545 17.5391L7.14828 17.6019L7.08545 17.5391Z" fill="#F19990"/>
<path d="M7.14844 17.5391L7.21127 17.6019L7.14844 17.5391Z" fill="#F0CDCA"/>
<path d="M8.40332 17.5391L8.46615 17.6019L8.40332 17.5391ZM9.22014 17.5391L9.28298 17.6019L9.22014 17.5391Z" fill="#F19990"/>
<path d="M5.63965 17.6016L5.70248 17.6644L5.63965 17.6016ZM7.02197 17.6016L7.0848 17.6644L7.02197 17.6016ZM8.34145 17.6016L8.40428 17.6644L8.34145 17.6016ZM9.22111 17.6016L9.28394 17.6644L9.22111 17.6016Z" fill="#F0CDCA"/>
<path d="M5.57568 17.6641L5.63852 17.7269L5.57568 17.6641ZM6.89517 17.6641L6.958 17.7269L6.89517 17.6641ZM8.34032 17.6641L8.40315 17.7269L8.34032 17.6641ZM9.15714 17.6641L9.21998 17.7269L9.15714 17.6641Z" fill="#F19990"/>
<path d="M5.45068 17.7266L5.51352 17.7894L5.45068 17.7266Z" fill="#F0CDCA"/>
<path d="M6.771 17.7266L6.83383 17.7894L6.771 17.7266Z" fill="#F19990"/>
<path d="M6.83236 17.7266L6.89519 17.7894L6.83236 17.7266ZM8.27751 17.7266L8.34034 17.7894L8.27751 17.7266ZM9.15716 17.7266L9.22 17.7894L9.15716 17.7266ZM5.38721 17.7894L5.45004 17.8522L5.38721 17.7894Z" fill="#F0CDCA"/>
<path d="M6.70801 17.7891L6.77084 17.8519L6.70801 17.7891ZM8.27882 17.7891L8.34166 17.8519L8.27882 17.7891Z" fill="#F19990"/>
<path d="M5.3252 17.8516L5.38803 17.9144L5.3252 17.8516Z" fill="#F0CDCA"/>
<path d="M6.58252 17.8516L6.64535 17.9144L6.58252 17.8516Z" fill="#F19990"/>
<path d="M6.64551 17.8516L6.70834 17.9144L6.64551 17.8516ZM8.21632 17.8516L8.27916 17.9144L8.21632 17.8516ZM9.09598 17.8516L9.15881 17.9144L9.09598 17.8516Z" fill="#F0CDCA"/>
<path d="M5.26221 17.9141L5.32504 17.9769L5.26221 17.9141Z" fill="#F19990"/>
<path d="M6.51904 17.9141L6.58188 17.9769L6.51904 17.9141Z" fill="#F0CDCA"/>
<path d="M8.21421 17.9141L8.27704 17.9769L8.21421 17.9141ZM5.19824 17.9769L5.26107 18.0397L5.19824 17.9769ZM6.39206 17.9769L6.45489 18.0397L6.39206 17.9769Z" fill="#F19990"/>
<path d="M6.45654 17.9766L6.51938 18.0394L6.45654 17.9766ZM8.15302 17.9766L8.21586 18.0394L8.15302 17.9766ZM9.03268 17.9766L9.09551 18.0394L9.03268 17.9766Z" fill="#F0CDCA"/>
<path d="M5.13607 18.0391L5.19891 18.1019L5.13607 18.0391ZM6.32989 18.0391L6.39273 18.1019L6.32989 18.0391ZM8.15204 18.0391L8.21487 18.1019L8.15204 18.0391ZM5.07324 18.1019L5.13607 18.1647L5.07324 18.1019Z" fill="#F19990"/>
<path d="M6.26807 18.1016L6.3309 18.1644L6.26807 18.1016ZM8.09021 18.1016L8.15305 18.1644L8.09021 18.1016ZM8.96987 18.1016L9.0327 18.1644L8.96987 18.1016Z" fill="#F0CDCA"/>
<path d="M5.01059 18.1641L5.07342 18.2269L5.01059 18.1641ZM6.14157 18.1641L6.20441 18.2269L6.14157 18.1641ZM8.08939 18.1641L8.15222 18.2269L8.08939 18.1641ZM4.94775 18.2269L5.01059 18.2897L4.94775 18.2269ZM6.07874 18.2269L6.14157 18.2897L6.07874 18.2269Z" fill="#F19990"/>
<path d="M8.02637 18.2266L8.0892 18.2894L8.02637 18.2266ZM8.90602 18.2266L8.96886 18.2894L8.90602 18.2266Z" fill="#F0CDCA"/>
<path d="M4.88477 18.2891L4.9476 18.3519L4.88477 18.2891Z" fill="#F19990"/>
<path d="M6.01611 18.2891L6.07895 18.3519L6.01611 18.2891Z" fill="#F0CDCA"/>
<path d="M8.84307 18.2891L8.9059 18.3519L8.84307 18.2891ZM4.82178 18.3519L4.88461 18.4147L4.82178 18.3519ZM5.88993 18.3519L5.95276 18.4147L5.88993 18.3519Z" fill="#F19990"/>
<path d="M7.96387 18.3516L8.0267 18.4144L7.96387 18.3516ZM8.84352 18.3516L8.90636 18.4144L8.84352 18.3516Z" fill="#F0CDCA"/>
<path d="M4.75961 18.4141L4.82244 18.4769L4.75961 18.4141ZM5.82776 18.4141L5.8906 18.4769L5.82776 18.4141ZM8.7809 18.4141L8.84373 18.4769L8.7809 18.4141ZM4.69678 18.4769L4.75961 18.5397L4.69678 18.4769ZM5.76493 18.4769L5.82776 18.5397L5.76493 18.4769ZM7.90124 18.4769L7.96407 18.5397L7.90124 18.4769Z" fill="#F19990"/>
<path d="M8.78025 18.4805L8.84309 18.5433L8.78025 18.4805ZM4.6333 18.5433L4.69613 18.6061L4.6333 18.5433ZM5.70146 18.5433L5.76429 18.6061L5.70146 18.5433Z" fill="#F0CDCA"/>
<path d="M8.71826 18.543L8.78109 18.6058L8.71826 18.543Z" fill="#F19990"/>
<path d="M4.57031 18.6055L4.63315 18.6683L4.57031 18.6055ZM5.63847 18.6055L5.7013 18.6683L5.63847 18.6055Z" fill="#F0CDCA"/>
<path d="M7.83789 18.6055L7.90072 18.6683L7.83789 18.6055Z" fill="#F19990"/>
<path d="M8.71826 18.6055L8.78109 18.6683L8.71826 18.6055Z" fill="#F0CDCA"/>
<path d="M4.57031 18.668L4.63315 18.7308L4.57031 18.668Z" fill="#F19990"/>
<path d="M5.57568 18.668L5.63852 18.7308L5.57568 18.668ZM7.77483 18.668L7.83766 18.7308L7.77483 18.668Z" fill="#F0CDCA"/>
<path d="M8.65477 18.668L8.7176 18.7308L8.65477 18.668ZM4.50781 18.7308L4.57065 18.7936L4.50781 18.7308Z" fill="#F19990"/>
<path d="M5.51367 18.7305L5.5765 18.7933L5.51367 18.7305Z" fill="#F0CDCA"/>
<path d="M7.77588 18.7305L7.83871 18.7933L7.77588 18.7305Z" fill="#F19990"/>
<path d="M4.44531 18.793L4.50815 18.8558L4.44531 18.793ZM5.45063 18.793L5.51347 18.8558L5.45063 18.793ZM7.71261 18.793L7.77544 18.8558L7.71261 18.793ZM8.59227 18.793L8.6551 18.8558L8.59227 18.793Z" fill="#F0CDCA"/>
<path d="M4.44531 18.8555L4.50815 18.9183L4.44531 18.8555Z" fill="#F19990"/>
<path d="M5.38813 18.8555L5.45097 18.9183L5.38813 18.8555ZM4.38281 18.9183L4.44565 18.9811L4.38281 18.9183ZM5.3253 18.9183L5.38813 18.9811L5.3253 18.9183Z" fill="#F0CDCA"/>
<path d="M7.64893 18.918L7.71176 18.9808L7.64893 18.918Z" fill="#F19990"/>
<path d="M8.5293 18.918L8.59213 18.9808L8.5293 18.918Z" fill="#F0CDCA"/>
<path d="M5.26221 18.9805L5.32504 19.0433L5.26221 18.9805Z" fill="#F19990"/>
<path d="M7.58691 18.9805L7.64975 19.0433L7.58691 18.9805Z" fill="#F0CDCA"/>
<path d="M8.46631 18.9805L8.52914 19.0433L8.46631 18.9805Z" fill="#F19990"/>
<path d="M4.32031 19.043L4.38315 19.1058L4.32031 19.043Z" fill="#F0CDCA"/>
<path d="M5.19824 19.043L5.26107 19.1058L5.19824 19.043Z" fill="#F19990"/>
<path d="M8.46631 19.043L8.52914 19.1058L8.46631 19.043Z" fill="#F0CDCA"/>
<path d="M4.32031 19.1055L4.38315 19.1683L4.32031 19.1055Z" fill="#F19990"/>
<path d="M5.19824 19.1055L5.26107 19.1683L5.19824 19.1055Z" fill="#F0CDCA"/>
<path d="M7.52393 19.1055L7.58676 19.1683L7.52393 19.1055ZM8.40358 19.1055L8.46642 19.1683L8.40358 19.1055Z" fill="#F19990"/>
<path d="M4.25781 19.168L4.32065 19.2308L4.25781 19.168ZM5.13747 19.168L5.2003 19.2308L5.13747 19.168ZM7.46228 19.168L7.52511 19.2308L7.46228 19.168Z" fill="#F0CDCA"/>
<path d="M4.25781 19.2305L4.32065 19.2933L4.25781 19.2305ZM5.07464 19.2305L5.13747 19.2933L5.07464 19.2305Z" fill="#F19990"/>
<path d="M8.34054 19.2305L8.40337 19.2933L8.34054 19.2305ZM5.07324 19.2933L5.13607 19.3561L5.07324 19.2933Z" fill="#F0CDCA"/>
<path d="M7.39844 19.293L7.46127 19.3558L7.39844 19.293ZM8.27809 19.293L8.34093 19.3558L8.27809 19.293Z" fill="#F19990"/>
<path d="M4.21387 19.4023L4.23485 19.4442L4.21387 19.4023Z" fill="#F0CDCA"/>
<path d="M5.01025 19.3555L5.07309 19.4183L5.01025 19.3555Z" fill="#F19990"/>
<path d="M7.33506 19.3555L7.39789 19.4183L7.33506 19.3555ZM5.01025 19.4183L5.07309 19.4811L5.01025 19.4183ZM7.27223 19.4183L7.33506 19.4811L7.27223 19.4183ZM8.21472 19.4183L8.27755 19.4811L8.21472 19.4183Z" fill="#F0CDCA"/>
<path d="M4.21387 19.5224L4.23485 19.5642L4.21387 19.5224ZM7.27174 19.4805L7.33458 19.5433L7.27174 19.4805ZM8.1514 19.4805L8.21423 19.5433L8.1514 19.4805ZM4.94694 19.5433L5.00977 19.6061L4.94694 19.5433ZM7.20891 19.5433L7.27174 19.6061L7.20891 19.5433Z" fill="#F19990"/>
<path d="M4.94775 19.6133V19.8646H5.01059L4.94775 19.6133ZM7.1469 19.6133L7.20973 19.6761L7.1469 19.6133ZM8.08939 19.6133L8.15222 19.6761L8.08939 19.6133ZM7.08406 19.6761L7.1469 19.7389L7.08406 19.6761Z" fill="#F0CDCA"/>
<path d="M8.02637 19.6758L8.0892 19.7386L8.02637 19.6758Z" fill="#F19990"/>
<path d="M7.02295 19.7383L7.08578 19.8011L7.02295 19.7383ZM7.96544 19.8011L8.02827 19.8639L7.96544 19.8011Z" fill="#F0CDCA"/>
<path d="M4.19482 19.8633V20.0518H4.25766L4.19482 19.8633ZM4.96974 19.9052L4.99073 19.947L4.96974 19.9052ZM6.95946 19.8633L7.02229 19.9261L6.95946 19.8633ZM7.90195 19.8633L7.96478 19.9261L7.90195 19.8633ZM6.89663 19.9261L6.95946 19.9889L6.89663 19.9261ZM7.83912 19.9261L7.90195 19.9889L7.83912 19.9261Z" fill="#F19990"/>
<path d="M5.01025 19.9883L5.07309 20.0511L5.01025 19.9883Z" fill="#F0CDCA"/>
<path d="M6.83398 19.9883L6.89682 20.0511L6.83398 19.9883Z" fill="#F19990"/>
<path d="M4.19482 20.0508L4.25766 20.1136L4.19482 20.0508Z" fill="#F0CDCA"/>
<path d="M6.771 20.0508L6.83383 20.1136L6.771 20.0508Z" fill="#F19990"/>
<path d="M7.77588 20.0508L7.83871 20.1136L7.77588 20.0508Z" fill="#F0CDCA"/>
<path d="M5.07324 20.1133L5.13607 20.1761L5.07324 20.1133ZM6.70689 20.1133L6.76972 20.1761L6.70689 20.1133Z" fill="#F19990"/>
<path d="M7.71289 20.1133L7.77572 20.1761L7.71289 20.1133Z" fill="#F0CDCA"/>
<path d="M4.25781 20.1758L4.32065 20.2386L4.25781 20.1758ZM5.13747 20.1758L5.2003 20.2386L5.13747 20.1758Z" fill="#F19990"/>
<path d="M6.58252 20.1758L6.64535 20.2386L6.58252 20.1758Z" fill="#F0CDCA"/>
<path d="M7.64893 20.1758L7.71176 20.2386L7.64893 20.1758Z" fill="#F19990"/>
<path d="M4.25781 20.2383L4.32065 20.3011L4.25781 20.2383Z" fill="#F0CDCA"/>
<path d="M5.19824 20.2383L5.26107 20.3011L5.19824 20.2383Z" fill="#F19990"/>
<path d="M6.51904 20.2383L6.58188 20.3011L6.51904 20.2383Z" fill="#F0CDCA"/>
<path d="M7.58761 20.2383L7.65044 20.3011L7.58761 20.2383ZM4.32031 20.3011L4.38315 20.3639L4.32031 20.3011ZM5.2628 20.3011L5.32563 20.3639L5.2628 20.3011ZM6.45662 20.3011L6.51945 20.3639L6.45662 20.3011ZM7.52478 20.3011L7.58761 20.3639L7.52478 20.3011Z" fill="#F19990"/>
<path d="M4.32031 20.3633L4.38315 20.4261L4.32031 20.3633ZM5.38847 20.3633L5.4513 20.4261L5.38847 20.3633ZM6.33096 20.3633L6.39379 20.4261L6.33096 20.3633Z" fill="#F0CDCA"/>
<path d="M7.46161 20.3633L7.52444 20.4261L7.46161 20.3633ZM4.38281 20.4261L4.44565 20.4889L4.38281 20.4261ZM5.45097 20.4261L5.5138 20.4889L5.45097 20.4261Z" fill="#F19990"/>
<path d="M5.51367 20.4258L5.5765 20.4886L5.51367 20.4258Z" fill="#F0CDCA"/>
<path d="M6.20514 20.4258L6.26797 20.4886L6.20514 20.4258ZM5.63965 20.4886L5.70248 20.5514L5.63965 20.4886Z" fill="#F19990"/>
<path d="M5.70117 20.4883V20.5511H6.07817L5.70117 20.4883Z" fill="#F0CDCA"/>
<path d="M6.08008 20.4883L6.14291 20.5511L6.08008 20.4883Z" fill="#F19990"/>
<path d="M4.44531 20.5508L4.50815 20.6136L4.44531 20.5508ZM4.50815 20.6136L4.57098 20.6764L4.50815 20.6136Z" fill="#F0CDCA"/>
<path d="M4.57031 20.6758L4.63315 20.7386L4.57031 20.6758ZM7.14645 20.6758L7.20928 20.7386L7.14645 20.6758ZM4.63315 20.7386L4.69598 20.8014L4.63315 20.7386ZM7.08362 20.7386L7.14645 20.8014L7.08362 20.7386ZM4.69598 20.8014L4.75881 20.8643L4.69598 20.8014Z" fill="#F19990"/>
<path d="M7.02125 20.8047L7.08408 20.8675L7.02125 20.8047ZM4.75928 20.8675L4.82211 20.9304L4.75928 20.8675ZM6.95842 20.8675L7.02125 20.9304L6.95842 20.8675ZM4.82211 20.9304L4.88494 20.9932L4.82211 20.9304Z" fill="#F0CDCA"/>
<path d="M6.83273 20.9297L6.89557 20.9925L6.83273 20.9297ZM4.94775 20.9925L5.01059 21.0554L4.94775 20.9925ZM6.70707 20.9925L6.7699 21.0554L6.70707 20.9925Z" fill="#F19990"/>
<path d="M6.76957 20.9922L6.8324 21.055L6.76957 20.9922ZM5.01025 21.055L5.07309 21.1179L5.01025 21.055Z" fill="#F0CDCA"/>
<path d="M5.07324 21.0547L5.13607 21.1175L5.07324 21.0547Z" fill="#F19990"/>
<path d="M6.64421 21.0547L6.70705 21.1175L6.64421 21.0547ZM5.13623 21.1175L5.19906 21.1804L5.13623 21.1175Z" fill="#F0CDCA"/>
<path d="M5.19824 21.1172L5.26107 21.18L5.19824 21.1172Z" fill="#F19990"/>
<path d="M6.51886 21.1172L6.58169 21.18L6.51886 21.1172ZM5.26221 21.18L5.32504 21.2429L5.26221 21.18Z" fill="#F0CDCA"/>
<path d="M5.3252 21.1797L5.38803 21.2425L5.3252 21.1797ZM6.33052 21.1797L6.39335 21.2425L6.33052 21.1797Z" fill="#F19990"/>
<path d="M6.39277 21.1797L6.4556 21.2425L6.39277 21.1797ZM5.49219 21.2634L5.53403 21.2844L5.49219 21.2634Z" fill="#F0CDCA"/>
<path d="M5.61768 21.2695L5.65952 21.2905L5.61768 21.2695ZM6.0575 21.2695L6.09935 21.2905L6.0575 21.2695Z" fill="#F19990"/>
<path d="M6.18355 21.2695L6.2254 21.2905L6.18355 21.2695ZM0.046875 22.6309V22.6938H23.9233L21.787 22.6309H16.9489H0.046875Z" fill="#F0CDCA"/>
<path d="M0.0470924 22.6914V29.226C0.0470924 29.9473 -0.18317 31.1053 0.374639 31.6631C0.766683 32.0552 1.29955 31.9906 1.80641 31.9906H5.0737H18.457H22.0385C22.5767 31.9906 23.1826 32.0874 23.5959 31.6647C24.1594 31.0884 23.9235 29.9033 23.9235 29.1632V22.6914H0.0470924Z" fill="white"/>
<path d="M5.00175 29.7734V24.6044H7.1506C7.44598 24.6044 7.71182 24.6758 7.94812 24.8185C8.18934 24.9613 8.38133 25.1557 8.5241 25.4019C8.66686 25.648 8.73824 25.9237 8.73824 26.2289C8.73824 26.5391 8.66686 26.8197 8.5241 27.0708C8.38133 27.3169 8.18934 27.5138 7.94812 27.6615C7.71182 27.8092 7.44598 27.883 7.1506 27.883H5.96172V29.7734H5.00175ZM5.96172 26.9969H7.08414C7.20722 26.9969 7.31798 26.9625 7.41644 26.8935C7.51982 26.8246 7.60105 26.7335 7.66012 26.6203C7.72412 26.5071 7.75612 26.3791 7.75612 26.2363C7.75612 26.0936 7.72412 25.968 7.66012 25.8597C7.60105 25.7465 7.51982 25.6579 7.41644 25.5939C7.31798 25.525 7.20722 25.4905 7.08414 25.4905H5.96172V26.9969ZM9.754 29.7734V24.6044H11.829C12.2032 24.6044 12.5404 24.6659 12.8407 24.789C13.1459 24.9121 13.4068 25.0893 13.6234 25.3207C13.8449 25.552 14.0123 25.8253 14.1256 26.1403C14.2437 26.4554 14.3028 26.8049 14.3028 27.1889C14.3028 27.5729 14.2437 27.9249 14.1256 28.2449C14.0123 28.5599 13.8474 28.8332 13.6308 29.0645C13.4142 29.291 13.1533 29.4658 12.8481 29.5888C12.5428 29.7119 12.2032 29.7734 11.829 29.7734H9.754ZM10.714 29.0276L10.6401 28.8873H11.7921C12.0333 28.8873 12.2475 28.8479 12.4345 28.7692C12.6265 28.6904 12.789 28.5772 12.9219 28.4295C13.0548 28.2818 13.1557 28.1046 13.2247 27.8978C13.2936 27.6861 13.328 27.4498 13.328 27.1889C13.328 26.928 13.2936 26.6942 13.2247 26.4874C13.1557 26.2757 13.0524 26.096 12.9145 25.9483C12.7816 25.8006 12.6216 25.6874 12.4345 25.6086C12.2475 25.5299 12.0333 25.4905 11.7921 25.4905H10.618L10.714 25.365V29.0276ZM15.3428 29.7734V24.6044H16.3027V29.7734H15.3428ZM15.7858 27.6541V26.7828H18.4516V27.6541H15.7858ZM15.7858 25.4905V24.6044H18.7691V25.4905H15.7858Z" fill="#486B6B"/>
</svg>
