<svg width="40" height="40" viewBox="0 0 40 40" fill="none" xmlns="http://www.w3.org/2000/svg">
<rect width="40" height="40" rx="8" fill="#E3F2F2"/>
<path d="M29.5885 23.4457C29.1935 23.2185 28.6914 23.3543 28.4643 23.7469L26.2851 22.4886C26.5797 21.817 26.7772 21.0936 26.8603 20.3356C26.8768 20.3365 26.8908 20.3447 26.9072 20.3447H28.5532C29.0075 20.3447 29.3762 19.9768 29.3762 19.5217C29.3762 19.0666 29.0075 18.6987 28.5532 18.6987H26.9072C26.8908 18.6987 26.8768 18.707 26.8603 18.7078C26.7772 17.949 26.5789 17.2264 26.2851 16.5549L28.4643 15.2965C28.6174 15.5599 28.8931 15.708 29.1778 15.708C29.3169 15.708 29.4585 15.6726 29.5885 15.5977C29.9819 15.3706 30.1168 14.8669 29.8897 14.4736L29.0667 13.0482C28.8396 12.6548 28.3367 12.5182 27.9425 12.7469C27.5491 12.9741 27.4142 13.4778 27.6413 13.8711L25.4563 15.1328C25.0234 14.546 24.5074 14.0275 23.9231 13.5913L25.1271 11.7421C25.3748 11.361 25.267 10.8508 24.8868 10.6031C24.5066 10.3554 23.9955 10.4624 23.7486 10.8434L22.5035 12.756C21.8245 12.4531 21.0921 12.2482 20.3234 12.1635V9.64596C20.7777 9.64596 21.1464 9.27809 21.1464 8.82298C21.1464 8.36787 20.7777 8 20.3234 8H18.6774C18.2231 8 17.8545 8.36787 17.8545 8.82298C17.8545 9.27809 18.2231 9.64596 18.6774 9.64596V12.1635C17.9088 12.2482 17.1763 12.4531 16.4974 12.7552L15.2522 10.8426C15.0045 10.4615 14.4942 10.3545 14.114 10.6023C13.733 10.85 13.6252 11.3602 13.8729 11.7413L15.0769 13.5905C14.4926 14.0267 13.9766 14.546 13.5437 15.1319L11.3595 13.8711C11.5866 13.4769 11.4517 12.9741 11.0583 12.7469C10.6633 12.5182 10.1604 12.6548 9.93328 13.0482L9.1103 14.4736C8.88315 14.8678 9.01812 15.3706 9.41151 15.5977C9.54154 15.6726 9.68309 15.708 9.82217 15.708C10.1069 15.708 10.3826 15.5599 10.5357 15.2965L12.7149 16.5549C12.4211 17.2264 12.222 17.9498 12.1397 18.7078C12.124 18.707 12.1101 18.6987 12.0936 18.6987H10.4476C9.99335 18.6987 9.62466 19.0666 9.62466 19.5217C9.62466 19.9768 9.99335 20.3447 10.4476 20.3447H12.0936C12.1101 20.3447 12.124 20.3365 12.1405 20.3356C12.2236 21.0944 12.422 21.817 12.7158 22.4886L10.5365 23.7469C10.3086 23.3535 9.80571 23.2177 9.41233 23.4457C9.01895 23.6728 8.88398 24.1765 9.11112 24.5699L9.9341 25.9953C10.0872 26.2586 10.3629 26.4068 10.6476 26.4068C10.7867 26.4068 10.9283 26.3714 11.0583 26.2965C11.4517 26.0693 11.5866 25.5657 11.3595 25.1723L13.5445 23.9107C13.9774 24.4974 14.4934 25.0159 15.0777 25.4521L13.8737 27.3013C13.626 27.6824 13.7338 28.1926 14.114 28.4403C14.2523 28.5309 14.4078 28.5745 14.5617 28.5745C14.8308 28.5745 15.0942 28.4428 15.2522 28.2008L16.4974 26.2882C17.1771 26.5903 17.9088 26.7952 18.6774 26.88V29.3975C18.2231 29.3975 17.8545 29.7653 17.8545 30.2204C17.8545 30.6755 18.2231 31.0434 18.6774 31.0434H20.3234C20.7777 31.0434 21.1464 30.6755 21.1464 30.2204C21.1464 29.7653 20.7777 29.3975 20.3234 29.3975V26.88C21.0921 26.7952 21.8245 26.5903 22.5035 26.2882L23.7486 28.2008C23.9066 28.4428 24.17 28.5745 24.4391 28.5745C24.593 28.5745 24.7486 28.5309 24.8868 28.4412C25.2679 28.1934 25.3757 27.6832 25.1271 27.3022L23.9231 25.4529C24.5074 25.0167 25.0234 24.4974 25.4563 23.9115L27.6413 25.1731C27.4142 25.5673 27.5491 26.0702 27.9425 26.2973C28.0726 26.3722 28.2141 26.4076 28.3532 26.4076C28.638 26.4076 28.9145 26.2594 29.0667 25.9961L29.8897 24.5707C30.1168 24.1757 29.9819 23.6728 29.5885 23.4457ZM16.2085 22.8136C15.2991 22.8136 14.5625 22.0771 14.5625 21.1677C14.5625 20.2583 15.2991 19.5217 16.2085 19.5217C17.1179 19.5217 17.8545 20.2583 17.8545 21.1677C17.8545 22.0771 17.1179 22.8136 16.2085 22.8136ZM19.9119 17.0528C19.2305 17.0528 18.6774 16.4997 18.6774 15.8183C18.6774 15.1369 19.2305 14.5838 19.9119 14.5838C20.5933 14.5838 21.1464 15.1369 21.1464 15.8183C21.1464 16.4997 20.5933 17.0528 19.9119 17.0528ZM21.1464 22.4021C21.1464 21.7207 21.6994 21.1677 22.3808 21.1677C23.0623 21.1677 23.6153 21.7207 23.6153 22.4021C23.6153 23.0836 23.0623 23.6366 22.3808 23.6366C21.6994 23.6366 21.1464 23.0836 21.1464 22.4021Z" fill="#1F8BA3"/>
</svg>
