<svg width="15" height="15" viewBox="0 0 15 15" fill="none" xmlns="http://www.w3.org/2000/svg">
<path d="M1.39101 7.95051C1.2719 7.94887 1.15821 7.90088 1.07406 7.81674C0.989921 7.7326 0.941941 7.61891 0.9403 7.49979C0.942212 7.38067 0.990452 7.26687 1.07479 7.18254C1.15912 7.0982 1.27292 7.04996 1.39204 7.04805L6.81713 7.046L6.82436 1.61574C6.83354 1.50258 6.88519 1.397 6.96894 1.3202C7.0527 1.2434 7.16234 1.20108 7.27584 1.20174C7.38934 1.20239 7.49829 1.24598 7.58079 1.32374C7.6633 1.4015 7.71324 1.50768 7.7206 1.62092L7.71649 7.0398L13.1405 7.04086C13.2495 7.05371 13.35 7.10604 13.4229 7.18797C13.4958 7.2699 13.5361 7.37576 13.5363 7.48555C13.5364 7.59534 13.4963 7.70148 13.4236 7.78391C13.3509 7.86634 13.2506 7.91936 13.1416 7.93297L7.71546 7.94433L7.70928 13.3653C7.70736 13.4844 7.65912 13.5982 7.57479 13.6825C7.49045 13.7669 7.37666 13.8151 7.25753 13.817C7.13842 13.8154 7.02473 13.7674 6.94058 13.6833C6.85644 13.5991 6.80846 13.4854 6.80682 13.3663L6.81197 7.94433L1.39101 7.95051Z" fill="#1C2525" stroke="#1C2525" stroke-width="1.2"/>
</svg>
