<svg width="399" height="187" viewBox="0 0 399 187" fill="none" xmlns="http://www.w3.org/2000/svg">
<g clip-path="url(#clip0_1755_3029)">
<rect width="399" height="187" fill="white"/>
<g filter="url(#filter0_d_1755_3029)">
<rect width="399" height="187" fill="white"/>
</g>
<mask id="mask0_1755_3029" style="mask-type:alpha" maskUnits="userSpaceOnUse" x="0" y="0" width="399" height="187">
<rect width="399" height="187" fill="white"/>
</mask>
<g mask="url(#mask0_1755_3029)">
<g opacity="0.07">
<path d="M289.681 120.289C275.822 112.287 264.647 100.356 257.569 86.0038C250.491 71.6515 247.829 55.5226 249.917 39.6569C252.006 23.7911 258.753 8.90105 269.304 -3.1304C279.855 -15.1619 293.737 -23.7943 309.195 -27.9361C324.652 -32.0779 340.99 -31.5431 356.144 -26.3992C371.297 -21.2554 384.585 -11.7335 394.327 0.962253C404.069 13.658 409.827 28.9574 410.874 44.9258C411.92 60.8942 408.208 76.8144 400.207 90.6731C389.46 109.238 371.788 122.783 351.067 128.335C330.347 133.887 308.27 130.993 289.681 120.289ZM368.791 -16.7349C355.549 -24.3802 340.338 -27.9271 325.08 -26.9271C309.822 -25.9271 295.203 -20.425 283.072 -11.1167C270.942 -1.80843 261.843 10.888 256.928 25.3671C252.013 39.8462 251.502 55.4576 255.46 70.2272C259.417 84.9967 267.666 98.261 279.162 108.343C290.658 118.425 304.885 124.871 320.045 126.867C335.205 128.863 350.616 126.318 364.33 119.555C378.043 112.792 389.443 102.115 397.089 88.8728C407.317 71.1105 410.082 50.0162 404.777 30.2177C399.472 10.4193 386.53 -6.46644 368.791 -16.7349Z" fill="#1FA4A5"/>
<path d="M280.438 128.175C279.397 127.513 278.373 126.833 277.367 126.135L279.42 123.177C280.387 123.848 281.37 124.502 282.37 125.138L280.438 128.175ZM291.758 134.331L293.258 131.058C294.333 131.551 295.416 132.021 296.506 132.468L295.139 135.799C294.006 135.334 292.879 134.845 291.758 134.331ZM267.314 118.071C266.409 117.235 265.524 116.383 264.656 115.514L267.205 112.97C268.037 113.804 268.888 114.623 269.758 115.426L267.314 118.071ZM307.38 139.847L308.266 136.357C309.413 136.648 310.563 136.916 311.716 137.16L310.969 140.684C309.77 140.429 308.573 140.15 307.38 139.847ZM256.206 105.766C255.467 104.779 254.747 103.78 254.048 102.767L257.011 100.722C257.683 101.696 258.375 102.656 259.087 103.604L256.206 105.766ZM323.736 142.465L323.987 138.873C325.164 138.955 326.34 139.013 327.515 139.045L327.414 142.645C326.188 142.609 324.962 142.549 323.736 142.465ZM247.488 91.6658C246.937 90.5658 246.409 89.4553 245.903 88.3343L249.183 86.8511C249.669 87.9289 250.178 88.9965 250.708 90.054L247.488 91.6658ZM340.284 142.112L339.89 138.533C341.062 138.404 342.232 138.25 343.398 138.072L343.936 141.633C342.722 141.816 341.505 141.976 340.284 142.112ZM241.427 76.2466C241.081 75.067 240.758 73.8814 240.46 72.6897L243.953 71.8141C244.24 72.96 244.549 74.0996 244.882 75.233L241.427 76.2466ZM356.513 138.822L355.489 135.371C356.621 135.034 357.746 134.675 358.864 134.294L360.026 137.701C358.864 138.098 357.693 138.471 356.513 138.822ZM238.201 60.0016C238.071 58.7823 237.964 57.56 237.88 56.3346L241.472 56.0904C241.553 57.2695 241.656 58.4453 241.781 59.6177L238.201 60.0016ZM371.911 132.7L370.287 129.486C371.342 128.954 372.386 128.4 373.421 127.824L375.169 130.971C374.093 131.569 373.007 132.145 371.911 132.7ZM237.916 43.4503C238.004 42.2276 238.117 41.0062 238.255 39.786L241.832 40.1928C241.699 41.3632 241.592 42.5368 241.506 43.7083L237.916 43.4503ZM385.972 123.927L383.802 121.054C384.743 120.341 385.671 119.609 386.587 118.855L388.874 121.638C387.92 122.422 386.953 123.184 385.972 123.927ZM240.598 27.1102C240.905 25.9242 241.236 24.7408 241.592 23.56L245.039 24.6003C244.697 25.7338 244.379 26.8707 244.085 28.011L240.598 27.1102ZM398.237 112.763L395.588 110.326C396.384 109.461 397.163 108.576 397.927 107.671L400.677 109.996C399.88 110.937 399.066 111.86 398.237 112.763ZM246.175 11.5142C246.689 10.403 247.227 9.29819 247.789 8.19973L250.995 9.83993C250.455 10.8944 249.938 11.9557 249.445 13.024L246.175 11.5142ZM408.29 99.5983L405.246 97.6765C405.873 96.6816 406.483 95.6704 407.076 94.6429L407.26 94.3225L410.378 96.1228L410.207 96.4212C409.577 97.512 408.944 98.5641 408.29 99.5983ZM257.377 -0.78107L254.428 -2.84693C255.134 -3.85597 255.858 -4.84779 256.599 -5.82239L259.466 -3.64336C258.754 -2.70613 258.058 -1.75203 257.377 -0.78107ZM412.653 83.1772C413.093 82.078 413.51 80.9736 413.904 79.864L417.297 81.0679C416.887 82.2217 416.454 83.3709 415.997 84.5154L412.653 83.1772ZM267.634 -12.9561L265.1 -15.5151C265.976 -16.3817 266.867 -17.2285 267.772 -18.0556L270.199 -15.3957C269.329 -14.6021 268.474 -13.7889 267.634 -12.9561ZM417.224 67.932C417.459 66.7725 417.671 65.6109 417.86 64.4472L421.413 65.0227C421.217 66.2333 420.997 67.4421 420.752 68.6494L417.224 67.932ZM279.915 -23.0954L277.879 -26.0672C278.898 -26.7639 279.929 -27.4387 280.972 -28.0916L282.88 -25.0378C281.879 -24.4125 280.891 -23.7651 279.915 -23.0954ZM418.975 52.1181C418.999 50.938 418.999 49.7592 418.977 48.5818L422.577 48.5129C422.601 49.7374 422.6 50.9639 422.574 52.1924L418.975 52.1181ZM293.815 -30.8699L292.348 -34.159C293.471 -34.6595 294.603 -35.1384 295.743 -35.5958L297.081 -32.2516C295.983 -31.8132 294.895 -31.3526 293.815 -30.8699ZM417.878 36.2491C417.689 35.0807 417.479 33.9179 417.248 32.7606L420.778 32.0542C421.019 33.2556 421.237 34.4624 421.433 35.6748L417.878 36.2491ZM308.877 -36.0449L308.016 -39.5401C309.209 -39.834 310.407 -40.1044 311.611 -40.3513L312.331 -36.8238C311.173 -36.5877 310.022 -36.328 308.877 -36.0449ZM413.973 20.8109C413.583 19.6966 413.171 18.5897 412.736 17.49L416.082 16.166C416.535 17.3085 416.965 18.46 417.372 19.6207L413.973 20.8109ZM324.612 -38.4636L324.384 -42.0562C325.606 -42.1343 326.833 -42.1875 328.063 -42.2158L328.145 -38.6163C326.964 -38.5893 325.786 -38.5384 324.612 -38.4636ZM407.388 6.30989C406.807 5.2841 406.203 4.26802 405.577 3.26167L408.635 1.36102C409.286 2.40754 409.914 3.46549 410.52 4.53486L407.388 6.30989ZM340.513 -38.0392L340.93 -41.617C342.145 -41.4738 343.359 -41.307 344.571 -41.1164L344.012 -37.5599C342.847 -37.7433 341.681 -37.9031 340.513 -38.0392ZM398.315 -6.7828C397.557 -7.68821 396.779 -8.58106 395.982 -9.46133L398.649 -11.8799C399.479 -10.9652 400.289 -10.0358 401.077 -9.09175L398.315 -6.7828ZM356.08 -34.7735L357.134 -38.2167C358.305 -37.8582 359.473 -37.4747 360.637 -37.0662L359.443 -33.6688C358.328 -34.0605 357.206 -34.4287 356.08 -34.7735ZM387.038 -18.0307C386.134 -18.7817 385.211 -19.5181 384.27 -20.2398L386.46 -23.0982C387.439 -22.347 388.399 -21.5806 389.339 -20.7989L387.038 -18.0307ZM370.821 -28.7635L372.474 -31.9628C373.56 -31.4015 374.64 -30.8168 375.714 -30.2089L373.938 -27.0768C372.907 -27.6609 371.868 -28.2231 370.821 -28.7635Z" fill="#1FA4A5"/>
<path d="M294.367 87.35L315.963 99.8186L334.767 67.2498L367.337 86.0545L379.806 64.4582L347.235 45.6535L366.04 13.0828L344.444 0.614169L325.639 33.1849L293.07 14.3813L280.602 35.9776L313.17 54.7812L294.367 87.35Z" fill="#1FA4A5"/>
</g>
</g>
</g>
<defs>
<filter id="filter0_d_1755_3029" x="-184" y="-184" width="767" height="555" filterUnits="userSpaceOnUse" color-interpolation-filters="sRGB">
<feFlood flood-opacity="0" result="BackgroundImageFix"/>
<feColorMatrix in="SourceAlpha" type="matrix" values="0 0 0 0 0 0 0 0 0 0 0 0 0 0 0 0 0 0 127 0" result="hardAlpha"/>
<feOffset/>
<feGaussianBlur stdDeviation="92"/>
<feComposite in2="hardAlpha" operator="out"/>
<feColorMatrix type="matrix" values="0 0 0 0 0 0 0 0 0 0 0 0 0 0 0 0 0 0 0.1 0"/>
<feBlend mode="normal" in2="BackgroundImageFix" result="effect1_dropShadow_1755_3029"/>
<feBlend mode="normal" in="SourceGraphic" in2="effect1_dropShadow_1755_3029" result="shape"/>
</filter>
<clipPath id="clip0_1755_3029">
<rect width="399" height="187" fill="white"/>
</clipPath>
</defs>
</svg>
