<svg width="400" height="218" viewBox="0 0 400 218" fill="none" xmlns="http://www.w3.org/2000/svg">
<rect width="400" height="218" fill="#1FA4A5"/>
<mask id="mask0_1730_3006" style="mask-type:alpha" maskUnits="userSpaceOnUse" x="0" y="0" width="400" height="218">
<path d="M0 0H400V218H0V0Z" fill="#1FA4A5"/>
</mask>
<g mask="url(#mask0_1730_3006)">
<g opacity="0.1">
<path d="M412.793 4.90627C412.793 4.90627 406.729 133.117 322.332 161.802C248.664 111.618 277.063 -13.5548 277.063 -13.5548C324.306 -22.1044 369.549 -15.9507 412.793 4.90627Z" fill="white"/>
<path d="M323.717 151.639C268.631 110.221 280.143 18.8166 284.348 -5.50665C324.837 -12.0239 366.349 -6.3773 403.626 10.7178C401.585 30.9036 397.317 50.8018 390.901 70.0491C376.471 112.401 353.882 139.825 323.717 151.639Z" fill="#1FA4A5"/>
<path d="M366.487 54.7026L347.25 52.0862L349.867 32.8495L330.252 30.1809L327.636 49.4176L308.399 46.8013L305.732 66.4158L324.969 69.0321L322.352 88.2689L341.967 90.9363L344.583 71.6996L363.82 74.3159L366.487 54.7026Z" fill="white"/>
</g>
</g>
</svg>
