<svg width="133" height="34" viewBox="0 0 133 34" fill="none" xmlns="http://www.w3.org/2000/svg">
<path d="M19.8199 26.7481C17.9756 26.7481 16.5166 25.2616 16.5166 23.4447V16.9758H10.2403C8.39597 16.9758 6.93701 15.4893 6.93701 13.6725C6.93701 11.8281 8.4235 10.3691 10.2403 10.3691H19.8199C21.6643 10.3691 23.1232 11.8556 23.1232 13.6725V23.4447C23.1232 25.2616 21.6367 26.7481 19.8199 26.7481Z" fill="#2DD7D8"/>
<path d="M3.30331 17.418C5.14766 17.418 6.60662 18.9045 6.60662 20.7213V26.8049H13.2408C15.0851 26.8049 16.5441 28.2914 16.5441 30.1082C16.5441 31.9525 15.0576 33.4115 13.2408 33.4115H3.30331C1.45896 33.4115 0 31.925 0 30.1082V20.7488C0 18.9045 1.48649 17.418 3.30331 17.418Z" fill="#FF5E64"/>
<path d="M93.1764 17.3425C93.1764 15.0997 93.1764 12.7167 93.1764 10.2285C93.9124 10.2285 94.5432 10.2285 95.174 10.2285C96.6458 10.2636 97.5219 11.1046 97.5219 12.5765C97.557 17.1323 97.592 21.688 97.4869 26.2438C97.4168 30.5542 95.0338 32.9723 90.7584 33.4279C90.3378 33.4629 89.9173 33.498 89.4968 33.498C83.8546 33.533 80.8408 30.6243 80.8408 24.9822C80.8408 23.3701 80.981 21.688 81.3665 20.1461C82.3127 16.3613 85.8522 14.2586 89.6019 15.3099C90.8635 15.6954 91.9499 16.6066 93.1764 17.3425ZM85.2915 24.4916C85.4667 25.4027 85.5368 26.2788 85.747 27.1199C86.2376 28.8371 87.4292 29.7482 89.1814 29.7482C90.8985 29.7482 92.1601 28.8721 92.6858 27.225C93.2816 25.3677 93.2816 23.4753 92.7209 21.6179C92.1952 19.9008 91.0037 19.0246 89.2515 19.0246C87.5343 19.0246 86.3428 19.8657 85.8171 21.6179C85.5718 22.5992 85.4667 23.5804 85.2915 24.4916Z" fill="#14226A"/>
<path d="M63.5325 25.5424C59.5374 25.5424 55.7877 25.5424 52.0379 25.5424C51.7576 27.0143 52.3884 28.5913 53.5098 29.2571C54.9466 30.0982 56.3484 29.923 57.6801 29.0118C59.5024 27.7502 60.5887 27.54 63.0769 27.9605C62.4461 30.4837 61.0443 32.341 58.5211 33.1821C56.3834 33.883 54.2457 33.8129 52.1431 33.077C49.6549 32.2009 48.1129 30.3786 47.6924 27.8554C47.342 25.8228 47.2018 23.6851 47.4821 21.6525C48.0779 17.1318 50.9866 14.9591 55.6825 15.0642C60.0631 15.1693 62.6914 17.4822 63.2521 21.8628C63.4273 23.0192 63.4273 24.1757 63.5325 25.5424ZM58.6263 22.3184C58.451 19.9353 57.1894 18.6387 55.262 18.6737C53.3696 18.7088 52.0379 20.1456 52.0029 22.3184C54.2107 22.3184 56.3834 22.3184 58.6263 22.3184Z" fill="#14226A"/>
<path d="M79.7205 33.1403C79.7205 33.1403 79.6855 33.1754 79.6504 33.1754C75.375 33.4908 75.34 32.4745 75.41 29.3555C75.4801 26.9375 75.4451 24.4844 75.41 22.0663C75.41 19.9636 74.3237 18.9123 72.221 18.9474C70.1534 18.9474 69.1722 19.9286 69.1722 22.0313C69.1371 25.2904 69.1722 28.5495 69.1722 31.8437C69.1722 32.2642 69.1722 32.6497 69.1722 33.1403C67.6652 33.1403 66.2985 33.1403 64.7566 33.1403C64.7215 32.8249 64.6865 32.5095 64.6865 32.1941C64.6865 28.935 64.6514 25.6408 64.6865 22.3817C64.6865 21.5056 64.7916 20.6295 65.0019 19.7884C65.7728 16.7746 68.0157 15.1976 71.6953 15.0574C72.7467 15.0224 73.8331 15.0925 74.8493 15.3027C77.5828 15.8635 79.5102 17.7208 79.6504 20.5243C79.8607 24.7297 79.7205 28.8999 79.7205 33.1403Z" fill="#14226A"/>
<path d="M31.0293 33.1807C31.0293 32.6901 31.0293 32.2345 31.0293 31.814C31.0293 25.8214 31.0293 19.7938 31.0293 13.8012C31.0293 10.8575 31.6601 10.2617 34.5688 10.2617C34.8842 10.2617 35.1645 10.2617 35.6201 10.2617C35.6201 16.5347 35.6201 22.7375 35.6201 29.0805C39.4049 29.0805 43.0845 29.0805 46.8693 29.0805C46.8693 30.5173 46.8693 31.814 46.8693 33.1807C41.6127 33.1807 36.3911 33.1807 31.0293 33.1807Z" fill="#14226A"/>
<path d="M104.812 10.2282C106.318 10.3333 108.001 9.66749 108.772 11.2445C109.332 12.401 109.227 13.8728 109.472 15.3447C110.208 15.3447 111.014 15.3447 111.82 15.3447C112.171 17.4824 111.645 18.1482 109.262 18.6388C109.262 19.2346 109.262 19.8654 109.262 20.4962C109.262 22.8792 109.262 25.2973 109.262 27.6803C109.262 29.4676 109.437 29.6428 111.19 29.7129C111.4 29.7129 111.645 29.7479 111.961 29.783C111.961 30.6941 111.996 31.5702 111.926 32.4113C111.89 32.6566 111.505 33.0771 111.26 33.0771C109.788 33.0771 108.281 33.0771 106.809 32.937C105.723 32.8318 105.092 32.0258 104.917 30.9394C104.847 30.4488 104.847 29.9582 104.847 29.4676C104.847 23.51 104.847 17.5174 104.847 11.5599C104.812 11.1744 104.812 10.7889 104.812 10.2282Z" fill="#14226A"/>
<path d="M113.212 10.2567C113.457 10.2216 113.632 10.2216 113.773 10.2216C117.172 10.1515 117.628 10.5721 117.557 13.9714C117.522 15.0577 117.803 15.5133 118.924 15.3731C119.345 15.3031 119.765 15.3731 120.151 15.3731C120.571 17.2305 119.975 18.1066 118.258 18.5271C117.978 18.5972 117.628 19.0178 117.592 19.2981C117.557 22.3119 117.557 25.2907 117.557 28.3045C117.557 29.2507 118.013 29.7063 118.959 29.7063C119.38 29.7063 119.765 29.7063 120.221 29.7063C120.221 30.8628 120.221 31.879 120.221 33.0005C118.328 33.2458 116.436 33.3509 114.649 32.7551C114.088 32.5799 113.632 31.8089 113.317 31.2132C113.107 30.8277 113.142 30.267 113.142 29.7764C113.142 23.5735 113.142 17.4057 113.142 11.2029C113.177 10.8875 113.212 10.6071 113.212 10.2567Z" fill="#14226A"/>
<path d="M98.98 15.4406C99.1902 15.3705 99.2954 15.3354 99.4005 15.3354C102.94 15.1252 103.361 15.5107 103.361 19.0151C103.361 23.2905 103.361 27.601 103.361 31.8764C103.361 32.2969 103.361 32.6824 103.361 33.138C101.819 33.138 100.452 33.138 98.98 33.138C98.98 27.2505 98.98 21.3631 98.98 15.4406Z" fill="#14226A"/>
<path d="M103.223 13.5939C101.787 13.5939 100.455 13.5939 99.0181 13.5939C99.0181 12.5075 99.0181 11.4562 99.0181 10.4048C102.523 9.77405 103.784 10.51 103.223 13.5939Z" fill="#14226A"/>
<circle cx="132.227" cy="12.9732" r="0.51616" fill="#14226A"/>
<circle cx="125.835" cy="6.71008" r="6.3081" stroke="#14226A" stroke-width="0.803955"/>
<path d="M123.315 2.79802H125.784C126.534 2.79802 127.126 2.99611 127.561 3.3923C127.999 3.78848 128.218 4.32372 128.218 4.99799C128.218 5.38275 128.117 5.78274 127.915 6.19798C127.717 6.61321 127.349 6.93892 126.812 7.17511L128.909 10.3008H127.058L125.115 7.39796H124.932V10.3008H123.315V2.79802ZM124.944 4.13515V6.08941H125.292C126.134 6.08941 126.555 5.74465 126.555 5.05513C126.555 4.77323 126.444 4.55038 126.224 4.38657C126.006 4.21896 125.704 4.13515 125.315 4.13515H124.944Z" fill="#14226A"/>
</svg>
