<svg width="767" height="555" viewBox="0 0 767 555" fill="none" xmlns="http://www.w3.org/2000/svg">
<g filter="url(#filter0_d_1730_3022)">
<rect x="184" y="184" width="399" height="187" fill="white"/>
</g>
<mask id="mask0_1730_3022" style="mask-type:alpha" maskUnits="userSpaceOnUse" x="184" y="184" width="399" height="187">
<rect x="184" y="184" width="399" height="187" fill="white"/>
</mask>
<g mask="url(#mask0_1730_3022)">
<g opacity="0.07">
<path d="M473.681 304.289C459.822 296.287 448.647 284.356 441.569 270.004C434.491 255.651 431.829 239.523 433.917 223.657C436.006 207.791 442.753 192.901 453.304 180.87C463.855 168.838 477.737 160.206 493.195 156.064C508.652 151.922 524.99 152.457 540.144 157.601C555.297 162.745 568.585 172.267 578.327 184.962C588.069 197.658 593.827 212.957 594.874 228.926C595.92 244.894 592.208 260.814 584.207 274.673C573.46 293.238 555.788 306.783 535.067 312.335C514.347 317.887 492.27 314.993 473.681 304.289ZM552.791 167.265C539.549 159.62 524.338 156.073 509.08 157.073C493.822 158.073 479.203 163.575 467.072 172.883C454.942 182.192 445.843 194.888 440.928 209.367C436.013 223.846 435.502 239.458 439.46 254.227C443.417 268.997 451.666 282.261 463.162 292.343C474.658 302.425 488.885 308.871 504.045 310.867C519.205 312.863 534.616 310.318 548.33 303.555C562.043 296.792 573.443 286.115 581.089 272.873C591.317 255.11 594.082 234.016 588.777 214.218C583.472 194.419 570.53 177.534 552.791 167.265Z" fill="#1FA4A5"/>
<path d="M464.438 312.175C463.397 311.513 462.373 310.833 461.367 310.135L463.42 307.177C464.387 307.848 465.37 308.502 466.37 309.138L464.438 312.175ZM475.758 318.331L477.258 315.058C478.333 315.551 479.416 316.021 480.506 316.468L479.139 319.799C478.006 319.334 476.879 318.845 475.758 318.331ZM451.314 302.071C450.409 301.235 449.524 300.383 448.656 299.514L451.205 296.97C452.037 297.804 452.888 298.623 453.758 299.426L451.314 302.071ZM491.38 323.847L492.266 320.357C493.413 320.648 494.563 320.916 495.716 321.16L494.969 324.684C493.77 324.429 492.573 324.15 491.38 323.847ZM440.206 289.766C439.467 288.779 438.747 287.78 438.048 286.767L441.011 284.722C441.683 285.696 442.375 286.656 443.087 287.604L440.206 289.766ZM507.736 326.465L507.987 322.873C509.164 322.955 510.34 323.013 511.515 323.045L511.414 326.645C510.188 326.609 508.962 326.549 507.736 326.465ZM431.488 275.666C430.937 274.566 430.409 273.455 429.903 272.334L433.183 270.851C433.669 271.929 434.178 272.996 434.708 274.054L431.488 275.666ZM524.284 326.112L523.89 322.533C525.062 322.404 526.232 322.25 527.398 322.072L527.936 325.633C526.722 325.816 525.505 325.976 524.284 326.112ZM425.427 260.247C425.081 259.067 424.758 257.881 424.46 256.69L427.953 255.814C428.24 256.96 428.549 258.1 428.882 259.233L425.427 260.247ZM540.513 322.822L539.489 319.371C540.621 319.034 541.746 318.675 542.864 318.294L544.026 321.701C542.864 322.098 541.693 322.471 540.513 322.822ZM422.201 244.002C422.071 242.782 421.964 241.56 421.88 240.335L425.472 240.09C425.553 241.27 425.656 242.445 425.781 243.618L422.201 244.002ZM555.911 316.7L554.287 313.486C555.342 312.954 556.386 312.4 557.421 311.824L559.169 314.971C558.093 315.569 557.007 316.145 555.911 316.7ZM421.916 227.45C422.004 226.228 422.117 225.006 422.255 223.786L425.832 224.193C425.699 225.363 425.592 226.537 425.506 227.708L421.916 227.45ZM569.972 307.927L567.802 305.054C568.743 304.341 569.671 303.609 570.587 302.855L572.874 305.638C571.92 306.422 570.953 307.184 569.972 307.927ZM424.598 211.11C424.905 209.924 425.236 208.741 425.592 207.56L429.039 208.6C428.697 209.734 428.379 210.871 428.085 212.011L424.598 211.11ZM582.237 296.763L579.588 294.326C580.384 293.461 581.163 292.576 581.927 291.671L584.677 293.996C583.88 294.937 583.066 295.86 582.237 296.763ZM430.175 195.514C430.689 194.403 431.227 193.298 431.789 192.2L434.995 193.84C434.455 194.894 433.938 195.956 433.445 197.024L430.175 195.514ZM592.29 283.598L589.246 281.677C589.873 280.682 590.483 279.67 591.076 278.643L591.26 278.323L594.378 280.123L594.207 280.421C593.577 281.512 592.944 282.564 592.29 283.598ZM441.377 183.219L438.428 181.153C439.134 180.144 439.858 179.152 440.599 178.178L443.466 180.357C442.754 181.294 442.058 182.248 441.377 183.219ZM596.653 267.177C597.093 266.078 597.51 264.974 597.904 263.864L601.297 265.068C600.887 266.222 600.454 267.371 599.997 268.515L596.653 267.177ZM451.634 171.044L449.1 168.485C449.976 167.618 450.867 166.772 451.772 165.944L454.199 168.604C453.329 169.398 452.474 170.211 451.634 171.044ZM601.224 251.932C601.459 250.773 601.671 249.611 601.86 248.447L605.413 249.023C605.217 250.233 604.997 251.442 604.752 252.649L601.224 251.932ZM463.915 160.905L461.879 157.933C462.898 157.236 463.929 156.561 464.972 155.908L466.88 158.962C465.879 159.587 464.891 160.235 463.915 160.905ZM602.975 236.118C602.999 234.938 602.999 233.759 602.977 232.582L606.577 232.513C606.601 233.737 606.6 234.964 606.574 236.192L602.975 236.118ZM477.815 153.13L476.348 149.841C477.471 149.34 478.603 148.862 479.743 148.404L481.081 151.748C479.983 152.187 478.895 152.647 477.815 153.13ZM601.878 220.249C601.689 219.081 601.479 217.918 601.248 216.761L604.778 216.054C605.019 217.256 605.237 218.462 605.433 219.675L601.878 220.249ZM492.877 147.955L492.016 144.46C493.209 144.166 494.407 143.896 495.611 143.649L496.331 147.176C495.173 147.412 494.022 147.672 492.877 147.955ZM597.973 204.811C597.583 203.697 597.171 202.59 596.736 201.49L600.082 200.166C600.535 201.308 600.965 202.46 601.372 203.621L597.973 204.811ZM508.612 145.536L508.384 141.944C509.606 141.866 510.833 141.813 512.063 141.784L512.145 145.384C510.964 145.411 509.786 145.462 508.612 145.536ZM591.388 190.31C590.807 189.284 590.203 188.268 589.577 187.262L592.635 185.361C593.286 186.408 593.914 187.465 594.52 188.535L591.388 190.31ZM524.513 145.961L524.93 142.383C526.145 142.526 527.359 142.693 528.571 142.884L528.012 146.44C526.847 146.257 525.681 146.097 524.513 145.961ZM582.315 177.217C581.557 176.312 580.779 175.419 579.982 174.539L582.649 172.12C583.479 173.035 584.289 173.964 585.077 174.908L582.315 177.217ZM540.08 149.226L541.134 145.783C542.305 146.142 543.473 146.525 544.637 146.934L543.443 150.331C542.328 149.94 541.206 149.571 540.08 149.226ZM571.038 165.969C570.134 165.218 569.211 164.482 568.27 163.76L570.46 160.902C571.439 161.653 572.399 162.419 573.339 163.201L571.038 165.969ZM554.821 155.237L556.474 152.037C557.56 152.599 558.64 153.183 559.714 153.791L557.938 156.923C556.907 156.339 555.868 155.777 554.821 155.237Z" fill="#1FA4A5"/>
<path d="M478.367 271.35L499.963 283.819L518.767 251.25L551.337 270.055L563.806 248.458L531.235 229.654L550.04 197.083L528.444 184.614L509.639 217.185L477.07 198.381L464.602 219.978L497.17 238.781L478.367 271.35Z" fill="#1FA4A5"/>
</g>
</g>
<defs>
<filter id="filter0_d_1730_3022" x="0" y="0" width="767" height="555" filterUnits="userSpaceOnUse" color-interpolation-filters="sRGB">
<feFlood flood-opacity="0" result="BackgroundImageFix"/>
<feColorMatrix in="SourceAlpha" type="matrix" values="0 0 0 0 0 0 0 0 0 0 0 0 0 0 0 0 0 0 127 0" result="hardAlpha"/>
<feOffset/>
<feGaussianBlur stdDeviation="92"/>
<feComposite in2="hardAlpha" operator="out"/>
<feColorMatrix type="matrix" values="0 0 0 0 0 0 0 0 0 0 0 0 0 0 0 0 0 0 0.1 0"/>
<feBlend mode="normal" in2="BackgroundImageFix" result="effect1_dropShadow_1730_3022"/>
<feBlend mode="normal" in="SourceGraphic" in2="effect1_dropShadow_1730_3022" result="shape"/>
</filter>
</defs>
</svg>
