<svg width="1000" height="434" viewBox="0 0 1000 434" fill="none" xmlns="http://www.w3.org/2000/svg">
<rect width="1000" height="434" transform="matrix(1 0 0 -1 0 434)" fill="#1C2525"/>
<path d="M340.496 115.841C329.826 102.872 311.197 97.3845 296.67 106.546C282.999 115.169 276.883 132.053 264.525 142.258C251.569 152.957 237.306 153.519 221.62 151.609C208.099 149.963 192.711 150.222 187.368 165.972C181.574 183.052 190.123 203.151 200.47 216.318C210.672 229.299 224.9 237.994 240.579 241.399C271.83 248.185 308.654 236.836 330.919 212.726C353.936 187.801 363.757 144.113 340.496 115.841Z" fill="#253030"/>
<path d="M215.924 178.532C214.586 178.532 213.249 178.448 211.921 178.281C211.836 178.27 211.758 178.226 211.705 178.157C211.652 178.089 211.628 178.003 211.639 177.917C211.65 177.831 211.694 177.754 211.762 177.701C211.831 177.648 211.917 177.624 212.003 177.635C213.303 177.798 214.613 177.881 215.924 177.881C216.704 177.881 217.497 177.851 218.279 177.793C218.366 177.787 218.452 177.814 218.518 177.87C218.585 177.926 218.627 178.006 218.636 178.093C218.64 178.135 218.635 178.178 218.623 178.218C218.61 178.259 218.589 178.296 218.562 178.328C218.535 178.361 218.502 178.388 218.464 178.407C218.426 178.426 218.385 178.438 218.343 178.442L218.323 178.443C217.529 178.502 216.721 178.532 215.924 178.532ZM228.185 176.081C228.109 176.081 228.036 176.055 227.978 176.007C227.92 175.96 227.88 175.893 227.865 175.82C227.85 175.746 227.861 175.669 227.897 175.603C227.932 175.536 227.989 175.484 228.059 175.455C229.998 174.642 231.85 173.635 233.587 172.45C233.622 172.425 233.662 172.408 233.704 172.4C233.746 172.391 233.789 172.39 233.831 172.398C233.873 172.406 233.913 172.422 233.949 172.446C233.985 172.469 234.016 172.499 234.04 172.535C234.064 172.57 234.081 172.61 234.09 172.652C234.098 172.694 234.099 172.737 234.091 172.779C234.083 172.821 234.067 172.861 234.043 172.897C234.02 172.933 233.99 172.964 233.954 172.988C232.181 174.198 230.29 175.226 228.31 176.056C228.271 176.072 228.228 176.081 228.185 176.081ZM202.232 175.404C202.183 175.404 202.135 175.393 202.091 175.371C200.158 174.437 198.323 173.312 196.615 172.012C196.546 171.96 196.501 171.883 196.49 171.797C196.478 171.711 196.501 171.625 196.553 171.556C196.606 171.487 196.683 171.442 196.769 171.431C196.854 171.419 196.941 171.442 197.01 171.494C198.683 172.767 200.48 173.87 202.374 174.784C202.441 174.817 202.494 174.87 202.526 174.937C202.558 175.003 202.566 175.079 202.55 175.151C202.533 175.223 202.493 175.287 202.435 175.333C202.378 175.379 202.306 175.404 202.232 175.404ZM241.127 166.058C241.066 166.058 241.006 166.041 240.955 166.009C240.903 165.977 240.862 165.931 240.835 165.876C240.808 165.822 240.797 165.761 240.803 165.701C240.808 165.64 240.831 165.583 240.868 165.534C242.142 163.861 243.245 162.065 244.161 160.172C244.198 160.094 244.265 160.034 244.347 160.006C244.429 159.978 244.518 159.983 244.596 160.02C244.673 160.058 244.733 160.125 244.762 160.206C244.79 160.288 244.785 160.377 244.747 160.455C243.813 162.388 242.687 164.222 241.386 165.929C241.356 165.969 241.316 166.002 241.271 166.024C241.226 166.046 241.177 166.058 241.127 166.058ZM189.822 164.726C189.769 164.726 189.717 164.713 189.67 164.688C189.623 164.664 189.583 164.628 189.553 164.584C188.342 162.811 187.313 160.921 186.482 158.942C186.466 158.902 186.457 158.86 186.457 158.817C186.457 158.774 186.465 158.732 186.481 158.692C186.497 158.653 186.521 158.617 186.551 158.586C186.581 158.556 186.617 158.532 186.657 158.515C186.696 158.498 186.738 158.49 186.781 158.49C186.824 158.49 186.866 158.498 186.906 158.514C186.946 158.53 186.982 158.554 187.012 158.584C187.042 158.614 187.067 158.65 187.083 158.69C187.897 160.629 188.905 162.48 190.091 164.216C190.124 164.265 190.144 164.322 190.147 164.382C190.151 164.441 190.138 164.5 190.11 164.552C190.083 164.604 190.041 164.648 189.991 164.679C189.94 164.71 189.882 164.726 189.822 164.726ZM247.339 150.911C247.293 150.911 247.247 150.901 247.205 150.882C247.163 150.863 247.125 150.835 247.095 150.801C247.064 150.766 247.041 150.725 247.028 150.681C247.014 150.637 247.01 150.59 247.016 150.544C247.181 149.239 247.263 147.924 247.263 146.608C247.263 145.828 247.234 145.035 247.176 144.253L247.171 144.193C247.168 144.15 247.173 144.107 247.187 144.067C247.2 144.026 247.221 143.988 247.249 143.956C247.277 143.923 247.311 143.897 247.349 143.878C247.387 143.858 247.429 143.847 247.472 143.843C247.514 143.84 247.557 143.845 247.598 143.859C247.638 143.872 247.676 143.893 247.708 143.921C247.741 143.949 247.768 143.983 247.787 144.021C247.806 144.06 247.818 144.101 247.821 144.144L247.826 144.206C247.885 145.003 247.915 145.812 247.915 146.608C247.915 147.951 247.83 149.293 247.662 150.626C247.652 150.705 247.614 150.777 247.554 150.829C247.495 150.882 247.418 150.911 247.339 150.911ZM184.416 149.276C184.334 149.276 184.255 149.245 184.195 149.189C184.135 149.133 184.098 149.057 184.092 148.975L184.089 148.945C184.03 148.147 184 147.338 184 146.541C184 145.208 184.083 143.876 184.249 142.554C184.26 142.468 184.304 142.39 184.373 142.337C184.441 142.284 184.527 142.261 184.613 142.271C184.699 142.282 184.777 142.327 184.83 142.395C184.883 142.463 184.906 142.549 184.896 142.635C184.733 143.931 184.652 145.235 184.651 146.541C184.651 147.322 184.681 148.115 184.739 148.896L184.741 148.926C184.748 149.012 184.72 149.097 184.664 149.163C184.607 149.228 184.527 149.269 184.441 149.275C184.433 149.276 184.424 149.276 184.416 149.276ZM245.121 134.631C245.057 134.631 244.994 134.612 244.94 134.577C244.887 134.541 244.845 134.491 244.82 134.432C244.004 132.494 242.995 130.643 241.807 128.908C241.783 128.873 241.766 128.833 241.757 128.791C241.748 128.749 241.748 128.706 241.755 128.664C241.763 128.622 241.779 128.582 241.803 128.546C241.826 128.51 241.856 128.479 241.892 128.455C241.927 128.431 241.967 128.414 242.008 128.405C242.05 128.397 242.094 128.396 242.136 128.404C242.178 128.412 242.218 128.428 242.254 128.451C242.289 128.475 242.32 128.505 242.344 128.54C243.557 130.311 244.588 132.201 245.421 134.179C245.442 134.229 245.45 134.283 245.445 134.336C245.44 134.39 245.422 134.441 245.392 134.486C245.362 134.53 245.322 134.567 245.275 134.593C245.227 134.618 245.174 134.631 245.121 134.631ZM187.447 133.189C187.392 133.189 187.338 133.175 187.29 133.148C187.242 133.122 187.201 133.083 187.172 133.037C187.143 132.99 187.126 132.936 187.123 132.881C187.119 132.826 187.13 132.772 187.154 132.722C188.087 130.789 189.211 128.953 190.51 127.244C190.563 127.176 190.64 127.131 190.726 127.119C190.811 127.107 190.898 127.13 190.967 127.183C191.035 127.235 191.081 127.312 191.092 127.398C191.104 127.483 191.081 127.57 191.029 127.639C189.756 129.313 188.655 131.111 187.741 133.005C187.714 133.06 187.673 133.107 187.621 133.139C187.569 133.172 187.509 133.189 187.447 133.189ZM235.078 121.704C235.007 121.704 234.938 121.68 234.881 121.637C233.206 120.365 231.408 119.265 229.514 118.352C229.475 118.333 229.441 118.307 229.412 118.275C229.383 118.244 229.362 118.206 229.347 118.166C229.333 118.126 229.327 118.083 229.33 118.04C229.332 117.997 229.343 117.955 229.361 117.917C229.38 117.878 229.406 117.844 229.438 117.815C229.47 117.787 229.507 117.765 229.547 117.751C229.588 117.737 229.63 117.731 229.673 117.733C229.716 117.735 229.758 117.746 229.796 117.765C231.73 118.697 233.566 119.82 235.275 121.118C235.33 121.16 235.37 121.217 235.39 121.282C235.41 121.347 235.409 121.417 235.387 121.482C235.365 121.547 235.324 121.603 235.268 121.643C235.213 121.682 235.146 121.704 235.078 121.704ZM198.12 120.774C198.05 120.774 197.982 120.751 197.926 120.71C197.87 120.669 197.829 120.611 197.808 120.544C197.788 120.478 197.789 120.406 197.812 120.341C197.835 120.275 197.878 120.218 197.936 120.179C199.707 118.967 201.597 117.937 203.576 117.105C203.656 117.072 203.745 117.072 203.825 117.104C203.905 117.137 203.969 117.2 204.002 117.28C204.036 117.359 204.036 117.449 204.004 117.529C203.971 117.609 203.908 117.673 203.828 117.706C201.89 118.521 200.039 119.53 198.303 120.717C198.249 120.754 198.185 120.774 198.12 120.774ZM219.923 115.513C219.909 115.513 219.896 115.513 219.882 115.511C218.591 115.35 217.292 115.269 215.991 115.269C215.21 115.269 214.418 115.298 213.636 115.356L213.591 115.36C213.505 115.366 213.419 115.338 213.354 115.282C213.288 115.226 213.248 115.146 213.241 115.059C213.235 114.973 213.263 114.888 213.319 114.822C213.376 114.757 213.456 114.717 213.542 114.71L213.587 114.707C214.385 114.647 215.194 114.617 215.991 114.617C217.319 114.617 218.645 114.7 219.963 114.864C220.045 114.875 220.121 114.916 220.173 114.98C220.226 115.044 220.253 115.125 220.248 115.208C220.243 115.291 220.206 115.368 220.146 115.425C220.086 115.482 220.006 115.513 219.923 115.513Z" fill="#545454"/>
<path d="M201.538 257.63H200.063V255.549C200.063 255.438 200.019 255.332 199.941 255.253C199.862 255.175 199.756 255.131 199.645 255.131C199.534 255.131 199.427 255.175 199.349 255.253C199.27 255.332 199.226 255.438 199.226 255.549V257.63H197.751C197.696 257.63 197.642 257.64 197.591 257.661C197.54 257.682 197.494 257.713 197.455 257.752C197.416 257.791 197.385 257.837 197.364 257.888C197.343 257.939 197.333 257.993 197.333 258.048C197.333 258.103 197.343 258.158 197.364 258.208C197.385 258.259 197.416 258.305 197.455 258.344C197.494 258.383 197.54 258.414 197.591 258.435C197.642 258.456 197.696 258.467 197.751 258.467H199.226V260.547C199.226 260.658 199.27 260.764 199.349 260.843C199.427 260.921 199.534 260.965 199.645 260.965C199.756 260.965 199.862 260.921 199.941 260.843C200.019 260.764 200.063 260.658 200.063 260.547V258.467H201.538C201.593 258.467 201.648 258.456 201.699 258.435C201.749 258.414 201.796 258.383 201.834 258.344C201.873 258.305 201.904 258.259 201.925 258.208C201.946 258.158 201.957 258.103 201.957 258.048C201.957 257.993 201.946 257.939 201.925 257.888C201.904 257.837 201.873 257.791 201.834 257.752C201.796 257.713 201.749 257.682 201.699 257.661C201.648 257.64 201.593 257.63 201.538 257.63Z" fill="white"/>
<path d="M363.472 135.828H361.258V132.706C361.258 132.624 361.242 132.542 361.211 132.466C361.179 132.39 361.133 132.32 361.074 132.262C361.016 132.204 360.947 132.158 360.871 132.126C360.794 132.094 360.713 132.078 360.63 132.078C360.548 132.078 360.466 132.094 360.39 132.126C360.314 132.158 360.244 132.204 360.186 132.262C360.128 132.32 360.081 132.39 360.05 132.466C360.018 132.542 360.002 132.624 360.002 132.706V135.828H357.788C357.621 135.828 357.461 135.895 357.344 136.012C357.226 136.13 357.16 136.29 357.16 136.457C357.16 136.623 357.226 136.783 357.344 136.901C357.461 137.019 357.621 137.085 357.788 137.085H360.002V140.207C360.002 140.29 360.018 140.371 360.05 140.447C360.081 140.524 360.128 140.593 360.186 140.651C360.244 140.71 360.314 140.756 360.39 140.787C360.466 140.819 360.548 140.835 360.63 140.835C360.713 140.835 360.794 140.819 360.871 140.787C360.947 140.756 361.016 140.71 361.074 140.651C361.133 140.593 361.179 140.524 361.211 140.447C361.242 140.371 361.258 140.29 361.258 140.207V137.085H363.472C363.639 137.085 363.799 137.019 363.917 136.901C364.035 136.783 364.101 136.623 364.101 136.457C364.101 136.29 364.035 136.13 363.917 136.012C363.799 135.895 363.639 135.828 363.472 135.828Z" fill="#20A3A4"/>
<path d="M313.085 269.766C312.915 269.766 312.745 269.765 312.576 269.764C312.5 269.763 312.427 269.732 312.374 269.678C312.321 269.624 312.291 269.551 312.292 269.476C312.292 269.4 312.322 269.327 312.376 269.274C312.43 269.22 312.502 269.19 312.578 269.19H312.581C314.522 269.207 316.462 269.123 318.394 268.938C318.47 268.931 318.545 268.954 318.604 269.002C318.663 269.05 318.7 269.12 318.707 269.196C318.714 269.271 318.691 269.347 318.643 269.405C318.594 269.464 318.525 269.501 318.449 269.508C316.67 269.679 314.865 269.766 313.085 269.766ZM303.268 268.889C303.251 268.889 303.234 268.887 303.217 268.884C301.287 268.535 299.376 268.086 297.493 267.536C297.457 267.525 297.424 267.508 297.394 267.484C297.365 267.461 297.34 267.432 297.322 267.399C297.304 267.366 297.293 267.329 297.289 267.292C297.285 267.254 297.288 267.217 297.299 267.18C297.309 267.144 297.327 267.111 297.35 267.081C297.374 267.052 297.403 267.028 297.436 267.009C297.469 266.991 297.505 266.98 297.543 266.976C297.58 266.972 297.618 266.975 297.654 266.986C299.518 267.529 301.408 267.975 303.319 268.32C303.389 268.333 303.452 268.371 303.496 268.428C303.539 268.485 303.56 268.556 303.553 268.627C303.547 268.699 303.514 268.765 303.462 268.813C303.409 268.862 303.34 268.889 303.268 268.889ZM327.623 267.849C327.554 267.849 327.486 267.823 327.434 267.778C327.382 267.732 327.348 267.668 327.339 267.599C327.33 267.53 327.346 267.461 327.385 267.403C327.424 267.345 327.482 267.303 327.549 267.285C329.423 266.783 331.27 266.183 333.082 265.487C333.152 265.46 333.231 265.462 333.301 265.493C333.37 265.524 333.425 265.581 333.452 265.652C333.479 265.723 333.477 265.802 333.446 265.872C333.415 265.941 333.358 265.995 333.287 266.023C331.457 266.725 329.591 267.332 327.697 267.839C327.673 267.845 327.648 267.849 327.623 267.849ZM288.85 264.18C288.807 264.18 288.764 264.17 288.725 264.151C286.962 263.294 285.244 262.345 283.579 261.309C283.515 261.268 283.47 261.204 283.453 261.13C283.436 261.056 283.448 260.979 283.489 260.914C283.529 260.85 283.593 260.804 283.666 260.787C283.74 260.77 283.818 260.782 283.883 260.822C285.53 261.848 287.23 262.787 288.976 263.636C289.034 263.664 289.081 263.712 289.109 263.77C289.137 263.829 289.144 263.895 289.13 263.958C289.115 264.021 289.079 264.078 289.029 264.118C288.978 264.158 288.915 264.18 288.85 264.18ZM341.597 261.962C341.534 261.963 341.473 261.942 341.423 261.904C341.373 261.866 341.337 261.812 341.32 261.752C341.304 261.691 341.307 261.627 341.331 261.569C341.354 261.51 341.396 261.461 341.45 261.429C343.117 260.438 344.731 259.36 346.285 258.199C346.346 258.154 346.422 258.135 346.497 258.146C346.572 258.156 346.64 258.197 346.686 258.258C346.731 258.319 346.751 258.395 346.74 258.47C346.729 258.545 346.689 258.613 346.628 258.659C345.058 259.831 343.427 260.921 341.743 261.922C341.699 261.949 341.648 261.962 341.597 261.962ZM276.234 255.764C276.164 255.764 276.096 255.738 276.044 255.692C274.576 254.393 273.177 253.018 271.852 251.574C271.826 251.546 271.806 251.514 271.793 251.478C271.78 251.443 271.775 251.405 271.776 251.368C271.778 251.33 271.787 251.293 271.803 251.259C271.819 251.225 271.841 251.194 271.869 251.169C271.897 251.143 271.929 251.123 271.965 251.11C272 251.098 272.038 251.092 272.075 251.093C272.113 251.095 272.15 251.104 272.184 251.12C272.218 251.136 272.249 251.159 272.274 251.186C273.586 252.616 274.971 253.977 276.424 255.262C276.468 255.301 276.498 255.352 276.512 255.408C276.526 255.465 276.523 255.524 276.502 255.579C276.481 255.633 276.445 255.68 276.397 255.713C276.349 255.746 276.292 255.764 276.234 255.764ZM353.449 252.51C353.393 252.51 353.338 252.494 353.292 252.463C353.245 252.432 353.208 252.388 353.186 252.336C353.164 252.285 353.157 252.228 353.167 252.173C353.177 252.117 353.203 252.066 353.242 252.026C354.58 250.62 355.844 249.146 357.029 247.61C357.051 247.58 357.08 247.554 357.113 247.536C357.145 247.517 357.182 247.504 357.219 247.5C357.256 247.495 357.294 247.497 357.331 247.507C357.367 247.517 357.401 247.534 357.431 247.557C357.461 247.58 357.486 247.608 357.505 247.641C357.524 247.674 357.536 247.71 357.541 247.748C357.545 247.785 357.543 247.823 357.533 247.859C357.523 247.896 357.506 247.93 357.483 247.96C356.286 249.512 355.009 251.001 353.657 252.421C353.63 252.449 353.598 252.472 353.562 252.487C353.527 252.502 353.488 252.51 353.449 252.51ZM266.347 244.269C266.299 244.269 266.252 244.257 266.21 244.234C266.168 244.211 266.132 244.178 266.106 244.138C265.042 242.491 264.066 240.789 263.182 239.039C263.165 239.005 263.155 238.968 263.152 238.931C263.149 238.893 263.154 238.856 263.165 238.82C263.177 238.784 263.196 238.751 263.22 238.722C263.245 238.694 263.275 238.67 263.308 238.653C263.342 238.636 263.379 238.626 263.416 238.623C263.454 238.621 263.492 238.625 263.527 238.637C263.563 238.649 263.596 238.668 263.625 238.692C263.653 238.717 263.677 238.747 263.694 238.78C264.569 240.512 265.535 242.197 266.587 243.827C266.615 243.87 266.631 243.92 266.633 243.972C266.635 244.023 266.623 244.074 266.598 244.119C266.574 244.165 266.537 244.202 266.493 244.229C266.449 244.255 266.398 244.269 266.347 244.269ZM362.325 240.214C362.276 240.214 362.227 240.201 362.184 240.177C362.141 240.153 362.105 240.117 362.079 240.075C362.054 240.033 362.04 239.984 362.039 239.935C362.037 239.885 362.049 239.836 362.072 239.793C362.984 238.08 363.807 236.32 364.535 234.521C364.549 234.486 364.57 234.454 364.597 234.427C364.623 234.4 364.654 234.379 364.689 234.364C364.724 234.349 364.761 234.342 364.799 234.341C364.836 234.341 364.874 234.348 364.909 234.362C364.943 234.376 364.975 234.397 365.002 234.424C365.029 234.45 365.05 234.482 365.065 234.516C365.08 234.551 365.087 234.588 365.088 234.626C365.088 234.664 365.081 234.701 365.067 234.736C364.33 236.553 363.5 238.331 362.578 240.062C362.554 240.108 362.517 240.147 362.473 240.173C362.428 240.2 362.377 240.214 362.325 240.214ZM259.943 230.525C259.882 230.525 259.822 230.505 259.773 230.469C259.724 230.432 259.687 230.381 259.669 230.323C259.093 228.449 258.615 226.546 258.236 224.623C258.229 224.586 258.229 224.548 258.236 224.511C258.243 224.474 258.258 224.439 258.279 224.408C258.3 224.377 258.327 224.35 258.358 224.329C258.39 224.308 258.425 224.294 258.462 224.286C258.499 224.279 258.537 224.279 258.574 224.287C258.611 224.294 258.646 224.309 258.677 224.33C258.708 224.351 258.735 224.377 258.756 224.409C258.777 224.44 258.791 224.475 258.798 224.512C259.173 226.416 259.647 228.299 260.217 230.154C260.23 230.197 260.233 230.242 260.226 230.286C260.218 230.331 260.2 230.372 260.174 230.409C260.147 230.445 260.112 230.474 260.072 230.494C260.032 230.514 259.988 230.525 259.943 230.525ZM367.567 225.983C367.547 225.983 367.526 225.981 367.506 225.976C367.469 225.968 367.434 225.953 367.403 225.931C367.372 225.91 367.346 225.882 367.326 225.851C367.305 225.819 367.292 225.784 367.285 225.747C367.278 225.71 367.279 225.672 367.287 225.635C367.703 223.738 368.018 221.821 368.231 219.892C368.235 219.854 368.247 219.818 368.265 219.785C368.283 219.752 368.307 219.723 368.337 219.699C368.366 219.676 368.4 219.658 368.436 219.648C368.472 219.637 368.51 219.634 368.547 219.638C368.585 219.642 368.621 219.654 368.654 219.672C368.687 219.69 368.716 219.714 368.74 219.744C368.763 219.773 368.781 219.807 368.791 219.843C368.802 219.879 368.805 219.917 368.801 219.955C368.585 221.904 368.267 223.841 367.847 225.758C367.833 225.821 367.798 225.878 367.747 225.919C367.696 225.96 367.633 225.983 367.567 225.983ZM257.476 215.56C257.402 215.56 257.33 215.531 257.277 215.479C257.223 215.427 257.192 215.356 257.19 215.282C257.175 214.761 257.168 214.234 257.168 213.714C257.168 212.282 257.224 210.832 257.335 209.406C257.341 209.33 257.376 209.26 257.434 209.21C257.492 209.161 257.567 209.136 257.643 209.142C257.719 209.148 257.789 209.184 257.838 209.242C257.888 209.299 257.912 209.374 257.906 209.45C257.797 210.862 257.741 212.296 257.741 213.714C257.741 214.228 257.749 214.751 257.763 215.266C257.765 215.342 257.737 215.415 257.685 215.471C257.633 215.526 257.561 215.558 257.485 215.56C257.482 215.56 257.479 215.56 257.476 215.56ZM368.753 210.863C368.68 210.863 368.61 210.835 368.557 210.785C368.504 210.735 368.472 210.666 368.467 210.593C368.353 208.655 368.138 206.725 367.823 204.81L367.81 204.727C367.798 204.652 367.815 204.576 367.86 204.514C367.904 204.452 367.971 204.41 368.046 204.398C368.121 204.386 368.198 204.403 368.26 204.448C368.321 204.492 368.363 204.559 368.375 204.634L368.389 204.716C368.707 206.652 368.924 208.602 369.04 210.559C369.044 210.635 369.018 210.71 368.968 210.767C368.917 210.823 368.846 210.858 368.77 210.862C368.765 210.863 368.759 210.863 368.753 210.863ZM259.13 200.486C259.087 200.486 259.044 200.476 259.005 200.457C258.965 200.438 258.931 200.41 258.904 200.376C258.878 200.341 258.859 200.301 258.85 200.259C258.841 200.216 258.842 200.172 258.852 200.13C259.332 198.228 259.911 196.353 260.588 194.512C260.601 194.476 260.62 194.444 260.646 194.416C260.671 194.389 260.702 194.366 260.736 194.35C260.771 194.335 260.807 194.326 260.845 194.324C260.883 194.323 260.92 194.329 260.956 194.342C260.991 194.355 261.023 194.374 261.051 194.4C261.079 194.425 261.101 194.456 261.117 194.49C261.133 194.524 261.142 194.561 261.143 194.599C261.145 194.637 261.139 194.674 261.126 194.71C260.456 196.532 259.883 198.387 259.408 200.27C259.393 200.332 259.357 200.386 259.306 200.426C259.256 200.465 259.194 200.486 259.13 200.486ZM365.805 195.903C365.745 195.903 365.687 195.884 365.638 195.849C365.59 195.814 365.553 195.765 365.534 195.709C364.903 193.874 364.175 192.074 363.355 190.315C363.339 190.281 363.33 190.244 363.329 190.207C363.327 190.169 363.333 190.131 363.346 190.096C363.358 190.061 363.378 190.028 363.404 190C363.429 189.973 363.46 189.95 363.494 189.934C363.528 189.918 363.565 189.909 363.602 189.908C363.64 189.906 363.677 189.912 363.713 189.924C363.748 189.937 363.781 189.957 363.809 189.982C363.836 190.008 363.859 190.038 363.875 190.073C364.704 191.849 365.438 193.669 366.076 195.523C366.091 195.566 366.095 195.612 366.088 195.657C366.082 195.702 366.064 195.745 366.038 195.782C366.011 195.82 365.976 195.85 365.936 195.871C365.895 195.892 365.85 195.903 365.805 195.903ZM264.808 186.422C264.757 186.422 264.708 186.409 264.665 186.384C264.621 186.359 264.585 186.323 264.56 186.279C264.535 186.236 264.521 186.187 264.521 186.136C264.521 186.086 264.534 186.037 264.559 185.993C265.534 184.292 266.596 182.643 267.742 181.052C267.765 181.021 267.792 180.995 267.824 180.976C267.856 180.956 267.892 180.942 267.929 180.936C267.966 180.93 268.004 180.932 268.041 180.94C268.078 180.949 268.112 180.965 268.143 180.987C268.173 181.009 268.199 181.037 268.219 181.069C268.239 181.101 268.252 181.136 268.258 181.173C268.264 181.211 268.263 181.249 268.254 181.285C268.245 181.322 268.23 181.356 268.208 181.387C267.073 182.962 266.021 184.594 265.057 186.278C265.032 186.322 264.995 186.358 264.952 186.384C264.908 186.409 264.858 186.422 264.808 186.422ZM358.96 182.375C358.913 182.375 358.867 182.364 358.826 182.342C358.785 182.321 358.75 182.29 358.724 182.252C357.618 180.658 356.431 179.123 355.165 177.653C355.14 177.624 355.121 177.591 355.11 177.556C355.098 177.52 355.093 177.482 355.096 177.445C355.099 177.407 355.109 177.37 355.126 177.337C355.143 177.303 355.166 177.273 355.195 177.249C355.223 177.224 355.256 177.205 355.292 177.194C355.328 177.182 355.366 177.177 355.403 177.18C355.441 177.183 355.477 177.193 355.511 177.21C355.544 177.227 355.574 177.25 355.599 177.279C356.878 178.764 358.078 180.315 359.195 181.925C359.225 181.968 359.242 182.018 359.245 182.071C359.249 182.123 359.237 182.175 359.213 182.221C359.189 182.268 359.153 182.306 359.108 182.334C359.063 182.361 359.012 182.375 358.96 182.375ZM274.056 174.403C274 174.403 273.944 174.387 273.897 174.355C273.85 174.323 273.813 174.278 273.791 174.226C273.77 174.173 273.764 174.115 273.776 174.06C273.787 174.004 273.815 173.953 273.855 173.913C275.25 172.536 276.716 171.233 278.247 170.009C278.276 169.986 278.31 169.968 278.346 169.958C278.383 169.947 278.42 169.944 278.458 169.948C278.495 169.952 278.532 169.964 278.565 169.982C278.598 170 278.627 170.025 278.65 170.054C278.674 170.083 278.691 170.117 278.702 170.153C278.712 170.19 278.715 170.228 278.711 170.265C278.707 170.302 278.695 170.339 278.677 170.372C278.659 170.405 278.634 170.434 278.605 170.457C277.09 171.668 275.639 172.958 274.258 174.321C274.204 174.374 274.132 174.404 274.056 174.403ZM348.707 171.205C348.64 171.205 348.575 171.182 348.524 171.139C347.029 169.901 345.472 168.742 343.857 167.666C343.825 167.645 343.799 167.618 343.778 167.587C343.757 167.555 343.742 167.52 343.734 167.483C343.727 167.446 343.727 167.408 343.734 167.371C343.742 167.334 343.756 167.299 343.777 167.268C343.798 167.237 343.825 167.21 343.856 167.189C343.887 167.168 343.922 167.153 343.959 167.146C343.996 167.138 344.034 167.138 344.071 167.146C344.108 167.153 344.143 167.168 344.175 167.188C345.806 168.276 347.38 169.447 348.89 170.698C348.935 170.735 348.968 170.786 348.983 170.843C348.999 170.9 348.996 170.96 348.976 171.016C348.956 171.071 348.92 171.119 348.871 171.153C348.823 171.187 348.766 171.205 348.707 171.205ZM286.196 165.321C286.132 165.321 286.07 165.3 286.02 165.261C285.97 165.222 285.934 165.168 285.918 165.106C285.902 165.045 285.907 164.979 285.932 164.921C285.957 164.863 286.001 164.814 286.057 164.783C287.773 163.835 289.537 162.978 291.344 162.215C291.378 162.2 291.416 162.193 291.453 162.192C291.491 162.192 291.528 162.199 291.563 162.213C291.598 162.228 291.63 162.249 291.656 162.275C291.683 162.301 291.705 162.333 291.719 162.368C291.734 162.402 291.742 162.439 291.742 162.477C291.742 162.515 291.735 162.552 291.721 162.587C291.707 162.622 291.686 162.654 291.659 162.68C291.633 162.707 291.601 162.728 291.567 162.743C289.779 163.498 288.032 164.346 286.334 165.285C286.292 165.309 286.244 165.321 286.196 165.321ZM335.828 163.198C335.787 163.198 335.748 163.189 335.711 163.173C333.939 162.381 332.126 161.683 330.281 161.081C330.208 161.058 330.148 161.006 330.114 160.938C330.079 160.871 330.073 160.792 330.097 160.72C330.12 160.647 330.172 160.587 330.24 160.553C330.307 160.519 330.386 160.512 330.458 160.536C332.323 161.144 334.154 161.85 335.945 162.65C336.005 162.676 336.054 162.723 336.083 162.781C336.113 162.84 336.122 162.907 336.108 162.971C336.094 163.035 336.059 163.093 336.008 163.134C335.957 163.175 335.893 163.198 335.828 163.198ZM300.344 159.87C300.273 159.87 300.206 159.844 300.153 159.797C300.101 159.75 300.067 159.686 300.059 159.616C300.051 159.546 300.069 159.476 300.109 159.418C300.15 159.361 300.21 159.32 300.278 159.304C301.531 159.009 302.812 158.754 304.087 158.545C304.742 158.437 305.406 158.34 306.062 158.256C306.099 158.251 306.137 158.254 306.174 158.264C306.21 158.273 306.244 158.29 306.274 158.313C306.304 158.336 306.329 158.365 306.348 158.398C306.366 158.43 306.378 158.466 306.383 158.504C306.388 158.541 306.385 158.579 306.376 158.615C306.366 158.652 306.349 158.686 306.326 158.716C306.303 158.745 306.274 158.77 306.241 158.789C306.208 158.808 306.172 158.82 306.135 158.825C305.485 158.908 304.828 159.004 304.18 159.11C302.918 159.318 301.649 159.57 300.41 159.862C300.388 159.867 300.366 159.87 300.344 159.87ZM321.266 158.958C321.252 158.958 321.238 158.957 321.224 158.955C319.303 158.673 317.369 158.493 315.429 158.415C315.353 158.412 315.282 158.378 315.23 158.323C315.179 158.267 315.152 158.193 315.155 158.117C315.158 158.041 315.191 157.97 315.246 157.918C315.302 157.866 315.376 157.839 315.452 157.842C317.412 157.921 319.367 158.103 321.308 158.388C321.379 158.399 321.444 158.436 321.49 158.492C321.535 158.549 321.557 158.62 321.552 158.692C321.547 158.765 321.514 158.832 321.461 158.881C321.408 158.931 321.339 158.958 321.266 158.958Z" fill="#545454"/>
<path d="M320.345 126.004C320.345 125.864 320.303 125.726 320.225 125.609C320.147 125.492 320.036 125.401 319.906 125.347C319.776 125.293 319.633 125.279 319.495 125.307C319.357 125.334 319.23 125.402 319.131 125.501L315.401 129.231C315.268 129.364 315.193 129.545 315.193 129.734C315.193 129.922 315.268 130.103 315.401 130.237C315.535 130.37 315.716 130.445 315.904 130.445C316.093 130.445 316.274 130.37 316.407 130.237L320.137 126.507C320.203 126.441 320.255 126.363 320.291 126.277C320.327 126.19 320.345 126.098 320.345 126.004Z" fill="white"/>
<path d="M323.984 134.366L317.777 133.434C317.685 133.42 317.59 133.424 317.5 133.447C317.409 133.469 317.324 133.509 317.248 133.565C317.173 133.62 317.11 133.69 317.061 133.77C317.013 133.85 316.981 133.939 316.967 134.032C316.953 134.124 316.958 134.218 316.981 134.309C317.003 134.4 317.043 134.485 317.099 134.56C317.154 134.635 317.224 134.699 317.304 134.747C317.384 134.795 317.473 134.827 317.566 134.841L323.772 135.773C323.865 135.787 323.959 135.783 324.05 135.76C324.14 135.738 324.226 135.697 324.301 135.642C324.376 135.586 324.44 135.517 324.488 135.437C324.536 135.357 324.568 135.268 324.582 135.175C324.596 135.083 324.591 134.989 324.569 134.898C324.546 134.807 324.506 134.722 324.45 134.647C324.395 134.572 324.325 134.508 324.245 134.46C324.165 134.412 324.076 134.38 323.984 134.366Z" fill="white"/>
<path d="M311.27 121.653C311.256 121.561 311.224 121.472 311.176 121.392C311.128 121.312 311.064 121.242 310.989 121.186C310.914 121.131 310.829 121.09 310.738 121.068C310.647 121.045 310.553 121.041 310.461 121.055C310.368 121.069 310.279 121.101 310.199 121.149C310.119 121.197 310.05 121.261 309.994 121.336C309.939 121.411 309.898 121.496 309.876 121.587C309.853 121.678 309.849 121.772 309.863 121.864L310.795 128.071C310.809 128.163 310.841 128.252 310.889 128.332C310.937 128.412 311.001 128.482 311.076 128.538C311.151 128.593 311.236 128.633 311.327 128.656C311.418 128.678 311.512 128.683 311.604 128.669C311.697 128.655 311.786 128.623 311.866 128.575C311.946 128.527 312.015 128.463 312.071 128.388C312.126 128.313 312.167 128.228 312.189 128.137C312.212 128.046 312.216 127.952 312.202 127.86L311.27 121.653Z" fill="white"/>
<path d="M322.488 144.314H312.946V136.596C312.946 134.932 311.546 133.582 309.818 133.582L230.134 133.582C228.41 133.582 227.013 134.928 227.013 136.589L227.013 244.519C227.013 246.18 228.41 247.527 230.134 247.527H309.821C311.547 247.527 312.946 246.178 312.946 244.515L312.946 188.501H322.488C324.774 188.501 326.627 186.715 326.627 184.512V148.303C326.627 146.1 324.774 144.314 322.488 144.314Z" fill="#8CB4B5"/>
<path d="M309.003 139.314V241.391C309.003 241.784 308.925 242.174 308.775 242.537C308.625 242.9 308.404 243.23 308.126 243.508C307.848 243.786 307.518 244.007 307.155 244.157C306.791 244.308 306.402 244.385 306.009 244.385L246.203 244.365L230.467 228.629V139.314C230.467 138.921 230.545 138.532 230.695 138.169C230.846 137.805 231.066 137.475 231.344 137.197C231.622 136.919 231.952 136.699 232.316 136.548C232.679 136.398 233.068 136.32 233.461 136.32H306.009C306.402 136.32 306.791 136.398 307.155 136.548C307.518 136.699 307.848 136.919 308.126 137.197C308.404 137.475 308.625 137.805 308.775 138.169C308.926 138.532 309.003 138.921 309.003 139.314Z" fill="white"/>
<path d="M293.595 237.934C298.556 237.934 302.578 233.912 302.578 228.951C302.578 223.99 298.556 219.969 293.595 219.969C288.634 219.969 284.613 223.99 284.613 228.951C284.613 233.912 288.634 237.934 293.595 237.934Z" fill="#4ACB2A"/>
<path d="M289.379 228.89L292.202 231.713L297.763 226.152" stroke="white" stroke-width="2" stroke-linecap="round" stroke-linejoin="round"/>
<path d="M252.968 149.09H286.563C287.055 149.09 287.527 149.285 287.876 149.634C288.224 149.982 288.419 150.454 288.419 150.946C288.419 151.439 288.224 151.911 287.876 152.259C287.527 152.607 287.055 152.803 286.563 152.803H252.968C252.476 152.803 252.004 152.607 251.656 152.259C251.307 151.911 251.112 151.439 251.112 150.946C251.112 150.454 251.307 149.982 251.656 149.634C252.004 149.285 252.476 149.09 252.968 149.09Z" fill="#20A3A4"/>
<path d="M295.941 161.855H243.591C242.618 161.855 241.83 162.644 241.83 163.616V163.807C241.83 164.78 242.618 165.568 243.591 165.568H295.941C296.913 165.568 297.702 164.78 297.702 163.807V163.616C297.702 162.644 296.913 161.855 295.941 161.855Z" fill="#EBEBEB"/>
<path d="M295.941 180.656H243.591C242.618 180.656 241.83 181.445 241.83 182.417V182.608C241.83 183.581 242.618 184.369 243.591 184.369H295.941C296.913 184.369 297.702 183.581 297.702 182.608V182.417C297.702 181.445 296.913 180.656 295.941 180.656Z" fill="#EBEBEB"/>
<path d="M295.941 199.453H243.591C242.618 199.453 241.83 200.241 241.83 201.214V201.405C241.83 202.378 242.618 203.166 243.591 203.166H295.941C296.913 203.166 297.702 202.378 297.702 201.405V201.214C297.702 200.241 296.913 199.453 295.941 199.453Z" fill="#EBEBEB"/>
<path d="M295.941 171.256H243.591C242.618 171.256 241.83 172.044 241.83 173.017V173.208C241.83 174.18 242.618 174.969 243.591 174.969H295.941C296.913 174.969 297.702 174.18 297.702 173.208V173.017C297.702 172.044 296.913 171.256 295.941 171.256Z" fill="#EBEBEB"/>
<path d="M295.941 208.854H243.591C242.618 208.854 241.83 209.642 241.83 210.614V210.805C241.83 211.778 242.618 212.566 243.591 212.566H295.941C296.913 212.566 297.702 211.778 297.702 210.805V210.614C297.702 209.642 296.913 208.854 295.941 208.854Z" fill="#EBEBEB"/>
<path d="M295.881 190.055H243.531C242.558 190.055 241.77 190.843 241.77 191.816V192.007C241.77 192.979 242.558 193.767 243.531 193.767H295.881C296.853 193.767 297.641 192.979 297.641 192.007V191.816C297.641 190.843 296.853 190.055 295.881 190.055Z" fill="#EBEBEB"/>
<path d="M246.203 231.609V244.365L230.467 228.629V228.615H243.209C244.003 228.615 244.764 228.931 245.326 229.492C245.887 230.054 246.203 230.815 246.203 231.609Z" fill="#F2F2F2"/>
<path d="M223.539 153.73L235.972 159.3L252.393 120.91L204.396 145.156L216.856 150.738" fill="#E0E0E0"/>
<path d="M223.539 153.73L252.393 120.91L216.855 150.738L219.166 161.824L223.539 153.73Z" fill="#CDCDCD"/>
<path d="M219.167 161.824L226.712 155.152L223.539 153.73L219.167 161.824Z" fill="#B9B9B9"/>
<path d="M237.918 215.919C243.242 210.595 243.242 201.964 237.918 196.64C232.594 191.316 223.963 191.316 218.639 196.64C213.316 201.964 213.316 210.595 218.639 215.919C223.963 221.242 232.594 221.242 237.918 215.919Z" fill="#EE5A47"/>
<path d="M223.753 222.326C220.042 221.279 216.808 218.977 214.602 215.813C212.397 212.649 211.358 208.818 211.66 204.973C211.963 201.128 213.59 197.507 216.263 194.727C218.936 191.947 222.49 190.18 226.32 189.727C230.151 189.274 234.019 190.163 237.267 192.242C240.515 194.321 242.942 197.463 244.134 201.131C245.325 204.799 245.208 208.767 243.802 212.358C242.397 215.949 239.789 218.942 236.424 220.827C234.516 221.902 232.414 222.588 230.239 222.845C228.064 223.103 225.86 222.926 223.753 222.326ZM232.452 191.489C229.029 190.524 225.378 190.775 222.12 192.2C218.862 193.625 216.199 196.135 214.585 199.303C212.971 202.472 212.505 206.102 213.266 209.575C214.028 213.048 215.971 216.15 218.763 218.351C221.556 220.553 225.025 221.718 228.58 221.648C232.135 221.578 235.556 220.278 238.26 217.969C240.964 215.66 242.784 212.484 243.409 208.984C244.034 205.484 243.426 201.875 241.689 198.772C240.707 197.008 239.385 195.456 237.8 194.205C236.214 192.955 234.396 192.032 232.452 191.489Z" fill="#EE5A47"/>
<path d="M229.46 213.665L232.669 212.497L230.908 207.658L235.747 205.897L234.58 202.688L229.74 204.449L227.979 199.61L224.77 200.778L226.531 205.617L221.692 207.379L222.86 210.587L227.699 208.826L229.46 213.665Z" fill="white"/>
</svg>
