<svg width="40" height="40" viewBox="0 0 40 40" fill="none" xmlns="http://www.w3.org/2000/svg">
<rect width="40" height="40" rx="8" fill="#F4F0FA"/>
<path d="M20.4993 10C14.7092 10 10 14.7099 10 20.4993C10 26.2894 14.7092 31 20.4993 31C26.2881 31 30.998 26.2901 30.998 20.4993C30.998 14.7099 26.2881 10 20.4993 10ZM20.4993 29.3278C15.6307 29.3278 11.6709 25.3679 11.6709 20.4987C11.6709 15.6314 15.6307 11.6702 20.4993 11.6702C25.3673 11.6702 29.3271 15.6314 29.3271 20.4987C29.3271 25.3679 25.3673 29.3278 20.4993 29.3278Z" fill="#8F62D9"/>
<path d="M22.1549 18.8335V16.292C22.1549 15.8541 21.7989 15.5 21.36 15.5H19.6406C19.2016 15.5 18.8462 15.8546 18.8462 16.292V18.8335H16.2944C15.8554 18.8335 15.5 19.1881 15.5 19.6255V21.375C15.5 21.8124 15.8554 22.167 16.2944 22.167H18.8457V24.708C18.8457 25.1454 19.2011 25.5 19.64 25.5H21.36C21.7984 25.5 22.1543 25.1454 22.1543 24.708V22.167H24.7051C25.1441 22.167 25.5 21.8124 25.5 21.375V19.6255C25.5 19.1876 25.1441 18.8335 24.7051 18.8335H22.1549Z" fill="#8F62D9"/>
</svg>
