<svg width="40" height="40" viewBox="0 0 40 40" fill="none" xmlns="http://www.w3.org/2000/svg">
<rect width="40" height="40" rx="8" fill="#E3F2F2"/>
<path d="M22.5003 15.75C22.0403 15.75 21.667 15.3767 21.667 14.9167V13.6667H18.3337V14.9167C18.3337 15.3767 17.9603 15.75 17.5003 15.75C17.0403 15.75 16.667 15.3767 16.667 14.9167V13.6667C16.667 12.7475 17.4145 12 18.3337 12H21.667C22.5862 12 23.3337 12.7475 23.3337 13.6667V14.9167C23.3337 15.3767 22.9603 15.75 22.5003 15.75Z" fill="#1FA2A3"/>
<path d="M20.5917 23.149C20.4417 23.2073 20.225 23.249 20 23.249C19.775 23.249 19.5583 23.2073 19.3583 23.1323L10 20.0156V26.374C10 27.6406 11.025 28.6656 12.2917 28.6656H27.7083C28.975 28.6656 30 27.6406 30 26.374V20.0156L20.5917 23.149Z" fill="#1FA2A3"/>
<path d="M30 16.7917V18.7L20.2 21.9667C20.1333 21.9917 20.0667 22 20 22C19.9333 22 19.8667 21.9917 19.8 21.9667L10 18.7V16.7917C10 15.525 11.025 14.5 12.2917 14.5H27.7083C28.975 14.5 30 15.525 30 16.7917Z" fill="#1FA2A3"/>
</svg>
