<svg width="277" height="293" viewBox="0 0 277 293" fill="none" xmlns="http://www.w3.org/2000/svg">
<path d="M0.0104022 154.349C-0.508 186.921 17.9908 278.282 136.396 271.658C239.902 265.867 272.834 248.087 276.676 200.69C281.913 136.094 222.286 131.372 195.174 90.8489C178.788 66.3578 178.032 12.4815 121.228 0.795482C74.7335 -8.76982 1.36195 69.4333 0.0104022 154.349Z" fill="#209D9E"/>
<path d="M224.809 265.018C224.809 267.369 183.065 269.275 131.571 269.275C80.0767 269.275 38.3325 267.369 38.3325 265.018C38.3325 262.666 80.0767 260.76 131.571 260.76C183.065 260.76 224.809 262.666 224.809 265.018Z" fill="#178182"/>
<path d="M154.021 292.333C192.062 292.333 222.9 290.931 222.9 289.202C222.9 287.474 192.062 286.072 154.021 286.072C115.981 286.072 85.1426 287.474 85.1426 289.202C85.1426 290.931 115.981 292.333 154.021 292.333Z" fill="#178182"/>
<path d="M107.312 281.998C107.312 283.965 88.4455 285.559 65.1722 285.559C41.899 285.559 23.0322 283.965 23.0322 281.998C23.0322 280.032 41.899 278.438 65.1722 278.438C88.4455 278.438 107.312 280.032 107.312 281.998Z" fill="#178182"/>
<path d="M209.185 28.3652H56.3699C51.5292 28.3652 47.605 32.2894 47.605 37.1301V256.253C47.605 261.094 51.5292 265.018 56.3699 265.018H209.185C214.025 265.018 217.949 261.094 217.949 256.253V37.1301C217.949 32.2894 214.025 28.3652 209.185 28.3652Z" fill="#3B5252"/>
<path d="M205.946 35.416H59.6094V257.969H205.946V35.416Z" fill="white"/>
<path d="M86.2148 70.3792V59.3535H88.5233V70.3792H86.2148Z" fill="#3B5252"/>
<path d="M97.381 70.3792L92.5766 61.889C92.6591 62.5485 92.706 63.212 92.7171 63.8765V70.3792H90.667V59.3535H93.304L98.1794 67.9142C98.0901 67.2004 98.043 66.4819 98.0384 65.7625V59.3535H100.089V70.3792H97.381Z" fill="#3B5252"/>
<path d="M111.232 67.2026C111.257 67.6832 111.16 68.1623 110.95 68.5953C110.74 69.0283 110.423 69.4011 110.031 69.6792C108.971 70.3192 107.74 70.6184 106.505 70.5364C105.349 70.598 104.198 70.3379 103.18 69.7849C102.779 69.5323 102.434 69.1998 102.168 68.808C101.901 68.4162 101.718 67.9737 101.63 67.508L103.86 67.14C103.915 67.4004 104.021 67.6472 104.173 67.8657C104.325 68.0842 104.519 68.2699 104.745 68.4117C105.306 68.7038 105.936 68.8402 106.568 68.8067C108.18 68.8067 108.986 68.3163 108.986 67.3356C108.996 67.0512 108.897 66.7738 108.708 66.561C108.489 66.3349 108.221 66.1611 107.926 66.0523C107.294 65.8388 106.646 65.6741 105.989 65.5595C105.407 65.4336 104.833 65.2782 104.267 65.0939C103.962 64.9852 103.668 64.8462 103.391 64.6791C103.138 64.5267 102.913 64.3323 102.726 64.1042C102.537 63.8686 102.393 63.6008 102.299 63.3137C102.193 62.9773 102.141 62.6258 102.147 62.2729C102.125 61.8275 102.216 61.3838 102.413 60.9834C102.609 60.583 102.904 60.2391 103.27 59.984C104.252 59.3926 105.392 59.1156 106.537 59.1898C107.602 59.1216 108.666 59.3433 109.616 59.8315C109.974 60.0717 110.277 60.3847 110.505 60.7501C110.734 61.1156 110.883 61.5251 110.942 61.9521L108.704 62.2571C108.616 61.8234 108.366 61.4398 108.004 61.1853C107.546 60.9178 107.019 60.7925 106.49 60.8251C105.092 60.8251 104.393 61.2633 104.393 62.1399C104.382 62.3935 104.461 62.6429 104.616 62.8441C104.796 63.0495 105.023 63.2091 105.277 63.3096C105.855 63.5181 106.449 63.679 107.053 63.7908C107.827 63.9349 108.587 64.143 109.326 64.413C109.725 64.5674 110.092 64.7928 110.41 65.0782C110.677 65.3328 110.885 65.6426 111.02 65.986C111.168 66.3743 111.24 66.7873 111.232 67.2026Z" fill="#3B5252"/>
<path d="M117.515 70.5359C116.254 70.6219 115.008 70.2246 114.029 69.4247C113.612 69.0124 113.289 68.5154 113.08 67.9673C112.871 67.4192 112.783 66.8328 112.82 66.2475V59.3535H115.129V66.0676C115.077 66.7838 115.3 67.4928 115.751 68.0514C115.99 68.2878 116.276 68.4705 116.591 68.5872C116.906 68.704 117.243 68.752 117.578 68.7282C117.927 68.7508 118.277 68.6994 118.605 68.5773C118.932 68.4552 119.231 68.2653 119.48 68.0199C119.956 67.4546 120.194 66.7267 120.145 65.9893V59.3535H122.453V66.1302C122.488 66.7339 122.391 67.338 122.167 67.8998C121.943 68.4617 121.599 68.9675 121.158 69.3815C120.13 70.2068 118.831 70.6185 117.515 70.5359Z" fill="#3B5252"/>
<path d="M132.078 70.3791L129.519 66.1927H126.812V70.3791H124.503V59.3534H130.012C131.094 59.2847 132.167 59.5841 133.056 60.2027C133.415 60.4952 133.699 60.8686 133.886 61.2923C134.072 61.716 134.155 62.1779 134.129 62.64C134.145 63.3621 133.913 64.068 133.471 64.6395C133.026 65.2045 132.398 65.5962 131.695 65.7467L134.676 70.3791H132.078ZM131.804 62.7341C131.804 61.6751 131.126 61.1456 129.77 61.1453H126.812V64.4008H129.833C130.36 64.4384 130.883 64.2827 131.304 63.9626C131.473 63.8079 131.606 63.6173 131.693 63.4048C131.779 63.1923 131.817 62.9632 131.804 62.7341Z" fill="#3B5252"/>
<path d="M143.87 70.3792L142.892 67.5623H138.69L137.712 70.3792H135.404L139.426 59.3535H142.149L146.156 70.3792H143.87ZM140.787 61.0517L140.741 61.2237C140.688 61.4115 140.626 61.6254 140.553 61.8654C140.48 62.1055 140.031 63.4254 139.207 65.8251H142.376L141.288 62.6559L140.952 61.5918L140.787 61.0517Z" fill="#3B5252"/>
<path d="M154.364 70.3792L149.559 61.889C149.642 62.5485 149.689 63.212 149.7 63.8765V70.3792H147.65V59.3535H150.287L155.162 67.9142C155.073 67.2004 155.026 66.4819 155.021 65.7625V59.3535H157.071V70.3792H154.364Z" fill="#3B5252"/>
<path d="M164.372 68.7195C165.02 68.7411 165.657 68.5468 166.182 68.1671C166.708 67.7875 167.092 67.244 167.275 66.6222L169.286 67.3815C168.924 68.3581 168.256 69.1912 167.381 69.7562C166.472 70.2947 165.428 70.5647 164.372 70.535C163.62 70.5824 162.866 70.4729 162.158 70.2135C161.45 69.9542 160.804 69.5506 160.26 69.0284C159.328 67.8321 158.818 66.3612 158.809 64.8448C158.799 63.3283 159.292 61.8514 160.209 60.6438C160.749 60.134 161.389 59.7415 162.088 59.491C162.786 59.2405 163.53 59.1375 164.271 59.1885C165.377 59.1405 166.474 59.4107 167.432 59.967C168.257 60.5016 168.865 61.3132 169.145 62.2558L167.111 62.8116C166.943 62.2643 166.583 61.7961 166.098 61.4931C165.565 61.1588 164.946 60.9887 164.317 61.004C163.874 60.974 163.429 61.0459 163.018 61.2141C162.606 61.3823 162.238 61.6423 161.943 61.9743C161.348 62.797 161.062 63.8022 161.133 64.8146C161.062 65.85 161.357 66.8773 161.966 67.7177C162.264 68.0577 162.635 68.3248 163.052 68.4985C163.47 68.6722 163.921 68.7478 164.372 68.7195Z" fill="#3B5252"/>
<path d="M170.796 70.3792V59.3535H179.467V61.1379H173.105V63.908H178.989V65.692H173.105V68.5952H179.788V70.3792H170.796Z" fill="#3B5252"/>
<path d="M87.9047 104.675H72.7568V89.5273H87.9047V104.675ZM73.8999 103.532H86.7617V90.6705H73.8999V103.532Z" fill="#8DB2B3"/>
<path d="M193.084 90.1016H99.4326V95.2462H193.084V90.1016Z" fill="#EFEFEF"/>
<path d="M183.081 98.9609H99.4326V104.106H183.081V98.9609Z" fill="#EFEFEF"/>
<path d="M171.505 107.82H99.4326V112.965H171.505V107.82Z" fill="#EFEFEF"/>
<path d="M87.9047 138.404H72.7568V123.256H87.9047V138.404ZM73.8999 137.26H86.7617V124.399H73.8999V137.26Z" fill="#8DB2B3"/>
<path d="M193.084 123.828H99.4326V128.973H193.084V123.828Z" fill="#EFEFEF"/>
<path d="M188.511 132.688H99.4326V137.832H188.511V132.688Z" fill="#EFEFEF"/>
<path d="M190.797 141.547H99.4326V146.692H190.797V141.547Z" fill="#EFEFEF"/>
<path d="M87.9047 172.129H72.7568V156.98H87.9047V172.129ZM73.8999 170.985H86.7617V158.124H73.8999V170.985Z" fill="#8DB2B3"/>
<path d="M193.084 157.553H99.4326V162.697H193.084V157.553Z" fill="#EFEFEF"/>
<path d="M179.508 166.412H99.4326V171.557H179.508V166.412Z" fill="#EFEFEF"/>
<path d="M182.509 175.273H99.4326V180.418H182.509V175.273Z" fill="#EFEFEF"/>
<path d="M87.9047 205.856H72.7568V190.707H87.9047V205.856ZM73.8999 204.712H86.7617V191.851H73.8999V204.712Z" fill="#8DB2B3"/>
<path d="M193.084 191.277H99.4326V196.422H193.084V191.277Z" fill="#EFEFEF"/>
<path d="M187.082 200.139H99.4326V205.283H187.082V200.139Z" fill="#EFEFEF"/>
<path d="M177.364 208.998H99.4326V214.143H177.364V208.998Z" fill="#EFEFEF"/>
<path d="M193.084 241.484H142.305V242.056H193.084V241.484Z" fill="#B5D6EA"/>
<path d="M132.016 233.578H105.34V241.771H132.016V233.578Z" fill="#EFEFEF"/>
<path d="M75.6143 91.5303C76.7916 92.7957 77.8738 94.1464 78.8522 95.5712C79.8369 96.9996 80.7235 98.4933 81.5058 100.042L79.998 100.073C80.5108 98.8503 81.1059 97.6634 81.7794 96.5209C82.4344 95.381 83.1602 94.2832 83.9526 93.2342C85.508 91.1166 87.3695 89.242 89.4762 87.6719C88.7348 88.7559 87.9645 89.7831 87.255 90.8539C86.5352 91.9145 85.8384 92.9823 85.175 94.0686C84.5004 95.1468 83.8658 96.2477 83.2443 97.3527C82.6487 98.4637 82.0195 99.5918 81.5199 100.708L80.7526 102.421L80.0119 100.739C79.3377 99.2086 78.5993 97.6859 77.8433 96.1637L76.7214 93.8623C76.341 93.0959 75.9772 92.3166 75.6143 91.5303Z" fill="#EB5654"/>
<path d="M75.6143 125.542C76.7916 126.807 77.8738 128.158 78.8522 129.583C79.8369 131.011 80.7235 132.505 81.5058 134.054L79.998 134.085C80.5108 132.862 81.1059 131.675 81.7794 130.533C82.4344 129.393 83.1602 128.295 83.9526 127.246C85.508 125.128 87.3695 123.254 89.4762 121.684C88.7348 122.768 87.9645 123.795 87.255 124.866C86.5352 125.926 85.8384 126.994 85.175 128.08C84.5004 129.158 83.8658 130.259 83.2443 131.364C82.6487 132.475 82.0195 133.604 81.5199 134.719L80.7526 136.433L80.0119 134.751C79.3377 133.22 78.5993 131.698 77.8433 130.175L76.7214 127.874C76.341 127.108 75.9772 126.328 75.6143 125.542Z" fill="#EB5654"/>
<path d="M75.6143 159.552C76.7916 160.817 77.8738 162.168 78.8522 163.593C79.8369 165.021 80.7235 166.515 81.5058 168.063L79.998 168.095C80.5108 166.872 81.1059 165.685 81.7794 164.542C82.4344 163.403 83.1602 162.305 83.9526 161.256C85.508 159.138 87.3695 157.263 89.4762 155.693C88.7348 156.777 87.9645 157.805 87.255 158.875C86.5352 159.936 85.8384 161.004 85.175 162.09C84.5004 163.168 83.8658 164.269 83.2443 165.374C82.6487 166.485 82.0195 167.613 81.5199 168.729L80.7526 170.442L80.0119 168.761C79.3377 167.23 78.5993 165.707 77.8433 164.185L76.7214 161.884C76.341 161.117 75.9772 160.338 75.6143 159.552Z" fill="#EB5654"/>
<path d="M166.122 21.3145H99.4326V41.5119H166.122V21.3145Z" fill="#5E7878"/>
<path d="M179.032 283.494C178.883 285.209 178.842 286.932 178.91 288.653H185.29C185.29 288.653 181.937 286.65 180.967 283.494H179.032Z" fill="white"/>
<path d="M179.702 207.742C179.702 207.742 187.298 261.908 181.993 284.512H178.531C178.531 284.512 168.652 235.869 162.243 209.588L179.702 207.742Z" fill="#232E2E"/>
<path d="M168.582 237.335C169.524 228.606 169.237 212.846 169.237 212.846L164.433 218.831C165.773 224.628 167.187 230.962 168.582 237.335Z" fill="#2C3A3A"/>
<path d="M150.728 283.494C150.871 285.21 150.905 286.933 150.831 288.653H144.45C144.45 288.653 147.812 286.651 148.794 283.494H150.728Z" fill="white"/>
<path d="M154.345 210.154C154.345 210.154 148.512 247.452 147.994 284.513H151.252C151.252 284.513 159.487 273.924 170.131 206.521L154.345 210.154Z" fill="#232E2E"/>
<path d="M172.726 174.351C172.156 167.357 173.992 158.686 172.629 156.889C171.265 155.092 165.214 155.285 164.722 157.557C164.23 159.829 162.403 167.697 163.35 168.527C164.297 169.358 166.836 168.906 166.836 168.906L166.557 174.208C166.557 174.208 170.382 178.504 172.726 174.351Z" fill="#F79885"/>
<path d="M163.041 156.503C162.611 158.396 162.675 161.448 167.485 160.047C167.485 160.047 166.832 167.84 171.334 168.297C174.038 168.601 173.664 168.191 173.488 166.275C173.313 164.359 176.537 156.82 174.042 156.47C173.954 154.631 171.911 153.606 172.29 155.678C167.329 152.059 167.371 155.148 167.371 155.148C167.371 155.148 164.036 152.118 163.041 156.503Z" fill="black"/>
<path d="M179.824 175.361L175.561 184.711L179.858 190.574L187.711 185.931C185.466 181.466 182.552 177.328 179.824 175.361Z" fill="#1FA1A2"/>
<path d="M187.711 185.93L179.857 190.573L183.875 196.054L167.536 196.571C167.536 196.571 186.515 206.128 190.661 201.763C192.8 199.511 190.954 192.38 187.711 185.93Z" fill="#F79885"/>
<path d="M181.048 179.895L184.24 187.982L179.857 190.573L181.048 179.895Z" fill="#28AFB0"/>
<path d="M86.1961 158.251L86.2222 158.187C86.2979 158 86.4445 157.852 86.6299 157.773C86.8152 157.695 87.024 157.694 87.2104 157.769L93.391 160.281C93.5774 160.357 93.726 160.503 93.8043 160.689C93.8825 160.874 93.8839 161.083 93.8082 161.269L93.7822 161.333C93.7065 161.519 93.5598 161.668 93.3745 161.746C93.1892 161.825 92.9803 161.826 92.794 161.75L86.6132 159.239C86.4269 159.163 86.2783 159.016 86.2001 158.831C86.1218 158.646 86.1204 158.437 86.1961 158.251Z" fill="#232E2E"/>
<path d="M158.55 181.9C185.001 192.645 207.619 203.027 218.943 209.387C219.457 209.706 219.837 210.2 220.013 210.778C220.189 211.356 220.149 211.979 219.901 212.529C219.695 213.097 219.289 213.571 218.76 213.863C218.23 214.154 217.613 214.243 217.023 214.114C204.471 210.775 181.021 202.443 154.57 191.697C122.789 178.787 96.5493 166.406 88.7715 160.883L89.9031 158.098C99.3288 159.564 126.769 168.989 158.55 181.9Z" fill="#7F9292"/>
<path d="M216.712 206.975L216.079 208.533C216.025 208.691 215.939 208.837 215.826 208.96C215.714 209.084 215.577 209.183 215.424 209.251C215.272 209.32 215.107 209.356 214.939 209.358C214.772 209.36 214.606 209.327 214.452 209.263L176.723 191.667C176.416 191.503 176.183 191.23 176.07 190.901C175.956 190.572 175.972 190.212 176.113 189.894L176.745 188.337C176.8 188.178 176.886 188.033 176.998 187.909C177.111 187.786 177.248 187.687 177.401 187.618C177.553 187.55 177.718 187.514 177.885 187.512C178.053 187.51 178.218 187.542 178.373 187.607L216.102 205.202C216.408 205.366 216.642 205.64 216.755 205.969C216.868 206.298 216.853 206.657 216.712 206.975Z" fill="#E3FFFF"/>
<path d="M141.55 186.311L145.461 176.685C144.711 176.392 143.964 176.101 143.222 175.812L139.337 185.375C140.07 185.686 140.808 185.998 141.55 186.311Z" fill="#E3FFFF"/>
<path d="M156.398 173.913C156.398 173.913 154.507 199.955 152.934 215.578C152.934 215.578 168.113 218.245 181.328 214.911C180.747 203.206 182.628 178.27 179.823 175.361C172.216 173.161 164.218 172.667 156.398 173.913Z" fill="#1FA1A2"/>
<path d="M155.953 179.895H161.957C161.957 179.895 159.27 187.616 155.164 190.052L155.953 179.895Z" fill="#28AFB0"/>
<path d="M156.398 173.912C156.398 173.912 164.001 173.565 164.008 176.595C164.011 178.159 159.401 183.469 155.403 186.944L149.518 180.045C151.61 177.786 153.914 175.733 156.398 173.912Z" fill="#1FA1A2"/>
<path d="M122.239 177.818C134.116 182.721 143.259 186.492 143.259 186.492C143.259 186.492 146.817 182.515 149.519 180.044L155.404 186.942C151.657 190.197 147.589 193.179 144.079 193.436C134.398 194.146 122.935 181.735 122.239 177.818Z" fill="#F79885"/>
<path d="M124.812 179.04C124.812 179.04 121.685 175.355 121.113 175.355C120.542 175.355 121.756 177.437 121.756 177.437L117.836 176.119C117.836 176.119 118.612 178.642 119.827 179.285C121.257 179.813 122.787 180.016 124.305 179.881C124.397 179.866 124.485 179.831 124.562 179.778C124.639 179.726 124.704 179.658 124.752 179.578C124.801 179.498 124.831 179.408 124.841 179.316C124.851 179.223 124.841 179.129 124.812 179.04Z" fill="#F79885"/>
<path d="M167.226 161.506C167.226 161.506 168.73 160.295 168.968 160.995C169.437 162.375 167.174 162.951 167.174 162.951L167.226 161.506Z" fill="#F79885"/>
<path d="M81.1558 273.123H31.2114V281.527H81.1558V273.123Z" fill="#F5AF0C"/>
<path d="M80.6846 273.594V281.056H31.6824V273.594H80.6846ZM81.6267 272.652H30.7402V281.999H81.6267V272.652Z" fill="#E6890E"/>
<path d="M35.6293 280.586C35.4516 280.586 35.2811 280.515 35.1554 280.39C35.0297 280.264 34.959 280.094 34.959 279.916V274.737C34.959 274.559 35.0296 274.388 35.1553 274.263C35.281 274.137 35.4516 274.066 35.6293 274.066C35.8071 274.066 35.9777 274.137 36.1034 274.263C36.2291 274.388 36.2997 274.559 36.2997 274.737V279.916C36.2996 280.094 36.229 280.264 36.1033 280.39C35.9776 280.515 35.8071 280.586 35.6293 280.586Z" fill="#E6890E"/>
<path d="M42.481 280.586C42.3032 280.586 42.1327 280.516 42.007 280.39C41.8813 280.264 41.8106 280.094 41.8105 279.916V274.737C41.8105 274.559 41.8812 274.388 42.0069 274.263C42.1326 274.137 42.3031 274.066 42.4809 274.066C42.6587 274.066 42.8292 274.137 42.955 274.263C43.0807 274.388 43.1513 274.559 43.1513 274.737V279.916C43.1513 280.094 43.0806 280.264 42.9549 280.39C42.8292 280.516 42.6587 280.586 42.481 280.586Z" fill="#E6890E"/>
<path d="M49.3325 280.586C49.1547 280.586 48.9842 280.516 48.8585 280.39C48.7328 280.264 48.6622 280.094 48.6621 279.916V274.737C48.6621 274.559 48.7327 274.388 48.8585 274.263C48.9842 274.137 49.1547 274.066 49.3325 274.066C49.5103 274.066 49.6808 274.137 49.8065 274.263C49.9323 274.388 50.0029 274.559 50.0029 274.737V279.916C50.0028 280.094 49.9322 280.264 49.8064 280.39C49.6807 280.516 49.5102 280.586 49.3325 280.586Z" fill="#E6890E"/>
<path d="M56.1841 280.586C56.0063 280.586 55.8358 280.516 55.7101 280.39C55.5844 280.264 55.5137 280.094 55.5137 279.916V274.737C55.5137 274.559 55.5843 274.388 55.71 274.263C55.8357 274.137 56.0063 274.066 56.1841 274.066C56.3619 274.066 56.5324 274.137 56.6581 274.263C56.7838 274.388 56.8545 274.559 56.8545 274.737V279.916C56.8544 280.094 56.7837 280.264 56.658 280.39C56.5323 280.516 56.3619 280.586 56.1841 280.586Z" fill="#E6890E"/>
<path d="M63.0346 280.586C62.8568 280.586 62.6864 280.516 62.5607 280.39C62.435 280.264 62.3643 280.094 62.3643 279.916V274.737C62.3643 274.559 62.4349 274.388 62.5606 274.263C62.6863 274.137 62.8568 274.066 63.0346 274.066C63.2124 274.066 63.383 274.137 63.5087 274.263C63.6344 274.388 63.705 274.559 63.705 274.737V279.916C63.705 280.094 63.6343 280.264 63.5086 280.39C63.3829 280.516 63.2124 280.586 63.0346 280.586Z" fill="#E6890E"/>
<path d="M69.8862 280.586C69.7084 280.586 69.5379 280.515 69.4122 280.39C69.2865 280.264 69.2159 280.094 69.2158 279.916V274.737C69.2158 274.559 69.2865 274.388 69.4122 274.263C69.5379 274.137 69.7084 274.066 69.8862 274.066C70.064 274.066 70.2345 274.137 70.3602 274.263C70.4859 274.388 70.5565 274.559 70.5565 274.737V279.916C70.5565 280.094 70.4858 280.264 70.3601 280.39C70.2344 280.515 70.064 280.586 69.8862 280.586Z" fill="#E6890E"/>
<path d="M76.7377 280.586C76.5599 280.586 76.3895 280.516 76.2638 280.39C76.1381 280.264 76.0674 280.094 76.0674 279.916V274.737C76.0674 274.559 76.138 274.388 76.2637 274.263C76.3895 274.137 76.56 274.066 76.7378 274.066C76.9156 274.066 77.0861 274.137 77.2118 274.263C77.3375 274.388 77.4082 274.559 77.4082 274.737V279.916C77.4081 280.094 77.3375 280.264 77.2117 280.39C77.086 280.516 76.9155 280.586 76.7377 280.586Z" fill="#E6890E"/>
<path d="M78.1781 263.984H28.2334V272.388H78.1781V263.984Z" fill="#F5AF0C"/>
<path d="M77.706 264.454V271.916H28.7039V264.454H77.706ZM78.6481 263.512H27.7617V272.858H78.6481V263.512Z" fill="#E6890E"/>
<path d="M32.6509 271.443C32.4731 271.443 32.3026 271.372 32.1769 271.247C32.0512 271.121 31.9805 270.95 31.9805 270.773V265.594C31.9805 265.416 32.0511 265.246 32.1768 265.12C32.3025 264.994 32.4731 264.924 32.6509 264.924C32.8287 264.924 32.9992 264.994 33.1249 265.12C33.2506 265.246 33.3213 265.416 33.3213 265.594V270.773C33.3212 270.95 33.2506 271.121 33.1249 271.247C32.9991 271.372 32.8287 271.443 32.6509 271.443Z" fill="#E6890E"/>
<path d="M39.5024 271.443C39.3246 271.443 39.1541 271.372 39.0284 271.247C38.9027 271.121 38.8321 270.95 38.832 270.773V265.594C38.832 265.506 38.8494 265.419 38.8831 265.338C38.9167 265.256 38.9661 265.182 39.0284 265.12C39.0906 265.058 39.1645 265.009 39.2458 264.975C39.3272 264.941 39.4144 264.924 39.5024 264.924C39.5904 264.924 39.6776 264.941 39.7589 264.975C39.8403 265.009 39.9142 265.058 39.9764 265.12C40.0387 265.182 40.088 265.256 40.1217 265.338C40.1554 265.419 40.1727 265.506 40.1727 265.594V270.773C40.1727 270.95 40.102 271.121 39.9763 271.247C39.8506 271.372 39.6802 271.443 39.5024 271.443Z" fill="#E6890E"/>
<path d="M46.354 271.443C46.1762 271.443 46.0057 271.372 45.88 271.247C45.7543 271.121 45.6837 270.95 45.6836 270.773V265.594C45.6836 265.416 45.7542 265.246 45.8799 265.12C46.0057 264.994 46.1762 264.924 46.354 264.924C46.5318 264.924 46.7023 264.994 46.828 265.12C46.9537 265.246 47.0244 265.416 47.0244 265.594V270.773C47.0243 270.95 46.9537 271.121 46.828 271.247C46.7023 271.372 46.5318 271.443 46.354 271.443Z" fill="#E6890E"/>
<path d="M53.2055 271.443C53.0277 271.443 52.8573 271.372 52.7316 271.247C52.6059 271.121 52.5352 270.95 52.5352 270.773V265.594C52.5352 265.416 52.6058 265.246 52.7315 265.12C52.8572 264.994 53.0277 264.924 53.2055 264.924C53.3833 264.924 53.5538 264.994 53.6795 265.12C53.8052 265.246 53.8759 265.416 53.8759 265.594V270.773C53.8758 270.95 53.8052 271.121 53.6795 271.247C53.5538 271.372 53.3833 271.443 53.2055 271.443Z" fill="#E6890E"/>
<path d="M60.0562 271.443C59.8784 271.443 59.7079 271.372 59.5822 271.247C59.4565 271.121 59.3858 270.95 59.3857 270.773V265.594C59.3857 265.416 59.4564 265.246 59.5821 265.12C59.7078 264.994 59.8783 264.924 60.0561 264.924C60.2339 264.924 60.4045 264.994 60.5302 265.12C60.6559 265.246 60.7265 265.416 60.7265 265.594V270.773C60.7265 270.95 60.6558 271.121 60.5301 271.247C60.4044 271.372 60.2339 271.443 60.0562 271.443Z" fill="#E6890E"/>
<path d="M66.9077 271.443C66.7299 271.443 66.5594 271.372 66.4337 271.247C66.308 271.121 66.2374 270.95 66.2373 270.773V265.594C66.2373 265.416 66.3079 265.246 66.4337 265.12C66.5594 264.994 66.7299 264.924 66.9077 264.924C67.0855 264.924 67.256 264.994 67.3817 265.12C67.5075 265.246 67.5781 265.416 67.5781 265.594V270.773C67.578 270.95 67.5074 271.121 67.3816 271.247C67.2559 271.372 67.0854 271.443 66.9077 271.443Z" fill="#E6890E"/>
<path d="M73.7593 271.443C73.5815 271.443 73.411 271.372 73.2853 271.247C73.1596 271.121 73.0889 270.95 73.0889 270.773V265.594C73.0889 265.416 73.1595 265.246 73.2852 265.12C73.411 264.994 73.5815 264.924 73.7593 264.924C73.9371 264.924 74.1076 264.994 74.2333 265.12C74.359 265.246 74.4297 265.416 74.4297 265.594V270.773C74.4296 270.95 74.359 271.121 74.2333 271.247C74.1076 271.372 73.9371 271.443 73.7593 271.443Z" fill="#E6890E"/>
<path d="M85.4429 254.635H35.4985V263.038H85.4429V254.635Z" fill="#F5AF0C"/>
<path d="M84.9717 255.106V262.568H35.9695V255.106H84.9717ZM85.9138 254.164H35.0273V263.51H85.9138V254.164Z" fill="#E6890E"/>
<path d="M39.9165 262.098C39.7387 262.098 39.5682 262.027 39.4425 261.901C39.3168 261.776 39.2461 261.605 39.2461 261.427V256.248C39.2461 256.071 39.3167 255.9 39.4424 255.774C39.5682 255.649 39.7387 255.578 39.9165 255.578C40.0942 255.578 40.2647 255.649 40.3905 255.774C40.5162 255.9 40.5868 256.071 40.5868 256.248V261.427C40.5868 261.605 40.5161 261.776 40.3904 261.901C40.2647 262.027 40.0942 262.098 39.9165 262.098Z" fill="#E6890E"/>
<path d="M46.7676 262.098C46.5898 262.098 46.4193 262.027 46.2936 261.901C46.1679 261.776 46.0972 261.605 46.0972 261.428V256.249C46.0972 256.071 46.1678 255.9 46.2935 255.774C46.4192 255.649 46.5898 255.578 46.7676 255.578C46.9454 255.578 47.1159 255.649 47.2416 255.774C47.3673 255.9 47.438 256.071 47.438 256.249V261.428C47.4379 261.605 47.3673 261.776 47.2416 261.901C47.1158 262.027 46.9454 262.098 46.7676 262.098Z" fill="#E6890E"/>
<path d="M53.6196 262.098C53.4418 262.098 53.2713 262.027 53.1456 261.901C53.0199 261.776 52.9493 261.605 52.9492 261.428V256.249C52.9492 256.16 52.9666 256.073 53.0003 255.992C53.0339 255.911 53.0833 255.837 53.1456 255.774C53.2078 255.712 53.2817 255.663 53.3631 255.629C53.4444 255.595 53.5316 255.578 53.6196 255.578C53.7076 255.578 53.7948 255.595 53.8762 255.629C53.9575 255.663 54.0314 255.712 54.0937 255.774C54.1559 255.837 54.2053 255.911 54.239 255.992C54.2727 256.073 54.29 256.16 54.29 256.249V261.428C54.2899 261.605 54.2193 261.776 54.0936 261.901C53.9678 262.027 53.7974 262.098 53.6196 262.098Z" fill="#E6890E"/>
<path d="M60.4707 262.098C60.2929 262.098 60.1224 262.027 59.9967 261.901C59.871 261.776 59.8003 261.605 59.8003 261.427V256.248C59.8003 256.16 59.8176 256.073 59.8513 255.992C59.885 255.911 59.9344 255.837 59.9966 255.774C60.0589 255.712 60.1328 255.663 60.2141 255.629C60.2955 255.595 60.3826 255.578 60.4707 255.578C60.5587 255.578 60.6459 255.595 60.7272 255.629C60.8085 255.663 60.8824 255.712 60.9447 255.774C61.0069 255.837 61.0563 255.911 61.09 255.992C61.1237 256.073 61.141 256.16 61.141 256.248V261.427C61.141 261.605 61.0703 261.776 60.9446 261.901C60.8189 262.027 60.6484 262.098 60.4707 262.098Z" fill="#E6890E"/>
<path d="M67.3222 262.098C67.1444 262.098 66.974 262.027 66.8483 261.901C66.7226 261.776 66.6519 261.605 66.6519 261.428V256.249C66.6519 256.071 66.7225 255.9 66.8482 255.774C66.9739 255.649 67.1445 255.578 67.3223 255.578C67.5001 255.578 67.6706 255.649 67.7963 255.774C67.922 255.9 67.9926 256.071 67.9926 256.249V261.428C67.9926 261.605 67.9219 261.776 67.7962 261.901C67.6705 262.027 67.5 262.098 67.3222 262.098Z" fill="#E6890E"/>
<path d="M74.1738 262.098C73.996 262.098 73.8255 262.027 73.6998 261.901C73.5741 261.776 73.5035 261.605 73.5034 261.427V256.248C73.5034 256.071 73.574 255.9 73.6998 255.774C73.8255 255.649 73.996 255.578 74.1738 255.578C74.3516 255.578 74.5221 255.649 74.6478 255.774C74.7735 255.9 74.8441 256.071 74.8441 256.248V261.427C74.8441 261.605 74.7735 261.776 74.6477 261.901C74.522 262.027 74.3516 262.098 74.1738 262.098Z" fill="#E6890E"/>
<path d="M81.0253 262.098C80.8476 262.098 80.6771 262.027 80.5514 261.901C80.4257 261.776 80.355 261.605 80.355 261.428V256.249C80.355 256.071 80.4256 255.9 80.5513 255.774C80.6771 255.649 80.8476 255.578 81.0254 255.578C81.2032 255.578 81.3737 255.649 81.4994 255.774C81.6251 255.9 81.6958 256.071 81.6958 256.249V261.428C81.6957 261.605 81.6251 261.776 81.4994 261.901C81.3736 262.027 81.2031 262.098 81.0253 262.098Z" fill="#E6890E"/>
<path d="M90.0052 244.498C100.971 251.997 107.92 264.192 105.524 271.734C103.129 279.275 92.2954 279.31 81.3295 271.812C70.3637 264.313 63.4195 252.121 65.815 244.579C68.2106 237.038 79.0392 236.999 90.0052 244.498Z" fill="#F5AF0C"/>
<path d="M68.936 258.846L93.8732 247.475C98.9543 251.849 102.798 257.156 104.69 262.132L82.198 272.388C81.9086 272.2 81.6193 272.01 81.3296 271.812C76.3289 268.414 72.1049 263.995 68.936 258.846Z" fill="#FFC917"/>
<path d="M88.4017 243.459C88.9355 243.789 89.4699 244.132 90.0053 244.498C90.3473 244.732 90.6854 244.97 91.0195 245.213L67.4097 255.979C67.0293 255.168 66.6909 254.339 66.396 253.493L88.4017 243.459Z" fill="#FFC917"/>
<path d="M92.9793 271.442C89.9092 271.442 86.2071 270.107 82.5597 267.613C75.0911 262.505 70.3567 254.126 72.0062 248.933C72.2636 248.084 72.7236 247.309 73.3465 246.677C73.9694 246.045 74.7367 245.573 75.5822 245.303C79.008 244.124 83.9394 245.392 88.7747 248.699C96.246 253.808 100.983 262.188 99.3329 267.381C99.0754 268.23 98.6155 269.004 97.9928 269.636C97.3701 270.268 96.6032 270.74 95.758 271.01C94.8621 271.307 93.9231 271.453 92.9793 271.442ZM78.3171 245.566C77.4643 245.554 76.6157 245.685 75.8056 245.951C75.0621 246.189 74.3873 246.603 73.8393 247.158C73.2913 247.714 72.8864 248.394 72.6596 249.141C71.0955 254.066 75.7101 262.098 82.9468 267.046C87.5362 270.185 92.3602 271.455 95.5346 270.361C96.2778 270.124 96.9523 269.71 97.5001 269.155C98.048 268.6 98.4527 267.919 98.6796 267.173C100.244 262.248 95.6266 254.215 88.3875 249.265C84.8885 246.872 81.2534 245.566 78.3171 245.566Z" fill="#E6890E"/>
<path d="M67.4582 241.666L63.3096 246.252C62.5581 247.093 61.9976 248.087 61.6665 249.165C59.271 256.707 66.2152 268.899 77.181 276.398C86.4844 282.76 95.6924 283.699 99.7334 279.232L103.882 274.647C99.841 279.113 90.633 278.174 81.3296 271.812C70.3638 264.313 63.4196 252.122 65.8151 244.58C66.1462 243.501 66.7067 242.507 67.4582 241.666Z" fill="#E6890E"/>
<path d="M94.8075 281.326C94.6745 281.325 94.5444 281.287 94.433 281.214C94.3216 281.141 94.2338 281.038 94.1802 280.916C94.1266 280.794 94.1096 280.659 94.1312 280.528C94.1527 280.397 94.212 280.275 94.3017 280.176L96.4172 277.864C96.54 277.729 96.7111 277.649 96.8929 277.641C97.0747 277.633 97.2522 277.698 97.3865 277.821C97.5207 277.943 97.6007 278.114 97.6088 278.296C97.6169 278.478 97.5524 278.656 97.4296 278.79L95.3141 281.103C95.2498 281.173 95.1716 281.229 95.0844 281.268C94.9971 281.306 94.9028 281.326 94.8075 281.326Z" fill="#F0B916"/>
<path d="M87.0551 280.533C86.922 280.533 86.7919 280.494 86.6805 280.421C86.5691 280.349 86.4813 280.245 86.4277 280.123C86.3741 280.002 86.3571 279.867 86.3788 279.736C86.4004 279.604 86.4597 279.482 86.5495 279.384L88.9752 276.732C89.036 276.666 89.1093 276.612 89.191 276.574C89.2726 276.536 89.3609 276.514 89.4509 276.51C89.5408 276.506 89.6307 276.52 89.7154 276.551C89.8 276.582 89.8778 276.629 89.9442 276.69C90.0106 276.751 90.0644 276.824 90.1025 276.905C90.1406 276.987 90.1623 277.075 90.1662 277.165C90.1702 277.255 90.1564 277.345 90.1256 277.43C90.0949 277.515 90.0477 277.592 89.9869 277.659L87.5612 280.31C87.4971 280.381 87.4189 280.437 87.3317 280.475C87.2446 280.514 87.1503 280.533 87.0551 280.533Z" fill="#F0B916"/>
<path d="M81.0282 277.843C80.8952 277.843 80.765 277.804 80.6536 277.731C80.5423 277.658 80.4544 277.555 80.4009 277.433C80.3473 277.311 80.3303 277.177 80.3519 277.045C80.3735 276.914 80.4329 276.792 80.5227 276.694L82.8974 274.098C82.9582 274.031 83.0315 273.977 83.1131 273.939C83.1947 273.901 83.283 273.88 83.373 273.876C83.463 273.872 83.5529 273.885 83.6375 273.916C83.7222 273.947 83.7999 273.994 83.8663 274.055C83.9328 274.116 83.9866 274.189 84.0247 274.271C84.0628 274.352 84.0844 274.441 84.0884 274.531C84.0924 274.621 84.0786 274.71 84.0478 274.795C84.017 274.88 83.9699 274.958 83.9091 275.024L81.5344 277.62C81.4702 277.69 81.392 277.747 81.3048 277.785C81.2177 277.823 81.1234 277.843 81.0282 277.843Z" fill="#F0B916"/>
<path d="M75.7877 274.304C75.6546 274.304 75.5244 274.265 75.413 274.192C75.3016 274.12 75.2137 274.016 75.1601 273.894C75.1065 273.772 75.0895 273.638 75.1112 273.506C75.1329 273.375 75.1923 273.253 75.2821 273.155L77.6199 270.6C77.6807 270.533 77.754 270.479 77.8357 270.441C77.9173 270.403 78.0056 270.382 78.0956 270.378C78.1855 270.374 78.2754 270.387 78.36 270.418C78.4447 270.449 78.5225 270.496 78.5889 270.557C78.6553 270.618 78.7091 270.691 78.7472 270.773C78.7853 270.854 78.807 270.943 78.8109 271.033C78.8149 271.123 78.8011 271.212 78.7703 271.297C78.7396 271.382 78.6924 271.459 78.6316 271.526L76.2938 274.081C76.2296 274.151 76.1515 274.207 76.0643 274.246C75.9771 274.284 75.8829 274.304 75.7877 274.304Z" fill="#F0B916"/>
<path d="M71.1456 270.104C71.0125 270.104 70.8823 270.065 70.7709 269.992C70.6594 269.92 70.5716 269.816 70.518 269.694C70.4644 269.572 70.4474 269.438 70.4691 269.306C70.4908 269.175 70.5502 269.053 70.6401 268.955L72.955 266.425C73.0157 266.358 73.089 266.304 73.1707 266.266C73.2523 266.228 73.3408 266.206 73.4309 266.202C73.521 266.198 73.611 266.212 73.6957 266.242C73.7805 266.273 73.8584 266.32 73.9249 266.381C73.9915 266.442 74.0453 266.515 74.0834 266.597C74.1215 266.679 74.1431 266.767 74.147 266.858C74.1509 266.948 74.137 267.038 74.106 267.122C74.0751 267.207 74.0277 267.285 73.9667 267.351L71.6518 269.881C71.5876 269.951 71.5094 270.007 71.4222 270.046C71.335 270.084 71.2408 270.104 71.1456 270.104Z" fill="#F0B916"/>
<path d="M67.1324 265.225C66.9993 265.225 66.8691 265.186 66.7577 265.113C66.6463 265.041 66.5584 264.937 66.5048 264.815C66.4512 264.693 66.4343 264.559 66.4559 264.427C66.4776 264.296 66.537 264.174 66.6269 264.076L68.9 261.592C68.9609 261.525 69.0342 261.472 69.1158 261.434C69.1974 261.395 69.2857 261.374 69.3757 261.37C69.4657 261.366 69.5555 261.38 69.6402 261.41C69.7248 261.441 69.8026 261.488 69.869 261.549C69.9354 261.61 69.9892 261.683 70.0273 261.765C70.0654 261.846 70.0871 261.935 70.0911 262.025C70.095 262.115 70.0812 262.205 70.0505 262.289C70.0197 262.374 69.9726 262.452 69.9117 262.518L67.6386 265.002C67.5744 265.072 67.4962 265.128 67.409 265.167C67.3219 265.205 67.2276 265.225 67.1324 265.225Z" fill="#F0B916"/>
<path d="M63.8881 259.495C63.755 259.495 63.6249 259.456 63.5135 259.383C63.4021 259.31 63.3143 259.207 63.2607 259.085C63.2071 258.963 63.1901 258.828 63.2118 258.697C63.2334 258.566 63.2927 258.444 63.3825 258.346L65.6044 255.917C65.6651 255.851 65.7384 255.797 65.8201 255.758C65.9018 255.72 65.9902 255.698 66.0803 255.694C66.1704 255.69 66.2604 255.704 66.3452 255.734C66.4299 255.765 66.5078 255.812 66.5743 255.873C66.6409 255.934 66.6947 256.008 66.7328 256.089C66.7709 256.171 66.7926 256.26 66.7964 256.35C66.8003 256.44 66.7864 256.53 66.7554 256.615C66.7245 256.699 66.6771 256.777 66.6161 256.843L64.3943 259.272C64.3301 259.342 64.2519 259.398 64.1647 259.437C64.0776 259.475 63.9833 259.495 63.8881 259.495Z" fill="#F0B916"/>
<path d="M62.371 251.888C62.2379 251.888 62.1078 251.849 61.9964 251.777C61.885 251.704 61.7972 251.6 61.7436 251.478C61.6901 251.357 61.673 251.222 61.6947 251.091C61.7163 250.959 61.7756 250.837 61.8654 250.739L63.4857 248.968C63.5464 248.901 63.6197 248.847 63.7014 248.809C63.783 248.771 63.8714 248.749 63.9615 248.745C64.0516 248.741 64.1416 248.755 64.2264 248.785C64.3112 248.816 64.3891 248.863 64.4556 248.924C64.5221 248.985 64.576 249.058 64.6141 249.14C64.6522 249.222 64.6738 249.31 64.6777 249.4C64.6816 249.491 64.6676 249.581 64.6367 249.665C64.6057 249.75 64.5584 249.828 64.4974 249.894L62.8771 251.665C62.813 251.736 62.7348 251.792 62.6476 251.83C62.5604 251.869 62.4662 251.888 62.371 251.888Z" fill="#F0B916"/>
</svg>
