<svg width="40" height="40" viewBox="0 0 40 40" fill="none" xmlns="http://www.w3.org/2000/svg">
<rect width="40" height="40" rx="8" fill="#E4EEF8"/>
<path d="M19.3188 13.533C20.5692 13.533 21.5852 12.5183 21.5852 11.2665C21.5852 10.0144 20.5692 9 19.3188 9C18.0668 9 17.0518 10.0144 17.0518 11.2665C17.0518 12.5183 18.0668 13.533 19.3188 13.533Z" fill="#2064A3"/>
<path d="M22.8209 26.376C22.2186 28.4673 20.2908 30.0031 18.0082 30.0031C15.244 30.0031 12.9961 27.7551 12.9961 24.9918C12.9961 22.9463 14.2302 21.1857 15.9912 20.4077V18.2832C13.1072 19.1519 11 21.8291 11 24.9918C11 28.8556 14.1438 31.9995 18.0081 31.9995C20.8243 31.9995 23.2516 30.3258 24.3646 27.9243L23.5733 26.3696C23.3512 26.3715 23.0939 26.3738 22.8209 26.376Z" fill="#2064A3"/>
<path d="M29.4243 29.0677L26.3884 23.099C26.1618 22.6524 25.7038 22.3713 25.2027 22.3713H21.3144V21.4846H24.6608C24.995 21.4846 25.2759 21.31 25.4573 21.0583C25.5752 20.8944 25.6591 20.704 25.6591 20.4863C25.6591 19.9352 25.2127 19.4881 24.6608 19.4881H22.6447H21.3144V16.4808C21.3144 15.6537 20.7011 14.4844 19.3186 14.4844C18.2161 14.4844 17.3223 15.3783 17.3223 16.4808V22.9965C17.3223 24.1212 18.234 25.0329 19.3588 25.0329H23.0177H24.3867L27.0526 30.2744C27.2869 30.7361 27.7544 31.0025 28.2396 31.0025C28.4429 31.0025 28.6491 30.956 28.8418 30.8574C29.4979 30.5246 29.7585 29.7228 29.4243 29.0677Z" fill="#2064A3"/>
</svg>
